G04 MADE WITH FRITZING*
G04 WWW.FRITZING.ORG*
G04 DOUBLE SIDED*
G04 HOLES PLATED*
G04 CONTOUR ON CENTER OF CONTOUR VECTOR*
%ASAXBY*%
%FSLAX23Y23*%
%MOIN*%
%OFA0B0*%
%SFA1.0B1.0*%
%ADD10C,0.049370*%
%ADD11C,0.096614*%
%ADD12C,0.085000*%
%ADD13C,0.068000*%
%ADD14C,0.080000*%
%ADD15C,0.088000*%
%ADD16C,0.062000*%
%ADD17C,0.088740*%
%ADD18R,0.153667X0.088000*%
%ADD19R,0.154000X0.088000*%
%ADD20R,0.088000X0.154000*%
%ADD21R,0.079958X0.080000*%
%ADD22R,0.001000X0.001000*%
%LNMASK0*%
G90*
G70*
G54D10*
X4013Y3637D03*
X3913Y2037D03*
X3413Y2237D03*
X4213Y1937D03*
X713Y3437D03*
X3413Y2737D03*
X3413Y2537D03*
G54D11*
X4413Y4437D03*
X113Y4437D03*
X113Y137D03*
X4413Y137D03*
G54D12*
X413Y437D03*
X157Y437D03*
X413Y614D03*
X157Y614D03*
X413Y837D03*
X157Y837D03*
X413Y1014D03*
X157Y1014D03*
X413Y1237D03*
X157Y1237D03*
X413Y1414D03*
X157Y1414D03*
X413Y1637D03*
X157Y1637D03*
X413Y1814D03*
X157Y1814D03*
X413Y2037D03*
X157Y2037D03*
X413Y2214D03*
X157Y2214D03*
X413Y2437D03*
X157Y2437D03*
X413Y2614D03*
X157Y2614D03*
X813Y437D03*
X557Y437D03*
X813Y614D03*
X557Y614D03*
X813Y837D03*
X557Y837D03*
X813Y1014D03*
X557Y1014D03*
X813Y1237D03*
X557Y1237D03*
X813Y1414D03*
X557Y1414D03*
X813Y1637D03*
X557Y1637D03*
X813Y1814D03*
X557Y1814D03*
X813Y2037D03*
X557Y2037D03*
X813Y2214D03*
X557Y2214D03*
X813Y2437D03*
X557Y2437D03*
X813Y2614D03*
X557Y2614D03*
X1213Y437D03*
X957Y437D03*
X1213Y614D03*
X957Y614D03*
X1213Y837D03*
X957Y837D03*
X1213Y1014D03*
X957Y1014D03*
X1213Y1237D03*
X957Y1237D03*
X1213Y1414D03*
X957Y1414D03*
X1213Y1637D03*
X957Y1637D03*
X1213Y1814D03*
X957Y1814D03*
X1213Y2037D03*
X957Y2037D03*
X1213Y2214D03*
X957Y2214D03*
X1213Y2437D03*
X957Y2437D03*
X1213Y2614D03*
X957Y2614D03*
X1613Y437D03*
X1357Y437D03*
X1613Y614D03*
X1357Y614D03*
X1613Y837D03*
X1357Y837D03*
X1613Y1014D03*
X1357Y1014D03*
X1613Y1237D03*
X1357Y1237D03*
X1613Y1414D03*
X1357Y1414D03*
X1613Y1637D03*
X1357Y1637D03*
X1613Y1814D03*
X1357Y1814D03*
X1613Y2037D03*
X1357Y2037D03*
X1613Y2214D03*
X1357Y2214D03*
X1613Y2437D03*
X1357Y2437D03*
X1613Y2614D03*
X1357Y2614D03*
X2013Y437D03*
X1757Y437D03*
X2013Y614D03*
X1757Y614D03*
X2013Y837D03*
X1757Y837D03*
X2013Y1014D03*
X1757Y1014D03*
X2013Y1237D03*
X1757Y1237D03*
X2013Y1414D03*
X1757Y1414D03*
X2013Y1637D03*
X1757Y1637D03*
X2013Y1814D03*
X1757Y1814D03*
X2013Y2037D03*
X1757Y2037D03*
X2013Y2214D03*
X1757Y2214D03*
X2013Y2437D03*
X1757Y2437D03*
X2013Y2614D03*
X1757Y2614D03*
X2413Y437D03*
X2157Y437D03*
X2413Y614D03*
X2157Y614D03*
X2413Y837D03*
X2157Y837D03*
X2413Y1014D03*
X2157Y1014D03*
X2413Y1237D03*
X2157Y1237D03*
X2413Y1414D03*
X2157Y1414D03*
X2413Y1637D03*
X2157Y1637D03*
X2413Y1814D03*
X2157Y1814D03*
X2413Y2037D03*
X2157Y2037D03*
X2413Y2214D03*
X2157Y2214D03*
X2413Y2437D03*
X2157Y2437D03*
X2413Y2614D03*
X2157Y2614D03*
G54D13*
X3558Y3911D03*
X3367Y3911D03*
G54D14*
X3356Y4031D03*
X3570Y4031D03*
G54D15*
X3113Y4037D03*
X3113Y3937D03*
X3113Y3837D03*
X3113Y3737D03*
X3113Y3637D03*
X3113Y3537D03*
X3113Y3437D03*
X3113Y3337D03*
X3113Y3237D03*
X3113Y3137D03*
X3113Y3037D03*
X3113Y2937D03*
X3113Y2837D03*
X3113Y2737D03*
X3113Y2637D03*
X3113Y2537D03*
X3113Y2437D03*
X3113Y2337D03*
X3113Y2237D03*
X3113Y2137D03*
X3813Y2137D03*
X3813Y2237D03*
X3813Y2337D03*
X3813Y2437D03*
X3813Y2537D03*
X3813Y2637D03*
X3813Y2737D03*
X3813Y2837D03*
X3813Y2937D03*
X3813Y3037D03*
X3813Y3137D03*
X3813Y3237D03*
X3813Y3337D03*
X3813Y3437D03*
X3813Y3537D03*
X3813Y3637D03*
X3813Y3737D03*
X3813Y3837D03*
X3813Y3937D03*
X3813Y4037D03*
X3363Y2137D03*
X3463Y2137D03*
X3563Y2137D03*
G54D16*
X2913Y1337D03*
X3013Y1337D03*
X3013Y1637D03*
X2913Y1637D03*
X2713Y1337D03*
X2813Y1337D03*
X2813Y1637D03*
X2713Y1637D03*
G54D14*
X3213Y1637D03*
X3213Y1537D03*
X3213Y1437D03*
X3213Y1337D03*
X3213Y1237D03*
X3213Y1137D03*
X3213Y1037D03*
X3213Y937D03*
X3213Y837D03*
X3213Y737D03*
X3213Y637D03*
X3213Y537D03*
X3213Y437D03*
X3213Y337D03*
X3213Y237D03*
X3813Y1637D03*
X3813Y1537D03*
X3813Y1437D03*
X3813Y1337D03*
X3813Y1237D03*
X3813Y1137D03*
X3813Y1037D03*
X3813Y937D03*
X3813Y837D03*
X3813Y737D03*
X3813Y637D03*
X3813Y537D03*
X3813Y437D03*
X3813Y337D03*
X3813Y237D03*
X3413Y1733D03*
X3413Y1633D03*
X3513Y1733D03*
X3513Y1633D03*
X3613Y1733D03*
X3613Y1633D03*
G54D15*
X227Y3337D03*
X227Y3737D03*
X2313Y3737D03*
X227Y3537D03*
X227Y3937D03*
X2313Y3637D03*
X227Y3237D03*
X227Y3437D03*
X227Y3637D03*
X227Y3837D03*
X2313Y3537D03*
X2313Y3437D03*
G54D12*
X4013Y3137D03*
X4413Y3137D03*
X4013Y2437D03*
X4413Y2437D03*
X4013Y2637D03*
X4413Y2637D03*
X4013Y3237D03*
X4413Y3237D03*
G54D17*
X4113Y485D03*
X4113Y237D03*
X4309Y367D03*
G54D10*
X4313Y1037D03*
G54D18*
X3080Y4037D03*
G54D19*
X3081Y3937D03*
X3081Y3837D03*
X3080Y3737D03*
X3081Y3637D03*
X3081Y3537D03*
X3081Y3437D03*
X3081Y3337D03*
X3081Y3237D03*
X3081Y3137D03*
X3081Y3037D03*
X3081Y2937D03*
X3081Y2837D03*
X3081Y2737D03*
X3081Y2637D03*
X3081Y2537D03*
X3081Y2437D03*
X3081Y2337D03*
X3081Y2237D03*
X3081Y2137D03*
X3845Y2137D03*
X3845Y2237D03*
X3845Y2337D03*
X3845Y2437D03*
X3845Y2537D03*
X3845Y2637D03*
X3845Y2737D03*
X3845Y2837D03*
X3845Y2937D03*
X3845Y3037D03*
X3845Y3137D03*
X3845Y3237D03*
X3845Y3337D03*
X3845Y3437D03*
X3845Y3537D03*
X3845Y3637D03*
X3845Y3737D03*
X3845Y3837D03*
X3845Y3937D03*
X3845Y4037D03*
G54D20*
X3362Y2113D03*
X3462Y2113D03*
X3562Y2113D03*
G54D21*
X3213Y1637D03*
G54D22*
X2709Y1694D02*
X2716Y1694D01*
X2809Y1694D02*
X2816Y1694D01*
X2909Y1694D02*
X2916Y1694D01*
X3009Y1694D02*
X3016Y1694D01*
X2705Y1693D02*
X2721Y1693D01*
X2805Y1693D02*
X2821Y1693D01*
X2905Y1693D02*
X2921Y1693D01*
X3005Y1693D02*
X3021Y1693D01*
X2702Y1692D02*
X2724Y1692D01*
X2802Y1692D02*
X2824Y1692D01*
X2902Y1692D02*
X2924Y1692D01*
X3002Y1692D02*
X3024Y1692D01*
X2700Y1691D02*
X2726Y1691D01*
X2800Y1691D02*
X2826Y1691D01*
X2900Y1691D02*
X2926Y1691D01*
X3000Y1691D02*
X3026Y1691D01*
X2698Y1690D02*
X2728Y1690D01*
X2798Y1690D02*
X2828Y1690D01*
X2898Y1690D02*
X2928Y1690D01*
X2998Y1690D02*
X3028Y1690D01*
X2696Y1689D02*
X2729Y1689D01*
X2796Y1689D02*
X2829Y1689D01*
X2896Y1689D02*
X2929Y1689D01*
X2996Y1689D02*
X3029Y1689D01*
X2695Y1688D02*
X2731Y1688D01*
X2795Y1688D02*
X2831Y1688D01*
X2895Y1688D02*
X2931Y1688D01*
X2995Y1688D02*
X3031Y1688D01*
X2693Y1687D02*
X2732Y1687D01*
X2793Y1687D02*
X2832Y1687D01*
X2893Y1687D02*
X2932Y1687D01*
X2993Y1687D02*
X3032Y1687D01*
X2692Y1686D02*
X2733Y1686D01*
X2792Y1686D02*
X2833Y1686D01*
X2892Y1686D02*
X2933Y1686D01*
X2992Y1686D02*
X3033Y1686D01*
X2691Y1685D02*
X2734Y1685D01*
X2791Y1685D02*
X2834Y1685D01*
X2891Y1685D02*
X2934Y1685D01*
X2991Y1685D02*
X3034Y1685D01*
X2690Y1684D02*
X2735Y1684D01*
X2790Y1684D02*
X2835Y1684D01*
X2890Y1684D02*
X2935Y1684D01*
X2990Y1684D02*
X3035Y1684D01*
X2689Y1683D02*
X2736Y1683D01*
X2789Y1683D02*
X2836Y1683D01*
X2889Y1683D02*
X2936Y1683D01*
X2989Y1683D02*
X3036Y1683D01*
X2689Y1682D02*
X2737Y1682D01*
X2789Y1682D02*
X2837Y1682D01*
X2889Y1682D02*
X2937Y1682D01*
X2989Y1682D02*
X3037Y1682D01*
X2688Y1681D02*
X2738Y1681D01*
X2788Y1681D02*
X2838Y1681D01*
X2888Y1681D02*
X2938Y1681D01*
X2988Y1681D02*
X3038Y1681D01*
X2687Y1680D02*
X2738Y1680D01*
X2787Y1680D02*
X2838Y1680D01*
X2887Y1680D02*
X2938Y1680D01*
X2987Y1680D02*
X3038Y1680D01*
X2687Y1679D02*
X2739Y1679D01*
X2787Y1679D02*
X2839Y1679D01*
X2887Y1679D02*
X2939Y1679D01*
X2987Y1679D02*
X3039Y1679D01*
X2686Y1678D02*
X2739Y1678D01*
X2786Y1678D02*
X2839Y1678D01*
X2886Y1678D02*
X2939Y1678D01*
X2986Y1678D02*
X3039Y1678D01*
X2686Y1677D02*
X2740Y1677D01*
X2786Y1677D02*
X2840Y1677D01*
X2886Y1677D02*
X2940Y1677D01*
X2986Y1677D02*
X3040Y1677D01*
X2685Y1676D02*
X2740Y1676D01*
X2785Y1676D02*
X2840Y1676D01*
X2885Y1676D02*
X2940Y1676D01*
X2985Y1676D02*
X3040Y1676D01*
X2685Y1675D02*
X2741Y1675D01*
X2785Y1675D02*
X2841Y1675D01*
X2885Y1675D02*
X2941Y1675D01*
X2985Y1675D02*
X3041Y1675D01*
X2684Y1674D02*
X2741Y1674D01*
X2784Y1674D02*
X2841Y1674D01*
X2884Y1674D02*
X2941Y1674D01*
X2984Y1674D02*
X3041Y1674D01*
X2684Y1673D02*
X2742Y1673D01*
X2784Y1673D02*
X2842Y1673D01*
X2884Y1673D02*
X2942Y1673D01*
X2984Y1673D02*
X3042Y1673D01*
X2684Y1672D02*
X2742Y1672D01*
X2784Y1672D02*
X2842Y1672D01*
X2884Y1672D02*
X2942Y1672D01*
X2984Y1672D02*
X3042Y1672D01*
X2683Y1671D02*
X2742Y1671D01*
X2783Y1671D02*
X2842Y1671D01*
X2883Y1671D02*
X2942Y1671D01*
X2983Y1671D02*
X3042Y1671D01*
X2683Y1670D02*
X2742Y1670D01*
X2783Y1670D02*
X2842Y1670D01*
X2883Y1670D02*
X2942Y1670D01*
X2983Y1670D02*
X3042Y1670D01*
X2683Y1669D02*
X2743Y1669D01*
X2783Y1669D02*
X2843Y1669D01*
X2883Y1669D02*
X2943Y1669D01*
X2983Y1669D02*
X3043Y1669D01*
X2683Y1668D02*
X2743Y1668D01*
X2783Y1668D02*
X2843Y1668D01*
X2883Y1668D02*
X2943Y1668D01*
X2983Y1668D02*
X3043Y1668D01*
X2683Y1667D02*
X2743Y1667D01*
X2783Y1667D02*
X2843Y1667D01*
X2883Y1667D02*
X2943Y1667D01*
X2982Y1667D02*
X3043Y1667D01*
X2682Y1666D02*
X2743Y1666D01*
X2782Y1666D02*
X2843Y1666D01*
X2882Y1666D02*
X2943Y1666D01*
X2982Y1666D02*
X3043Y1666D01*
X2682Y1665D02*
X2743Y1665D01*
X2782Y1665D02*
X2843Y1665D01*
X2882Y1665D02*
X2943Y1665D01*
X2982Y1665D02*
X3043Y1665D01*
X2682Y1664D02*
X2743Y1664D01*
X2782Y1664D02*
X2843Y1664D01*
X2882Y1664D02*
X2943Y1664D01*
X2982Y1664D02*
X3043Y1664D01*
X2682Y1663D02*
X2743Y1663D01*
X2782Y1663D02*
X2843Y1663D01*
X2882Y1663D02*
X2943Y1663D01*
X2982Y1663D02*
X3043Y1663D01*
X2682Y1662D02*
X2743Y1662D01*
X2782Y1662D02*
X2843Y1662D01*
X2882Y1662D02*
X2943Y1662D01*
X2982Y1662D02*
X3043Y1662D01*
X2682Y1661D02*
X2743Y1661D01*
X2782Y1661D02*
X2843Y1661D01*
X2882Y1661D02*
X2943Y1661D01*
X2982Y1661D02*
X3043Y1661D01*
X2682Y1660D02*
X2743Y1660D01*
X2782Y1660D02*
X2843Y1660D01*
X2882Y1660D02*
X2943Y1660D01*
X2982Y1660D02*
X3043Y1660D01*
X2682Y1659D02*
X2743Y1659D01*
X2782Y1659D02*
X2843Y1659D01*
X2882Y1659D02*
X2943Y1659D01*
X2982Y1659D02*
X3043Y1659D01*
X2682Y1658D02*
X2743Y1658D01*
X2782Y1658D02*
X2843Y1658D01*
X2882Y1658D02*
X2943Y1658D01*
X2982Y1658D02*
X3043Y1658D01*
X2682Y1657D02*
X2743Y1657D01*
X2782Y1657D02*
X2843Y1657D01*
X2882Y1657D02*
X2943Y1657D01*
X2982Y1657D02*
X3043Y1657D01*
X2682Y1656D02*
X2743Y1656D01*
X2782Y1656D02*
X2843Y1656D01*
X2882Y1656D02*
X2943Y1656D01*
X2982Y1656D02*
X3043Y1656D01*
X2682Y1655D02*
X2743Y1655D01*
X2782Y1655D02*
X2843Y1655D01*
X2882Y1655D02*
X2943Y1655D01*
X2982Y1655D02*
X3043Y1655D01*
X2682Y1654D02*
X2743Y1654D01*
X2782Y1654D02*
X2843Y1654D01*
X2882Y1654D02*
X2943Y1654D01*
X2982Y1654D02*
X3043Y1654D01*
X2682Y1653D02*
X2743Y1653D01*
X2782Y1653D02*
X2843Y1653D01*
X2882Y1653D02*
X2943Y1653D01*
X2982Y1653D02*
X3043Y1653D01*
X2682Y1652D02*
X2743Y1652D01*
X2782Y1652D02*
X2843Y1652D01*
X2882Y1652D02*
X2943Y1652D01*
X2982Y1652D02*
X3043Y1652D01*
X2682Y1651D02*
X2743Y1651D01*
X2782Y1651D02*
X2843Y1651D01*
X2882Y1651D02*
X2943Y1651D01*
X2982Y1651D02*
X3043Y1651D01*
X2682Y1650D02*
X2743Y1650D01*
X2782Y1650D02*
X2843Y1650D01*
X2882Y1650D02*
X2943Y1650D01*
X2982Y1650D02*
X3043Y1650D01*
X2682Y1649D02*
X2743Y1649D01*
X2782Y1649D02*
X2843Y1649D01*
X2882Y1649D02*
X2943Y1649D01*
X2982Y1649D02*
X3043Y1649D01*
X2682Y1648D02*
X2710Y1648D01*
X2716Y1648D02*
X2743Y1648D01*
X2782Y1648D02*
X2810Y1648D01*
X2816Y1648D02*
X2843Y1648D01*
X2882Y1648D02*
X2910Y1648D01*
X2916Y1648D02*
X2943Y1648D01*
X2982Y1648D02*
X3010Y1648D01*
X3016Y1648D02*
X3043Y1648D01*
X2682Y1647D02*
X2707Y1647D01*
X2719Y1647D02*
X2743Y1647D01*
X2782Y1647D02*
X2807Y1647D01*
X2819Y1647D02*
X2843Y1647D01*
X2882Y1647D02*
X2907Y1647D01*
X2918Y1647D02*
X2943Y1647D01*
X2982Y1647D02*
X3007Y1647D01*
X3018Y1647D02*
X3043Y1647D01*
X2682Y1646D02*
X2706Y1646D01*
X2720Y1646D02*
X2743Y1646D01*
X2782Y1646D02*
X2806Y1646D01*
X2820Y1646D02*
X2843Y1646D01*
X2882Y1646D02*
X2906Y1646D01*
X2920Y1646D02*
X2943Y1646D01*
X2982Y1646D02*
X3006Y1646D01*
X3020Y1646D02*
X3043Y1646D01*
X2682Y1645D02*
X2704Y1645D01*
X2721Y1645D02*
X2743Y1645D01*
X2782Y1645D02*
X2804Y1645D01*
X2821Y1645D02*
X2843Y1645D01*
X2882Y1645D02*
X2904Y1645D01*
X2921Y1645D02*
X2943Y1645D01*
X2982Y1645D02*
X3004Y1645D01*
X3021Y1645D02*
X3043Y1645D01*
X2682Y1644D02*
X2704Y1644D01*
X2722Y1644D02*
X2743Y1644D01*
X2782Y1644D02*
X2804Y1644D01*
X2822Y1644D02*
X2843Y1644D01*
X2882Y1644D02*
X2904Y1644D01*
X2922Y1644D02*
X2943Y1644D01*
X2982Y1644D02*
X3004Y1644D01*
X3022Y1644D02*
X3043Y1644D01*
X2682Y1643D02*
X2703Y1643D01*
X2723Y1643D02*
X2743Y1643D01*
X2782Y1643D02*
X2803Y1643D01*
X2823Y1643D02*
X2843Y1643D01*
X2882Y1643D02*
X2903Y1643D01*
X2923Y1643D02*
X2943Y1643D01*
X2982Y1643D02*
X3003Y1643D01*
X3023Y1643D02*
X3043Y1643D01*
X2682Y1642D02*
X2702Y1642D01*
X2723Y1642D02*
X2743Y1642D01*
X2782Y1642D02*
X2802Y1642D01*
X2823Y1642D02*
X2843Y1642D01*
X2882Y1642D02*
X2902Y1642D01*
X2923Y1642D02*
X2943Y1642D01*
X2982Y1642D02*
X3002Y1642D01*
X3023Y1642D02*
X3043Y1642D01*
X2682Y1641D02*
X2702Y1641D01*
X2724Y1641D02*
X2743Y1641D01*
X2782Y1641D02*
X2802Y1641D01*
X2824Y1641D02*
X2843Y1641D01*
X2882Y1641D02*
X2902Y1641D01*
X2924Y1641D02*
X2943Y1641D01*
X2982Y1641D02*
X3002Y1641D01*
X3024Y1641D02*
X3043Y1641D01*
X2682Y1640D02*
X2702Y1640D01*
X2724Y1640D02*
X2743Y1640D01*
X2782Y1640D02*
X2802Y1640D01*
X2824Y1640D02*
X2843Y1640D01*
X2882Y1640D02*
X2902Y1640D01*
X2924Y1640D02*
X2943Y1640D01*
X2982Y1640D02*
X3002Y1640D01*
X3024Y1640D02*
X3043Y1640D01*
X2682Y1639D02*
X2701Y1639D01*
X2724Y1639D02*
X2743Y1639D01*
X2782Y1639D02*
X2801Y1639D01*
X2824Y1639D02*
X2843Y1639D01*
X2882Y1639D02*
X2901Y1639D01*
X2924Y1639D02*
X2943Y1639D01*
X2982Y1639D02*
X3001Y1639D01*
X3024Y1639D02*
X3043Y1639D01*
X2682Y1638D02*
X2701Y1638D01*
X2724Y1638D02*
X2743Y1638D01*
X2782Y1638D02*
X2801Y1638D01*
X2824Y1638D02*
X2843Y1638D01*
X2882Y1638D02*
X2901Y1638D01*
X2924Y1638D02*
X2943Y1638D01*
X2982Y1638D02*
X3001Y1638D01*
X3024Y1638D02*
X3043Y1638D01*
X2682Y1637D02*
X2701Y1637D01*
X2724Y1637D02*
X2743Y1637D01*
X2782Y1637D02*
X2801Y1637D01*
X2824Y1637D02*
X2843Y1637D01*
X2882Y1637D02*
X2901Y1637D01*
X2924Y1637D02*
X2943Y1637D01*
X2982Y1637D02*
X3001Y1637D01*
X3024Y1637D02*
X3043Y1637D01*
X2682Y1636D02*
X2701Y1636D01*
X2724Y1636D02*
X2743Y1636D01*
X2782Y1636D02*
X2801Y1636D01*
X2824Y1636D02*
X2843Y1636D01*
X2882Y1636D02*
X2901Y1636D01*
X2924Y1636D02*
X2943Y1636D01*
X2982Y1636D02*
X3001Y1636D01*
X3024Y1636D02*
X3043Y1636D01*
X2682Y1635D02*
X2701Y1635D01*
X2724Y1635D02*
X2743Y1635D01*
X2782Y1635D02*
X2801Y1635D01*
X2824Y1635D02*
X2843Y1635D01*
X2882Y1635D02*
X2901Y1635D01*
X2924Y1635D02*
X2943Y1635D01*
X2982Y1635D02*
X3001Y1635D01*
X3024Y1635D02*
X3043Y1635D01*
X2682Y1634D02*
X2702Y1634D01*
X2724Y1634D02*
X2743Y1634D01*
X2782Y1634D02*
X2802Y1634D01*
X2824Y1634D02*
X2843Y1634D01*
X2882Y1634D02*
X2902Y1634D01*
X2924Y1634D02*
X2943Y1634D01*
X2982Y1634D02*
X3002Y1634D01*
X3024Y1634D02*
X3043Y1634D01*
X2682Y1633D02*
X2702Y1633D01*
X2723Y1633D02*
X2743Y1633D01*
X2782Y1633D02*
X2802Y1633D01*
X2823Y1633D02*
X2843Y1633D01*
X2882Y1633D02*
X2902Y1633D01*
X2923Y1633D02*
X2943Y1633D01*
X2982Y1633D02*
X3002Y1633D01*
X3023Y1633D02*
X3043Y1633D01*
X2682Y1632D02*
X2703Y1632D01*
X2723Y1632D02*
X2743Y1632D01*
X2782Y1632D02*
X2803Y1632D01*
X2823Y1632D02*
X2843Y1632D01*
X2882Y1632D02*
X2903Y1632D01*
X2923Y1632D02*
X2943Y1632D01*
X2982Y1632D02*
X3003Y1632D01*
X3023Y1632D02*
X3043Y1632D01*
X2682Y1631D02*
X2703Y1631D01*
X2722Y1631D02*
X2743Y1631D01*
X2782Y1631D02*
X2803Y1631D01*
X2822Y1631D02*
X2843Y1631D01*
X2882Y1631D02*
X2903Y1631D01*
X2922Y1631D02*
X2943Y1631D01*
X2982Y1631D02*
X3003Y1631D01*
X3022Y1631D02*
X3043Y1631D01*
X2682Y1630D02*
X2704Y1630D01*
X2721Y1630D02*
X2743Y1630D01*
X2782Y1630D02*
X2804Y1630D01*
X2821Y1630D02*
X2843Y1630D01*
X2882Y1630D02*
X2904Y1630D01*
X2921Y1630D02*
X2943Y1630D01*
X2982Y1630D02*
X3004Y1630D01*
X3021Y1630D02*
X3043Y1630D01*
X2682Y1629D02*
X2705Y1629D01*
X2720Y1629D02*
X2743Y1629D01*
X2782Y1629D02*
X2805Y1629D01*
X2820Y1629D02*
X2843Y1629D01*
X2882Y1629D02*
X2905Y1629D01*
X2920Y1629D02*
X2943Y1629D01*
X2982Y1629D02*
X3005Y1629D01*
X3020Y1629D02*
X3043Y1629D01*
X2682Y1628D02*
X2706Y1628D01*
X2719Y1628D02*
X2743Y1628D01*
X2782Y1628D02*
X2806Y1628D01*
X2819Y1628D02*
X2843Y1628D01*
X2882Y1628D02*
X2906Y1628D01*
X2919Y1628D02*
X2943Y1628D01*
X2982Y1628D02*
X3006Y1628D01*
X3019Y1628D02*
X3043Y1628D01*
X2682Y1627D02*
X2708Y1627D01*
X2717Y1627D02*
X2743Y1627D01*
X2782Y1627D02*
X2808Y1627D01*
X2817Y1627D02*
X2843Y1627D01*
X2882Y1627D02*
X2908Y1627D01*
X2917Y1627D02*
X2943Y1627D01*
X2982Y1627D02*
X3008Y1627D01*
X3017Y1627D02*
X3043Y1627D01*
X2682Y1626D02*
X2743Y1626D01*
X2782Y1626D02*
X2843Y1626D01*
X2882Y1626D02*
X2943Y1626D01*
X2982Y1626D02*
X3043Y1626D01*
X2682Y1625D02*
X2743Y1625D01*
X2782Y1625D02*
X2843Y1625D01*
X2882Y1625D02*
X2943Y1625D01*
X2982Y1625D02*
X3043Y1625D01*
X2682Y1624D02*
X2743Y1624D01*
X2782Y1624D02*
X2843Y1624D01*
X2882Y1624D02*
X2943Y1624D01*
X2982Y1624D02*
X3043Y1624D01*
X2682Y1623D02*
X2743Y1623D01*
X2782Y1623D02*
X2843Y1623D01*
X2882Y1623D02*
X2943Y1623D01*
X2982Y1623D02*
X3043Y1623D01*
X2682Y1622D02*
X2743Y1622D01*
X2782Y1622D02*
X2843Y1622D01*
X2882Y1622D02*
X2943Y1622D01*
X2982Y1622D02*
X3043Y1622D01*
X2682Y1621D02*
X2743Y1621D01*
X2782Y1621D02*
X2843Y1621D01*
X2882Y1621D02*
X2943Y1621D01*
X2982Y1621D02*
X3043Y1621D01*
X2682Y1620D02*
X2743Y1620D01*
X2782Y1620D02*
X2843Y1620D01*
X2882Y1620D02*
X2943Y1620D01*
X2982Y1620D02*
X3043Y1620D01*
X2682Y1619D02*
X2743Y1619D01*
X2782Y1619D02*
X2843Y1619D01*
X2882Y1619D02*
X2943Y1619D01*
X2982Y1619D02*
X3043Y1619D01*
X2682Y1618D02*
X2743Y1618D01*
X2782Y1618D02*
X2843Y1618D01*
X2882Y1618D02*
X2943Y1618D01*
X2982Y1618D02*
X3043Y1618D01*
X2682Y1617D02*
X2743Y1617D01*
X2782Y1617D02*
X2843Y1617D01*
X2882Y1617D02*
X2943Y1617D01*
X2982Y1617D02*
X3043Y1617D01*
X2682Y1616D02*
X2743Y1616D01*
X2782Y1616D02*
X2843Y1616D01*
X2882Y1616D02*
X2943Y1616D01*
X2982Y1616D02*
X3043Y1616D01*
X2682Y1615D02*
X2743Y1615D01*
X2782Y1615D02*
X2843Y1615D01*
X2882Y1615D02*
X2943Y1615D01*
X2982Y1615D02*
X3043Y1615D01*
X2682Y1614D02*
X2743Y1614D01*
X2782Y1614D02*
X2843Y1614D01*
X2882Y1614D02*
X2943Y1614D01*
X2982Y1614D02*
X3043Y1614D01*
X2682Y1613D02*
X2743Y1613D01*
X2782Y1613D02*
X2843Y1613D01*
X2882Y1613D02*
X2943Y1613D01*
X2982Y1613D02*
X3043Y1613D01*
X2682Y1612D02*
X2743Y1612D01*
X2782Y1612D02*
X2843Y1612D01*
X2882Y1612D02*
X2943Y1612D01*
X2982Y1612D02*
X3043Y1612D01*
X2682Y1611D02*
X2743Y1611D01*
X2782Y1611D02*
X2843Y1611D01*
X2882Y1611D02*
X2943Y1611D01*
X2982Y1611D02*
X3043Y1611D01*
X2682Y1610D02*
X2743Y1610D01*
X2782Y1610D02*
X2843Y1610D01*
X2882Y1610D02*
X2943Y1610D01*
X2982Y1610D02*
X3043Y1610D01*
X2682Y1609D02*
X2743Y1609D01*
X2782Y1609D02*
X2843Y1609D01*
X2882Y1609D02*
X2943Y1609D01*
X2982Y1609D02*
X3043Y1609D01*
X2682Y1608D02*
X2743Y1608D01*
X2782Y1608D02*
X2843Y1608D01*
X2882Y1608D02*
X2943Y1608D01*
X2982Y1608D02*
X3043Y1608D01*
X2683Y1607D02*
X2743Y1607D01*
X2783Y1607D02*
X2843Y1607D01*
X2883Y1607D02*
X2943Y1607D01*
X2983Y1607D02*
X3043Y1607D01*
X2683Y1606D02*
X2743Y1606D01*
X2783Y1606D02*
X2843Y1606D01*
X2883Y1606D02*
X2943Y1606D01*
X2983Y1606D02*
X3043Y1606D01*
X2683Y1605D02*
X2743Y1605D01*
X2783Y1605D02*
X2843Y1605D01*
X2883Y1605D02*
X2943Y1605D01*
X2983Y1605D02*
X3043Y1605D01*
X2683Y1604D02*
X2742Y1604D01*
X2783Y1604D02*
X2842Y1604D01*
X2883Y1604D02*
X2942Y1604D01*
X2983Y1604D02*
X3042Y1604D01*
X2684Y1603D02*
X2742Y1603D01*
X2783Y1603D02*
X2842Y1603D01*
X2883Y1603D02*
X2942Y1603D01*
X2983Y1603D02*
X3042Y1603D01*
X2684Y1602D02*
X2742Y1602D01*
X2784Y1602D02*
X2842Y1602D01*
X2884Y1602D02*
X2942Y1602D01*
X2984Y1602D02*
X3042Y1602D01*
X2684Y1601D02*
X2741Y1601D01*
X2784Y1601D02*
X2841Y1601D01*
X2884Y1601D02*
X2941Y1601D01*
X2984Y1601D02*
X3041Y1601D01*
X2685Y1600D02*
X2741Y1600D01*
X2785Y1600D02*
X2841Y1600D01*
X2885Y1600D02*
X2941Y1600D01*
X2984Y1600D02*
X3041Y1600D01*
X2685Y1599D02*
X2741Y1599D01*
X2785Y1599D02*
X2841Y1599D01*
X2885Y1599D02*
X2941Y1599D01*
X2985Y1599D02*
X3041Y1599D01*
X2685Y1598D02*
X2740Y1598D01*
X2785Y1598D02*
X2840Y1598D01*
X2885Y1598D02*
X2940Y1598D01*
X2985Y1598D02*
X3040Y1598D01*
X2686Y1597D02*
X2740Y1597D01*
X2786Y1597D02*
X2840Y1597D01*
X2886Y1597D02*
X2940Y1597D01*
X2986Y1597D02*
X3040Y1597D01*
X2686Y1596D02*
X2739Y1596D01*
X2786Y1596D02*
X2839Y1596D01*
X2886Y1596D02*
X2939Y1596D01*
X2986Y1596D02*
X3039Y1596D01*
X2687Y1595D02*
X2739Y1595D01*
X2787Y1595D02*
X2838Y1595D01*
X2887Y1595D02*
X2938Y1595D01*
X2987Y1595D02*
X3038Y1595D01*
X2688Y1594D02*
X2738Y1594D01*
X2788Y1594D02*
X2838Y1594D01*
X2888Y1594D02*
X2938Y1594D01*
X2988Y1594D02*
X3038Y1594D01*
X2688Y1593D02*
X2737Y1593D01*
X2788Y1593D02*
X2837Y1593D01*
X2888Y1593D02*
X2937Y1593D01*
X2988Y1593D02*
X3037Y1593D01*
X2689Y1592D02*
X2736Y1592D01*
X2789Y1592D02*
X2836Y1592D01*
X2889Y1592D02*
X2936Y1592D01*
X2989Y1592D02*
X3036Y1592D01*
X2690Y1591D02*
X2736Y1591D01*
X2790Y1591D02*
X2836Y1591D01*
X2890Y1591D02*
X2936Y1591D01*
X2990Y1591D02*
X3036Y1591D01*
X2691Y1590D02*
X2735Y1590D01*
X2791Y1590D02*
X2835Y1590D01*
X2891Y1590D02*
X2935Y1590D01*
X2991Y1590D02*
X3035Y1590D01*
X2692Y1589D02*
X2734Y1589D01*
X2792Y1589D02*
X2834Y1589D01*
X2892Y1589D02*
X2934Y1589D01*
X2992Y1589D02*
X3034Y1589D01*
X2693Y1588D02*
X2733Y1588D01*
X2793Y1588D02*
X2833Y1588D01*
X2893Y1588D02*
X2933Y1588D01*
X2993Y1588D02*
X3033Y1588D01*
X2694Y1587D02*
X2731Y1587D01*
X2794Y1587D02*
X2831Y1587D01*
X2894Y1587D02*
X2931Y1587D01*
X2994Y1587D02*
X3031Y1587D01*
X2695Y1586D02*
X2730Y1586D01*
X2795Y1586D02*
X2830Y1586D01*
X2895Y1586D02*
X2930Y1586D01*
X2995Y1586D02*
X3030Y1586D01*
X2697Y1585D02*
X2728Y1585D01*
X2797Y1585D02*
X2828Y1585D01*
X2897Y1585D02*
X2928Y1585D01*
X2997Y1585D02*
X3028Y1585D01*
X2699Y1584D02*
X2727Y1584D01*
X2799Y1584D02*
X2827Y1584D01*
X2899Y1584D02*
X2927Y1584D01*
X2999Y1584D02*
X3027Y1584D01*
X2701Y1583D02*
X2725Y1583D01*
X2801Y1583D02*
X2825Y1583D01*
X2901Y1583D02*
X2925Y1583D01*
X3001Y1583D02*
X3025Y1583D01*
X2704Y1582D02*
X2722Y1582D01*
X2804Y1582D02*
X2822Y1582D01*
X2903Y1582D02*
X2922Y1582D01*
X3003Y1582D02*
X3022Y1582D01*
X2707Y1581D02*
X2718Y1581D01*
X2807Y1581D02*
X2818Y1581D01*
X2907Y1581D02*
X2918Y1581D01*
X3007Y1581D02*
X3018Y1581D01*
X2709Y1394D02*
X2716Y1394D01*
X2809Y1394D02*
X2816Y1394D01*
X2909Y1394D02*
X2916Y1394D01*
X3009Y1394D02*
X3016Y1394D01*
X2705Y1393D02*
X2721Y1393D01*
X2805Y1393D02*
X2821Y1393D01*
X2905Y1393D02*
X2921Y1393D01*
X3005Y1393D02*
X3021Y1393D01*
X2702Y1392D02*
X2724Y1392D01*
X2802Y1392D02*
X2824Y1392D01*
X2902Y1392D02*
X2924Y1392D01*
X3002Y1392D02*
X3024Y1392D01*
X2700Y1391D02*
X2726Y1391D01*
X2800Y1391D02*
X2826Y1391D01*
X2899Y1391D02*
X2926Y1391D01*
X2999Y1391D02*
X3026Y1391D01*
X2698Y1390D02*
X2728Y1390D01*
X2798Y1390D02*
X2828Y1390D01*
X2898Y1390D02*
X2928Y1390D01*
X2998Y1390D02*
X3028Y1390D01*
X2696Y1389D02*
X2730Y1389D01*
X2796Y1389D02*
X2830Y1389D01*
X2896Y1389D02*
X2930Y1389D01*
X2996Y1389D02*
X3030Y1389D01*
X2695Y1388D02*
X2731Y1388D01*
X2795Y1388D02*
X2831Y1388D01*
X2895Y1388D02*
X2931Y1388D01*
X2995Y1388D02*
X3031Y1388D01*
X2693Y1387D02*
X2732Y1387D01*
X2793Y1387D02*
X2832Y1387D01*
X2893Y1387D02*
X2932Y1387D01*
X2993Y1387D02*
X3032Y1387D01*
X2692Y1386D02*
X2733Y1386D01*
X2792Y1386D02*
X2833Y1386D01*
X2892Y1386D02*
X2933Y1386D01*
X2992Y1386D02*
X3033Y1386D01*
X2691Y1385D02*
X2734Y1385D01*
X2791Y1385D02*
X2834Y1385D01*
X2891Y1385D02*
X2934Y1385D01*
X2991Y1385D02*
X3034Y1385D01*
X2690Y1384D02*
X2735Y1384D01*
X2790Y1384D02*
X2835Y1384D01*
X2890Y1384D02*
X2935Y1384D01*
X2990Y1384D02*
X3035Y1384D01*
X2689Y1383D02*
X2736Y1383D01*
X2789Y1383D02*
X2836Y1383D01*
X2889Y1383D02*
X2936Y1383D01*
X2989Y1383D02*
X3036Y1383D01*
X2689Y1382D02*
X2737Y1382D01*
X2789Y1382D02*
X2837Y1382D01*
X2889Y1382D02*
X2937Y1382D01*
X2989Y1382D02*
X3037Y1382D01*
X2688Y1381D02*
X2738Y1381D01*
X2788Y1381D02*
X2838Y1381D01*
X2888Y1381D02*
X2938Y1381D01*
X2988Y1381D02*
X3038Y1381D01*
X2687Y1380D02*
X2738Y1380D01*
X2787Y1380D02*
X2838Y1380D01*
X2887Y1380D02*
X2938Y1380D01*
X2987Y1380D02*
X3038Y1380D01*
X2687Y1379D02*
X2739Y1379D01*
X2787Y1379D02*
X2839Y1379D01*
X2887Y1379D02*
X2939Y1379D01*
X2987Y1379D02*
X3039Y1379D01*
X2686Y1378D02*
X2739Y1378D01*
X2786Y1378D02*
X2839Y1378D01*
X2886Y1378D02*
X2939Y1378D01*
X2986Y1378D02*
X3039Y1378D01*
X2686Y1377D02*
X2740Y1377D01*
X2786Y1377D02*
X2840Y1377D01*
X2886Y1377D02*
X2940Y1377D01*
X2986Y1377D02*
X3040Y1377D01*
X2685Y1376D02*
X2740Y1376D01*
X2785Y1376D02*
X2840Y1376D01*
X2885Y1376D02*
X2940Y1376D01*
X2985Y1376D02*
X3040Y1376D01*
X2685Y1375D02*
X2741Y1375D01*
X2785Y1375D02*
X2841Y1375D01*
X2885Y1375D02*
X2941Y1375D01*
X2985Y1375D02*
X3041Y1375D01*
X2684Y1374D02*
X2741Y1374D01*
X2784Y1374D02*
X2841Y1374D01*
X2884Y1374D02*
X2941Y1374D01*
X2984Y1374D02*
X3041Y1374D01*
X2684Y1373D02*
X2742Y1373D01*
X2784Y1373D02*
X2842Y1373D01*
X2884Y1373D02*
X2942Y1373D01*
X2984Y1373D02*
X3042Y1373D01*
X2684Y1372D02*
X2742Y1372D01*
X2784Y1372D02*
X2842Y1372D01*
X2884Y1372D02*
X2942Y1372D01*
X2984Y1372D02*
X3042Y1372D01*
X2683Y1371D02*
X2742Y1371D01*
X2783Y1371D02*
X2842Y1371D01*
X2883Y1371D02*
X2942Y1371D01*
X2983Y1371D02*
X3042Y1371D01*
X2683Y1370D02*
X2742Y1370D01*
X2783Y1370D02*
X2842Y1370D01*
X2883Y1370D02*
X2942Y1370D01*
X2983Y1370D02*
X3042Y1370D01*
X2683Y1369D02*
X2743Y1369D01*
X2783Y1369D02*
X2843Y1369D01*
X2883Y1369D02*
X2943Y1369D01*
X2983Y1369D02*
X3043Y1369D01*
X2683Y1368D02*
X2743Y1368D01*
X2783Y1368D02*
X2843Y1368D01*
X2883Y1368D02*
X2943Y1368D01*
X2983Y1368D02*
X3043Y1368D01*
X2683Y1367D02*
X2743Y1367D01*
X2783Y1367D02*
X2843Y1367D01*
X2882Y1367D02*
X2943Y1367D01*
X2982Y1367D02*
X3043Y1367D01*
X2682Y1366D02*
X2743Y1366D01*
X2782Y1366D02*
X2843Y1366D01*
X2882Y1366D02*
X2943Y1366D01*
X2982Y1366D02*
X3043Y1366D01*
X2682Y1365D02*
X2743Y1365D01*
X2782Y1365D02*
X2843Y1365D01*
X2882Y1365D02*
X2943Y1365D01*
X2982Y1365D02*
X3043Y1365D01*
X2682Y1364D02*
X2743Y1364D01*
X2782Y1364D02*
X2843Y1364D01*
X2882Y1364D02*
X2943Y1364D01*
X2982Y1364D02*
X3043Y1364D01*
X2682Y1363D02*
X2743Y1363D01*
X2782Y1363D02*
X2843Y1363D01*
X2882Y1363D02*
X2943Y1363D01*
X2982Y1363D02*
X3043Y1363D01*
X2682Y1362D02*
X2743Y1362D01*
X2782Y1362D02*
X2843Y1362D01*
X2882Y1362D02*
X2943Y1362D01*
X2982Y1362D02*
X3043Y1362D01*
X2682Y1361D02*
X2743Y1361D01*
X2782Y1361D02*
X2843Y1361D01*
X2882Y1361D02*
X2943Y1361D01*
X2982Y1361D02*
X3043Y1361D01*
X2682Y1360D02*
X2743Y1360D01*
X2782Y1360D02*
X2843Y1360D01*
X2882Y1360D02*
X2943Y1360D01*
X2982Y1360D02*
X3043Y1360D01*
X2682Y1359D02*
X2743Y1359D01*
X2782Y1359D02*
X2843Y1359D01*
X2882Y1359D02*
X2943Y1359D01*
X2982Y1359D02*
X3043Y1359D01*
X2682Y1358D02*
X2743Y1358D01*
X2782Y1358D02*
X2843Y1358D01*
X2882Y1358D02*
X2943Y1358D01*
X2982Y1358D02*
X3043Y1358D01*
X2682Y1357D02*
X2743Y1357D01*
X2782Y1357D02*
X2843Y1357D01*
X2882Y1357D02*
X2943Y1357D01*
X2982Y1357D02*
X3043Y1357D01*
X2682Y1356D02*
X2743Y1356D01*
X2782Y1356D02*
X2843Y1356D01*
X2882Y1356D02*
X2943Y1356D01*
X2982Y1356D02*
X3043Y1356D01*
X2682Y1355D02*
X2743Y1355D01*
X2782Y1355D02*
X2843Y1355D01*
X2882Y1355D02*
X2943Y1355D01*
X2982Y1355D02*
X3043Y1355D01*
X2682Y1354D02*
X2743Y1354D01*
X2782Y1354D02*
X2843Y1354D01*
X2882Y1354D02*
X2943Y1354D01*
X2982Y1354D02*
X3043Y1354D01*
X2682Y1353D02*
X2743Y1353D01*
X2782Y1353D02*
X2843Y1353D01*
X2882Y1353D02*
X2943Y1353D01*
X2982Y1353D02*
X3043Y1353D01*
X2682Y1352D02*
X2743Y1352D01*
X2782Y1352D02*
X2843Y1352D01*
X2882Y1352D02*
X2943Y1352D01*
X2982Y1352D02*
X3043Y1352D01*
X2682Y1351D02*
X2743Y1351D01*
X2782Y1351D02*
X2843Y1351D01*
X2882Y1351D02*
X2943Y1351D01*
X2982Y1351D02*
X3043Y1351D01*
X2682Y1350D02*
X2743Y1350D01*
X2782Y1350D02*
X2843Y1350D01*
X2882Y1350D02*
X2943Y1350D01*
X2982Y1350D02*
X3043Y1350D01*
X2682Y1349D02*
X2743Y1349D01*
X2782Y1349D02*
X2843Y1349D01*
X2882Y1349D02*
X2943Y1349D01*
X2982Y1349D02*
X3043Y1349D01*
X2682Y1348D02*
X2709Y1348D01*
X2716Y1348D02*
X2743Y1348D01*
X2782Y1348D02*
X2809Y1348D01*
X2816Y1348D02*
X2843Y1348D01*
X2882Y1348D02*
X2909Y1348D01*
X2916Y1348D02*
X2943Y1348D01*
X2982Y1348D02*
X3009Y1348D01*
X3016Y1348D02*
X3043Y1348D01*
X2682Y1347D02*
X2707Y1347D01*
X2719Y1347D02*
X2743Y1347D01*
X2782Y1347D02*
X2807Y1347D01*
X2819Y1347D02*
X2843Y1347D01*
X2882Y1347D02*
X2907Y1347D01*
X2919Y1347D02*
X2943Y1347D01*
X2982Y1347D02*
X3007Y1347D01*
X3019Y1347D02*
X3043Y1347D01*
X2682Y1346D02*
X2705Y1346D01*
X2720Y1346D02*
X2743Y1346D01*
X2782Y1346D02*
X2805Y1346D01*
X2820Y1346D02*
X2843Y1346D01*
X2882Y1346D02*
X2905Y1346D01*
X2920Y1346D02*
X2943Y1346D01*
X2982Y1346D02*
X3005Y1346D01*
X3020Y1346D02*
X3043Y1346D01*
X2682Y1345D02*
X2704Y1345D01*
X2721Y1345D02*
X2743Y1345D01*
X2782Y1345D02*
X2804Y1345D01*
X2821Y1345D02*
X2843Y1345D01*
X2882Y1345D02*
X2904Y1345D01*
X2921Y1345D02*
X2943Y1345D01*
X2982Y1345D02*
X3004Y1345D01*
X3021Y1345D02*
X3043Y1345D01*
X2682Y1344D02*
X2704Y1344D01*
X2722Y1344D02*
X2743Y1344D01*
X2782Y1344D02*
X2804Y1344D01*
X2822Y1344D02*
X2843Y1344D01*
X2882Y1344D02*
X2904Y1344D01*
X2922Y1344D02*
X2943Y1344D01*
X2982Y1344D02*
X3003Y1344D01*
X3022Y1344D02*
X3043Y1344D01*
X2682Y1343D02*
X2703Y1343D01*
X2723Y1343D02*
X2743Y1343D01*
X2782Y1343D02*
X2803Y1343D01*
X2823Y1343D02*
X2843Y1343D01*
X2882Y1343D02*
X2903Y1343D01*
X2923Y1343D02*
X2943Y1343D01*
X2982Y1343D02*
X3003Y1343D01*
X3023Y1343D02*
X3043Y1343D01*
X2682Y1342D02*
X2702Y1342D01*
X2723Y1342D02*
X2743Y1342D01*
X2782Y1342D02*
X2802Y1342D01*
X2823Y1342D02*
X2843Y1342D01*
X2882Y1342D02*
X2902Y1342D01*
X2923Y1342D02*
X2943Y1342D01*
X2982Y1342D02*
X3002Y1342D01*
X3023Y1342D02*
X3043Y1342D01*
X2682Y1341D02*
X2702Y1341D01*
X2724Y1341D02*
X2743Y1341D01*
X2782Y1341D02*
X2802Y1341D01*
X2824Y1341D02*
X2843Y1341D01*
X2882Y1341D02*
X2902Y1341D01*
X2924Y1341D02*
X2943Y1341D01*
X2982Y1341D02*
X3002Y1341D01*
X3024Y1341D02*
X3043Y1341D01*
X2682Y1340D02*
X2702Y1340D01*
X2724Y1340D02*
X2743Y1340D01*
X2782Y1340D02*
X2802Y1340D01*
X2824Y1340D02*
X2843Y1340D01*
X2882Y1340D02*
X2902Y1340D01*
X2924Y1340D02*
X2943Y1340D01*
X2982Y1340D02*
X3002Y1340D01*
X3024Y1340D02*
X3043Y1340D01*
X2682Y1339D02*
X2701Y1339D01*
X2724Y1339D02*
X2743Y1339D01*
X2782Y1339D02*
X2801Y1339D01*
X2824Y1339D02*
X2843Y1339D01*
X2882Y1339D02*
X2901Y1339D01*
X2924Y1339D02*
X2943Y1339D01*
X2982Y1339D02*
X3001Y1339D01*
X3024Y1339D02*
X3043Y1339D01*
X2682Y1338D02*
X2701Y1338D01*
X2724Y1338D02*
X2743Y1338D01*
X2782Y1338D02*
X2801Y1338D01*
X2824Y1338D02*
X2843Y1338D01*
X2882Y1338D02*
X2901Y1338D01*
X2924Y1338D02*
X2943Y1338D01*
X2982Y1338D02*
X3001Y1338D01*
X3024Y1338D02*
X3043Y1338D01*
X2682Y1337D02*
X2701Y1337D01*
X2724Y1337D02*
X2743Y1337D01*
X2782Y1337D02*
X2801Y1337D01*
X2824Y1337D02*
X2843Y1337D01*
X2882Y1337D02*
X2901Y1337D01*
X2924Y1337D02*
X2943Y1337D01*
X2982Y1337D02*
X3001Y1337D01*
X3024Y1337D02*
X3043Y1337D01*
X2682Y1336D02*
X2701Y1336D01*
X2724Y1336D02*
X2743Y1336D01*
X2782Y1336D02*
X2801Y1336D01*
X2824Y1336D02*
X2843Y1336D01*
X2882Y1336D02*
X2901Y1336D01*
X2924Y1336D02*
X2943Y1336D01*
X2982Y1336D02*
X3001Y1336D01*
X3024Y1336D02*
X3043Y1336D01*
X2682Y1335D02*
X2701Y1335D01*
X2724Y1335D02*
X2743Y1335D01*
X2782Y1335D02*
X2801Y1335D01*
X2824Y1335D02*
X2843Y1335D01*
X2882Y1335D02*
X2901Y1335D01*
X2924Y1335D02*
X2943Y1335D01*
X2982Y1335D02*
X3001Y1335D01*
X3024Y1335D02*
X3043Y1335D01*
X2682Y1334D02*
X2702Y1334D01*
X2724Y1334D02*
X2743Y1334D01*
X2782Y1334D02*
X2802Y1334D01*
X2824Y1334D02*
X2843Y1334D01*
X2882Y1334D02*
X2902Y1334D01*
X2924Y1334D02*
X2943Y1334D01*
X2982Y1334D02*
X3002Y1334D01*
X3024Y1334D02*
X3043Y1334D01*
X2682Y1333D02*
X2702Y1333D01*
X2723Y1333D02*
X2743Y1333D01*
X2782Y1333D02*
X2802Y1333D01*
X2823Y1333D02*
X2843Y1333D01*
X2882Y1333D02*
X2902Y1333D01*
X2923Y1333D02*
X2943Y1333D01*
X2982Y1333D02*
X3002Y1333D01*
X3023Y1333D02*
X3043Y1333D01*
X2682Y1332D02*
X2703Y1332D01*
X2723Y1332D02*
X2743Y1332D01*
X2782Y1332D02*
X2803Y1332D01*
X2823Y1332D02*
X2843Y1332D01*
X2882Y1332D02*
X2903Y1332D01*
X2923Y1332D02*
X2943Y1332D01*
X2982Y1332D02*
X3003Y1332D01*
X3023Y1332D02*
X3043Y1332D01*
X2682Y1331D02*
X2703Y1331D01*
X2722Y1331D02*
X2743Y1331D01*
X2782Y1331D02*
X2803Y1331D01*
X2822Y1331D02*
X2843Y1331D01*
X2882Y1331D02*
X2903Y1331D01*
X2922Y1331D02*
X2943Y1331D01*
X2982Y1331D02*
X3003Y1331D01*
X3022Y1331D02*
X3043Y1331D01*
X2682Y1330D02*
X2704Y1330D01*
X2721Y1330D02*
X2743Y1330D01*
X2782Y1330D02*
X2804Y1330D01*
X2821Y1330D02*
X2843Y1330D01*
X2882Y1330D02*
X2904Y1330D01*
X2921Y1330D02*
X2943Y1330D01*
X2982Y1330D02*
X3004Y1330D01*
X3021Y1330D02*
X3043Y1330D01*
X2682Y1329D02*
X2705Y1329D01*
X2720Y1329D02*
X2743Y1329D01*
X2782Y1329D02*
X2805Y1329D01*
X2820Y1329D02*
X2843Y1329D01*
X2882Y1329D02*
X2905Y1329D01*
X2920Y1329D02*
X2943Y1329D01*
X2982Y1329D02*
X3005Y1329D01*
X3020Y1329D02*
X3043Y1329D01*
X2682Y1328D02*
X2706Y1328D01*
X2719Y1328D02*
X2743Y1328D01*
X2782Y1328D02*
X2806Y1328D01*
X2819Y1328D02*
X2843Y1328D01*
X2882Y1328D02*
X2906Y1328D01*
X2919Y1328D02*
X2943Y1328D01*
X2982Y1328D02*
X3006Y1328D01*
X3019Y1328D02*
X3043Y1328D01*
X2682Y1327D02*
X2708Y1327D01*
X2717Y1327D02*
X2743Y1327D01*
X2782Y1327D02*
X2808Y1327D01*
X2817Y1327D02*
X2843Y1327D01*
X2882Y1327D02*
X2908Y1327D01*
X2917Y1327D02*
X2943Y1327D01*
X2982Y1327D02*
X3008Y1327D01*
X3017Y1327D02*
X3043Y1327D01*
X2682Y1326D02*
X2743Y1326D01*
X2782Y1326D02*
X2843Y1326D01*
X2882Y1326D02*
X2943Y1326D01*
X2982Y1326D02*
X3043Y1326D01*
X2682Y1325D02*
X2743Y1325D01*
X2782Y1325D02*
X2843Y1325D01*
X2882Y1325D02*
X2943Y1325D01*
X2982Y1325D02*
X3043Y1325D01*
X2682Y1324D02*
X2743Y1324D01*
X2782Y1324D02*
X2843Y1324D01*
X2882Y1324D02*
X2943Y1324D01*
X2982Y1324D02*
X3043Y1324D01*
X2682Y1323D02*
X2743Y1323D01*
X2782Y1323D02*
X2843Y1323D01*
X2882Y1323D02*
X2943Y1323D01*
X2982Y1323D02*
X3043Y1323D01*
X2682Y1322D02*
X2743Y1322D01*
X2782Y1322D02*
X2843Y1322D01*
X2882Y1322D02*
X2943Y1322D01*
X2982Y1322D02*
X3043Y1322D01*
X2682Y1321D02*
X2743Y1321D01*
X2782Y1321D02*
X2843Y1321D01*
X2882Y1321D02*
X2943Y1321D01*
X2982Y1321D02*
X3043Y1321D01*
X2682Y1320D02*
X2743Y1320D01*
X2782Y1320D02*
X2843Y1320D01*
X2882Y1320D02*
X2943Y1320D01*
X2982Y1320D02*
X3043Y1320D01*
X2682Y1319D02*
X2743Y1319D01*
X2782Y1319D02*
X2843Y1319D01*
X2882Y1319D02*
X2943Y1319D01*
X2982Y1319D02*
X3043Y1319D01*
X2682Y1318D02*
X2743Y1318D01*
X2782Y1318D02*
X2843Y1318D01*
X2882Y1318D02*
X2943Y1318D01*
X2982Y1318D02*
X3043Y1318D01*
X2682Y1317D02*
X2743Y1317D01*
X2782Y1317D02*
X2843Y1317D01*
X2882Y1317D02*
X2943Y1317D01*
X2982Y1317D02*
X3043Y1317D01*
X2682Y1316D02*
X2743Y1316D01*
X2782Y1316D02*
X2843Y1316D01*
X2882Y1316D02*
X2943Y1316D01*
X2982Y1316D02*
X3043Y1316D01*
X2682Y1315D02*
X2743Y1315D01*
X2782Y1315D02*
X2843Y1315D01*
X2882Y1315D02*
X2943Y1315D01*
X2982Y1315D02*
X3043Y1315D01*
X2682Y1314D02*
X2743Y1314D01*
X2782Y1314D02*
X2843Y1314D01*
X2882Y1314D02*
X2943Y1314D01*
X2982Y1314D02*
X3043Y1314D01*
X2682Y1313D02*
X2743Y1313D01*
X2782Y1313D02*
X2843Y1313D01*
X2882Y1313D02*
X2943Y1313D01*
X2982Y1313D02*
X3043Y1313D01*
X2682Y1312D02*
X2743Y1312D01*
X2782Y1312D02*
X2843Y1312D01*
X2882Y1312D02*
X2943Y1312D01*
X2982Y1312D02*
X3043Y1312D01*
X2682Y1311D02*
X2743Y1311D01*
X2782Y1311D02*
X2843Y1311D01*
X2882Y1311D02*
X2943Y1311D01*
X2982Y1311D02*
X3043Y1311D01*
X2682Y1310D02*
X2743Y1310D01*
X2782Y1310D02*
X2843Y1310D01*
X2882Y1310D02*
X2943Y1310D01*
X2982Y1310D02*
X3043Y1310D01*
X2682Y1309D02*
X2743Y1309D01*
X2782Y1309D02*
X2843Y1309D01*
X2882Y1309D02*
X2943Y1309D01*
X2982Y1309D02*
X3043Y1309D01*
X2682Y1308D02*
X2743Y1308D01*
X2782Y1308D02*
X2843Y1308D01*
X2882Y1308D02*
X2943Y1308D01*
X2982Y1308D02*
X3043Y1308D01*
X2683Y1307D02*
X2743Y1307D01*
X2783Y1307D02*
X2843Y1307D01*
X2883Y1307D02*
X2943Y1307D01*
X2983Y1307D02*
X3043Y1307D01*
X2683Y1306D02*
X2743Y1306D01*
X2783Y1306D02*
X2843Y1306D01*
X2883Y1306D02*
X2943Y1306D01*
X2983Y1306D02*
X3043Y1306D01*
X2683Y1305D02*
X2743Y1305D01*
X2783Y1305D02*
X2843Y1305D01*
X2883Y1305D02*
X2943Y1305D01*
X2983Y1305D02*
X3043Y1305D01*
X2683Y1304D02*
X2742Y1304D01*
X2783Y1304D02*
X2842Y1304D01*
X2883Y1304D02*
X2942Y1304D01*
X2983Y1304D02*
X3042Y1304D01*
X2684Y1303D02*
X2742Y1303D01*
X2784Y1303D02*
X2842Y1303D01*
X2883Y1303D02*
X2942Y1303D01*
X2983Y1303D02*
X3042Y1303D01*
X2684Y1302D02*
X2742Y1302D01*
X2784Y1302D02*
X2842Y1302D01*
X2884Y1302D02*
X2942Y1302D01*
X2984Y1302D02*
X3042Y1302D01*
X2684Y1301D02*
X2741Y1301D01*
X2784Y1301D02*
X2841Y1301D01*
X2884Y1301D02*
X2941Y1301D01*
X2984Y1301D02*
X3041Y1301D01*
X2685Y1300D02*
X2741Y1300D01*
X2785Y1300D02*
X2841Y1300D01*
X2885Y1300D02*
X2941Y1300D01*
X2985Y1300D02*
X3041Y1300D01*
X2685Y1299D02*
X2741Y1299D01*
X2785Y1299D02*
X2841Y1299D01*
X2885Y1299D02*
X2941Y1299D01*
X2985Y1299D02*
X3041Y1299D01*
X2685Y1298D02*
X2740Y1298D01*
X2785Y1298D02*
X2840Y1298D01*
X2885Y1298D02*
X2940Y1298D01*
X2985Y1298D02*
X3040Y1298D01*
X2686Y1297D02*
X2740Y1297D01*
X2786Y1297D02*
X2840Y1297D01*
X2886Y1297D02*
X2940Y1297D01*
X2986Y1297D02*
X3040Y1297D01*
X2686Y1296D02*
X2739Y1296D01*
X2786Y1296D02*
X2839Y1296D01*
X2886Y1296D02*
X2939Y1296D01*
X2986Y1296D02*
X3039Y1296D01*
X2687Y1295D02*
X2738Y1295D01*
X2787Y1295D02*
X2838Y1295D01*
X2887Y1295D02*
X2938Y1295D01*
X2987Y1295D02*
X3038Y1295D01*
X2688Y1294D02*
X2738Y1294D01*
X2788Y1294D02*
X2838Y1294D01*
X2888Y1294D02*
X2938Y1294D01*
X2988Y1294D02*
X3038Y1294D01*
X2688Y1293D02*
X2737Y1293D01*
X2788Y1293D02*
X2837Y1293D01*
X2888Y1293D02*
X2937Y1293D01*
X2988Y1293D02*
X3037Y1293D01*
X2689Y1292D02*
X2736Y1292D01*
X2789Y1292D02*
X2836Y1292D01*
X2889Y1292D02*
X2936Y1292D01*
X2989Y1292D02*
X3036Y1292D01*
X2690Y1291D02*
X2736Y1291D01*
X2790Y1291D02*
X2836Y1291D01*
X2890Y1291D02*
X2936Y1291D01*
X2990Y1291D02*
X3036Y1291D01*
X2691Y1290D02*
X2735Y1290D01*
X2791Y1290D02*
X2835Y1290D01*
X2891Y1290D02*
X2935Y1290D01*
X2991Y1290D02*
X3035Y1290D01*
X2692Y1289D02*
X2734Y1289D01*
X2792Y1289D02*
X2834Y1289D01*
X2892Y1289D02*
X2934Y1289D01*
X2992Y1289D02*
X3034Y1289D01*
X2693Y1288D02*
X2733Y1288D01*
X2793Y1288D02*
X2833Y1288D01*
X2893Y1288D02*
X2933Y1288D01*
X2993Y1288D02*
X3033Y1288D01*
X2694Y1287D02*
X2731Y1287D01*
X2794Y1287D02*
X2831Y1287D01*
X2894Y1287D02*
X2931Y1287D01*
X2994Y1287D02*
X3031Y1287D01*
X2696Y1286D02*
X2730Y1286D01*
X2796Y1286D02*
X2830Y1286D01*
X2896Y1286D02*
X2930Y1286D01*
X2995Y1286D02*
X3030Y1286D01*
X2697Y1285D02*
X2728Y1285D01*
X2797Y1285D02*
X2828Y1285D01*
X2897Y1285D02*
X2928Y1285D01*
X2997Y1285D02*
X3028Y1285D01*
X2699Y1284D02*
X2727Y1284D01*
X2799Y1284D02*
X2827Y1284D01*
X2899Y1284D02*
X2927Y1284D01*
X2999Y1284D02*
X3027Y1284D01*
X2701Y1283D02*
X2725Y1283D01*
X2801Y1283D02*
X2825Y1283D01*
X2901Y1283D02*
X2925Y1283D01*
X3001Y1283D02*
X3025Y1283D01*
X2704Y1282D02*
X2722Y1282D01*
X2804Y1282D02*
X2822Y1282D01*
X2904Y1282D02*
X2922Y1282D01*
X3004Y1282D02*
X3022Y1282D01*
X2707Y1281D02*
X2718Y1281D01*
X2807Y1281D02*
X2818Y1281D01*
X2907Y1281D02*
X2918Y1281D01*
X3007Y1281D02*
X3018Y1281D01*
X4065Y529D02*
X4160Y529D01*
X4061Y528D02*
X4164Y528D01*
X4058Y527D02*
X4167Y527D01*
X4056Y526D02*
X4169Y526D01*
X4054Y525D02*
X4171Y525D01*
X4052Y524D02*
X4173Y524D01*
X4050Y523D02*
X4175Y523D01*
X4049Y522D02*
X4177Y522D01*
X4047Y521D02*
X4178Y521D01*
X4046Y520D02*
X4179Y520D01*
X4045Y519D02*
X4180Y519D01*
X4044Y518D02*
X4182Y518D01*
X4043Y517D02*
X4183Y517D01*
X4042Y516D02*
X4184Y516D01*
X4041Y515D02*
X4185Y515D01*
X4040Y514D02*
X4185Y514D01*
X4039Y513D02*
X4186Y513D01*
X4038Y512D02*
X4187Y512D01*
X4038Y511D02*
X4188Y511D01*
X4037Y510D02*
X4188Y510D01*
X4036Y509D02*
X4189Y509D01*
X4036Y508D02*
X4190Y508D01*
X4035Y507D02*
X4190Y507D01*
X4035Y506D02*
X4191Y506D01*
X4034Y505D02*
X4191Y505D01*
X4034Y504D02*
X4192Y504D01*
X4033Y503D02*
X4192Y503D01*
X4033Y502D02*
X4193Y502D01*
X4032Y501D02*
X4193Y501D01*
X4032Y500D02*
X4110Y500D01*
X4115Y500D02*
X4193Y500D01*
X4032Y499D02*
X4106Y499D01*
X4119Y499D02*
X4194Y499D01*
X4031Y498D02*
X4104Y498D01*
X4121Y498D02*
X4194Y498D01*
X4031Y497D02*
X4103Y497D01*
X4122Y497D02*
X4194Y497D01*
X4031Y496D02*
X4102Y496D01*
X4123Y496D02*
X4194Y496D01*
X4030Y495D02*
X4101Y495D01*
X4124Y495D02*
X4195Y495D01*
X4030Y494D02*
X4100Y494D01*
X4125Y494D02*
X4195Y494D01*
X4030Y493D02*
X4099Y493D01*
X4126Y493D02*
X4195Y493D01*
X4030Y492D02*
X4099Y492D01*
X4126Y492D02*
X4195Y492D01*
X4030Y491D02*
X4098Y491D01*
X4127Y491D02*
X4195Y491D01*
X4030Y490D02*
X4098Y490D01*
X4127Y490D02*
X4196Y490D01*
X4030Y489D02*
X4098Y489D01*
X4127Y489D02*
X4196Y489D01*
X4029Y488D02*
X4098Y488D01*
X4128Y488D02*
X4196Y488D01*
X4029Y487D02*
X4098Y487D01*
X4128Y487D02*
X4196Y487D01*
X4029Y486D02*
X4097Y486D01*
X4128Y486D02*
X4196Y486D01*
X4029Y485D02*
X4097Y485D01*
X4128Y485D02*
X4196Y485D01*
X4029Y484D02*
X4098Y484D01*
X4128Y484D02*
X4196Y484D01*
X4029Y483D02*
X4098Y483D01*
X4128Y483D02*
X4196Y483D01*
X4030Y482D02*
X4098Y482D01*
X4127Y482D02*
X4196Y482D01*
X4030Y481D02*
X4098Y481D01*
X4127Y481D02*
X4196Y481D01*
X4030Y480D02*
X4098Y480D01*
X4127Y480D02*
X4195Y480D01*
X4030Y479D02*
X4099Y479D01*
X4126Y479D02*
X4195Y479D01*
X4030Y478D02*
X4099Y478D01*
X4126Y478D02*
X4195Y478D01*
X4030Y477D02*
X4100Y477D01*
X4125Y477D02*
X4195Y477D01*
X4030Y476D02*
X4101Y476D01*
X4124Y476D02*
X4195Y476D01*
X4031Y475D02*
X4102Y475D01*
X4123Y475D02*
X4194Y475D01*
X4031Y474D02*
X4103Y474D01*
X4122Y474D02*
X4194Y474D01*
X4031Y473D02*
X4104Y473D01*
X4121Y473D02*
X4194Y473D01*
X4032Y472D02*
X4106Y472D01*
X4119Y472D02*
X4194Y472D01*
X4032Y471D02*
X4110Y471D01*
X4115Y471D02*
X4193Y471D01*
X4032Y470D02*
X4193Y470D01*
X4033Y469D02*
X4193Y469D01*
X4033Y468D02*
X4192Y468D01*
X4034Y467D02*
X4192Y467D01*
X4034Y466D02*
X4191Y466D01*
X4034Y465D02*
X4191Y465D01*
X4035Y464D02*
X4190Y464D01*
X4036Y463D02*
X4190Y463D01*
X4036Y462D02*
X4189Y462D01*
X4037Y461D02*
X4188Y461D01*
X4037Y460D02*
X4188Y460D01*
X4038Y459D02*
X4187Y459D01*
X4039Y458D02*
X4186Y458D01*
X4040Y457D02*
X4185Y457D01*
X4041Y456D02*
X4185Y456D01*
X4042Y455D02*
X4184Y455D01*
X4042Y454D02*
X4183Y454D01*
X4044Y453D02*
X4182Y453D01*
X4045Y452D02*
X4180Y452D01*
X4046Y451D02*
X4179Y451D01*
X4308Y451D02*
X4311Y451D01*
X4047Y450D02*
X4178Y450D01*
X4300Y450D02*
X4318Y450D01*
X4049Y449D02*
X4177Y449D01*
X4297Y449D02*
X4322Y449D01*
X4050Y448D02*
X4175Y448D01*
X4294Y448D02*
X4325Y448D01*
X4052Y447D02*
X4173Y447D01*
X4292Y447D02*
X4327Y447D01*
X4054Y446D02*
X4171Y446D01*
X4289Y446D02*
X4329Y446D01*
X4056Y445D02*
X4169Y445D01*
X4288Y445D02*
X4331Y445D01*
X4058Y444D02*
X4167Y444D01*
X4286Y444D02*
X4333Y444D01*
X4061Y443D02*
X4164Y443D01*
X4284Y443D02*
X4334Y443D01*
X4065Y442D02*
X4160Y442D01*
X4283Y442D02*
X4336Y442D01*
X4282Y441D02*
X4337Y441D01*
X4281Y440D02*
X4338Y440D01*
X4280Y439D02*
X4339Y439D01*
X4278Y438D02*
X4340Y438D01*
X4278Y437D02*
X4341Y437D01*
X4277Y436D02*
X4342Y436D01*
X4276Y435D02*
X4343Y435D01*
X4275Y434D02*
X4344Y434D01*
X4274Y433D02*
X4345Y433D01*
X4274Y432D02*
X4345Y432D01*
X4273Y431D02*
X4346Y431D01*
X4272Y430D02*
X4347Y430D01*
X4272Y429D02*
X4347Y429D01*
X4271Y428D02*
X4348Y428D01*
X4271Y427D02*
X4348Y427D01*
X4270Y426D02*
X4349Y426D01*
X4270Y425D02*
X4349Y425D01*
X4269Y424D02*
X4350Y424D01*
X4269Y423D02*
X4350Y423D01*
X4268Y422D02*
X4350Y422D01*
X4268Y421D02*
X4351Y421D01*
X4268Y420D02*
X4351Y420D01*
X4267Y419D02*
X4351Y419D01*
X4267Y418D02*
X4352Y418D01*
X4267Y417D02*
X4352Y417D01*
X4267Y416D02*
X4352Y416D01*
X4266Y415D02*
X4352Y415D01*
X4266Y414D02*
X4353Y414D01*
X4266Y413D02*
X4353Y413D01*
X4266Y412D02*
X4353Y412D01*
X4266Y411D02*
X4353Y411D01*
X4266Y410D02*
X4353Y410D01*
X4266Y409D02*
X4353Y409D01*
X4266Y408D02*
X4353Y408D01*
X4266Y407D02*
X4353Y407D01*
X4266Y406D02*
X4353Y406D01*
X4266Y405D02*
X4353Y405D01*
X4266Y404D02*
X4353Y404D01*
X4266Y403D02*
X4353Y403D01*
X4266Y402D02*
X4353Y402D01*
X4266Y401D02*
X4353Y401D01*
X4266Y400D02*
X4353Y400D01*
X4266Y399D02*
X4353Y399D01*
X4266Y398D02*
X4353Y398D01*
X4266Y397D02*
X4353Y397D01*
X4266Y396D02*
X4353Y396D01*
X4266Y395D02*
X4353Y395D01*
X4266Y394D02*
X4353Y394D01*
X4266Y393D02*
X4353Y393D01*
X4266Y392D02*
X4353Y392D01*
X4266Y391D02*
X4353Y391D01*
X4266Y390D02*
X4353Y390D01*
X4266Y389D02*
X4353Y389D01*
X4266Y388D02*
X4353Y388D01*
X4266Y387D02*
X4353Y387D01*
X4266Y386D02*
X4353Y386D01*
X4266Y385D02*
X4353Y385D01*
X4266Y384D02*
X4353Y384D01*
X4266Y383D02*
X4353Y383D01*
X4266Y382D02*
X4308Y382D01*
X4311Y382D02*
X4353Y382D01*
X4266Y381D02*
X4303Y381D01*
X4316Y381D02*
X4353Y381D01*
X4266Y380D02*
X4301Y380D01*
X4317Y380D02*
X4353Y380D01*
X4266Y379D02*
X4300Y379D01*
X4319Y379D02*
X4353Y379D01*
X4266Y378D02*
X4299Y378D01*
X4320Y378D02*
X4353Y378D01*
X4266Y377D02*
X4298Y377D01*
X4321Y377D02*
X4353Y377D01*
X4266Y376D02*
X4297Y376D01*
X4322Y376D02*
X4353Y376D01*
X4266Y375D02*
X4296Y375D01*
X4322Y375D02*
X4353Y375D01*
X4266Y374D02*
X4296Y374D01*
X4323Y374D02*
X4353Y374D01*
X4266Y373D02*
X4295Y373D01*
X4324Y373D02*
X4353Y373D01*
X4266Y372D02*
X4295Y372D01*
X4324Y372D02*
X4353Y372D01*
X4266Y371D02*
X4295Y371D01*
X4324Y371D02*
X4353Y371D01*
X4266Y370D02*
X4294Y370D01*
X4324Y370D02*
X4353Y370D01*
X4266Y369D02*
X4294Y369D01*
X4324Y369D02*
X4353Y369D01*
X4266Y368D02*
X4294Y368D01*
X4325Y368D02*
X4353Y368D01*
X4266Y367D02*
X4294Y367D01*
X4325Y367D02*
X4353Y367D01*
X4266Y366D02*
X4294Y366D01*
X4324Y366D02*
X4353Y366D01*
X4266Y365D02*
X4294Y365D01*
X4324Y365D02*
X4353Y365D01*
X4266Y364D02*
X4295Y364D01*
X4324Y364D02*
X4353Y364D01*
X4266Y363D02*
X4295Y363D01*
X4324Y363D02*
X4353Y363D01*
X4266Y362D02*
X4295Y362D01*
X4324Y362D02*
X4353Y362D01*
X4266Y361D02*
X4296Y361D01*
X4323Y361D02*
X4353Y361D01*
X4266Y360D02*
X4296Y360D01*
X4323Y360D02*
X4353Y360D01*
X4266Y359D02*
X4297Y359D01*
X4322Y359D02*
X4353Y359D01*
X4266Y358D02*
X4298Y358D01*
X4321Y358D02*
X4353Y358D01*
X4266Y357D02*
X4299Y357D01*
X4320Y357D02*
X4353Y357D01*
X4266Y356D02*
X4300Y356D01*
X4319Y356D02*
X4353Y356D01*
X4266Y355D02*
X4301Y355D01*
X4318Y355D02*
X4353Y355D01*
X4266Y354D02*
X4303Y354D01*
X4316Y354D02*
X4353Y354D01*
X4266Y353D02*
X4306Y353D01*
X4313Y353D02*
X4353Y353D01*
X4266Y352D02*
X4353Y352D01*
X4266Y351D02*
X4353Y351D01*
X4266Y350D02*
X4353Y350D01*
X4266Y349D02*
X4353Y349D01*
X4266Y348D02*
X4353Y348D01*
X4266Y347D02*
X4353Y347D01*
X4266Y346D02*
X4353Y346D01*
X4266Y345D02*
X4353Y345D01*
X4266Y344D02*
X4353Y344D01*
X4266Y343D02*
X4353Y343D01*
X4266Y342D02*
X4353Y342D01*
X4266Y341D02*
X4353Y341D01*
X4266Y340D02*
X4353Y340D01*
X4266Y339D02*
X4353Y339D01*
X4266Y338D02*
X4353Y338D01*
X4266Y337D02*
X4353Y337D01*
X4266Y336D02*
X4353Y336D01*
X4266Y335D02*
X4353Y335D01*
X4266Y334D02*
X4353Y334D01*
X4266Y333D02*
X4353Y333D01*
X4266Y332D02*
X4353Y332D01*
X4266Y331D02*
X4353Y331D01*
X4266Y330D02*
X4353Y330D01*
X4266Y329D02*
X4353Y329D01*
X4266Y328D02*
X4353Y328D01*
X4266Y327D02*
X4353Y327D01*
X4266Y326D02*
X4353Y326D01*
X4266Y325D02*
X4353Y325D01*
X4266Y324D02*
X4353Y324D01*
X4266Y323D02*
X4353Y323D01*
X4266Y322D02*
X4353Y322D01*
X4266Y321D02*
X4353Y321D01*
X4266Y320D02*
X4352Y320D01*
X4267Y319D02*
X4352Y319D01*
X4267Y318D02*
X4352Y318D01*
X4267Y317D02*
X4352Y317D01*
X4267Y316D02*
X4352Y316D01*
X4268Y315D02*
X4351Y315D01*
X4268Y314D02*
X4351Y314D01*
X4268Y313D02*
X4351Y313D01*
X4269Y312D02*
X4350Y312D01*
X4269Y311D02*
X4350Y311D01*
X4270Y310D02*
X4349Y310D01*
X4270Y309D02*
X4349Y309D01*
X4270Y308D02*
X4348Y308D01*
X4271Y307D02*
X4348Y307D01*
X4272Y306D02*
X4347Y306D01*
X4272Y305D02*
X4347Y305D01*
X4273Y304D02*
X4346Y304D01*
X4273Y303D02*
X4345Y303D01*
X4274Y302D02*
X4345Y302D01*
X4275Y301D02*
X4344Y301D01*
X4276Y300D02*
X4343Y300D01*
X4276Y299D02*
X4342Y299D01*
X4277Y298D02*
X4342Y298D01*
X4278Y297D02*
X4341Y297D01*
X4279Y296D02*
X4340Y296D01*
X4280Y295D02*
X4338Y295D01*
X4281Y294D02*
X4337Y294D01*
X4283Y293D02*
X4336Y293D01*
X4284Y292D02*
X4335Y292D01*
X4286Y291D02*
X4333Y291D01*
X4287Y290D02*
X4332Y290D01*
X4289Y289D02*
X4330Y289D01*
X4291Y288D02*
X4328Y288D01*
X4293Y287D02*
X4326Y287D01*
X4296Y286D02*
X4323Y286D01*
X4300Y285D02*
X4319Y285D01*
X4305Y284D02*
X4314Y284D01*
X4065Y281D02*
X4160Y281D01*
X4061Y280D02*
X4164Y280D01*
X4058Y279D02*
X4167Y279D01*
X4056Y278D02*
X4169Y278D01*
X4054Y277D02*
X4171Y277D01*
X4052Y276D02*
X4173Y276D01*
X4050Y275D02*
X4175Y275D01*
X4049Y274D02*
X4177Y274D01*
X4047Y273D02*
X4178Y273D01*
X4046Y272D02*
X4179Y272D01*
X4045Y271D02*
X4180Y271D01*
X4044Y270D02*
X4182Y270D01*
X4043Y269D02*
X4183Y269D01*
X4042Y268D02*
X4184Y268D01*
X4041Y267D02*
X4185Y267D01*
X4040Y266D02*
X4185Y266D01*
X4039Y265D02*
X4186Y265D01*
X4038Y264D02*
X4187Y264D01*
X4038Y263D02*
X4188Y263D01*
X4037Y262D02*
X4188Y262D01*
X4036Y261D02*
X4189Y261D01*
X4036Y260D02*
X4190Y260D01*
X4035Y259D02*
X4190Y259D01*
X4035Y258D02*
X4191Y258D01*
X4034Y257D02*
X4191Y257D01*
X4034Y256D02*
X4192Y256D01*
X4033Y255D02*
X4192Y255D01*
X4033Y254D02*
X4193Y254D01*
X4032Y253D02*
X4193Y253D01*
X4032Y252D02*
X4110Y252D01*
X4115Y252D02*
X4193Y252D01*
X4032Y251D02*
X4106Y251D01*
X4119Y251D02*
X4194Y251D01*
X4031Y250D02*
X4104Y250D01*
X4121Y250D02*
X4194Y250D01*
X4031Y249D02*
X4103Y249D01*
X4122Y249D02*
X4194Y249D01*
X4031Y248D02*
X4102Y248D01*
X4123Y248D02*
X4194Y248D01*
X4030Y247D02*
X4101Y247D01*
X4124Y247D02*
X4195Y247D01*
X4030Y246D02*
X4100Y246D01*
X4125Y246D02*
X4195Y246D01*
X4030Y245D02*
X4099Y245D01*
X4126Y245D02*
X4195Y245D01*
X4030Y244D02*
X4099Y244D01*
X4126Y244D02*
X4195Y244D01*
X4030Y243D02*
X4098Y243D01*
X4127Y243D02*
X4195Y243D01*
X4030Y242D02*
X4098Y242D01*
X4127Y242D02*
X4196Y242D01*
X4030Y241D02*
X4098Y241D01*
X4127Y241D02*
X4196Y241D01*
X4029Y240D02*
X4098Y240D01*
X4128Y240D02*
X4196Y240D01*
X4029Y239D02*
X4098Y239D01*
X4128Y239D02*
X4196Y239D01*
X4029Y238D02*
X4097Y238D01*
X4128Y238D02*
X4196Y238D01*
X4029Y237D02*
X4097Y237D01*
X4128Y237D02*
X4196Y237D01*
X4029Y236D02*
X4098Y236D01*
X4128Y236D02*
X4196Y236D01*
X4029Y235D02*
X4098Y235D01*
X4128Y235D02*
X4196Y235D01*
X4030Y234D02*
X4098Y234D01*
X4127Y234D02*
X4196Y234D01*
X4030Y233D02*
X4098Y233D01*
X4127Y233D02*
X4196Y233D01*
X4030Y232D02*
X4098Y232D01*
X4127Y232D02*
X4195Y232D01*
X4030Y231D02*
X4099Y231D01*
X4126Y231D02*
X4195Y231D01*
X4030Y230D02*
X4099Y230D01*
X4126Y230D02*
X4195Y230D01*
X4030Y229D02*
X4100Y229D01*
X4125Y229D02*
X4195Y229D01*
X4030Y228D02*
X4101Y228D01*
X4124Y228D02*
X4195Y228D01*
X4031Y227D02*
X4102Y227D01*
X4123Y227D02*
X4194Y227D01*
X4031Y226D02*
X4103Y226D01*
X4122Y226D02*
X4194Y226D01*
X4031Y225D02*
X4104Y225D01*
X4121Y225D02*
X4194Y225D01*
X4032Y224D02*
X4106Y224D01*
X4119Y224D02*
X4194Y224D01*
X4032Y223D02*
X4110Y223D01*
X4115Y223D02*
X4193Y223D01*
X4032Y222D02*
X4193Y222D01*
X4033Y221D02*
X4193Y221D01*
X4033Y220D02*
X4192Y220D01*
X4034Y219D02*
X4192Y219D01*
X4034Y218D02*
X4191Y218D01*
X4034Y217D02*
X4191Y217D01*
X4035Y216D02*
X4190Y216D01*
X4036Y215D02*
X4190Y215D01*
X4036Y214D02*
X4189Y214D01*
X4037Y213D02*
X4188Y213D01*
X4037Y212D02*
X4188Y212D01*
X4038Y211D02*
X4187Y211D01*
X4039Y210D02*
X4186Y210D01*
X4040Y209D02*
X4185Y209D01*
X4041Y208D02*
X4185Y208D01*
X4042Y207D02*
X4184Y207D01*
X4042Y206D02*
X4183Y206D01*
X4044Y205D02*
X4182Y205D01*
X4045Y204D02*
X4180Y204D01*
X4046Y203D02*
X4179Y203D01*
X4047Y202D02*
X4178Y202D01*
X4049Y201D02*
X4177Y201D01*
X4050Y200D02*
X4175Y200D01*
X4052Y199D02*
X4173Y199D01*
X4054Y198D02*
X4171Y198D01*
X4056Y197D02*
X4169Y197D01*
X4058Y196D02*
X4167Y196D01*
X4061Y195D02*
X4164Y195D01*
X4065Y194D02*
X4160Y194D01*
D02*
G04 End of Mask0*
M02*