; NON-PLATED HOLES START AT T1
; THROUGH (PLATED) HOLES START AT T100
M48
INCH
T1C0.058000
T2C0.086614
T3C0.125984
T4C0.078740
T5C0.070000
T100C0.015748
T101C0.035000
T102C0.038000
T103C0.032000
T104C0.039370
T105C0.036000
%
T1
X035577Y039109
X033670Y039109
T2
X001125Y044370
X044126Y044370
X001125Y001370
X044126Y001370
T3
X002471Y041260
X022932Y041260
X002471Y030222
X022932Y030231
T4
X027484Y040976
X027484Y038220
T5
X035702Y040307
X033556Y040307
T100
X039126Y020370
X040126Y036370
X043126Y010370
X007125Y034370
X034126Y025370
X042126Y019370
X034126Y022370
X034126Y027370
T101
X009566Y020370
X005566Y024370
X009566Y016370
X005566Y014141
X009566Y022141
X013566Y024370
X020126Y012370
X012126Y026141
X008125Y020370
X009566Y004370
X001566Y020370
X001566Y026141
X009566Y006141
X001566Y012370
X040126Y026370
X008125Y010141
X040126Y024370
X020126Y020370
X004125Y026141
X017566Y014141
X017566Y010141
X017566Y004370
X005566Y022141
X001566Y016370
X016126Y012370
X020126Y008370
X001566Y024370
X021566Y006141
X020126Y018141
X013566Y016370
X016126Y004370
X008125Y018141
X013566Y014141
X021566Y012370
X008125Y016370
X012126Y020370
X016126Y020370
X009566Y014141
X021566Y018141
X013566Y026141
X004125Y006141
X024126Y014141
X016126Y008370
X012126Y018141
X005566Y004370
X024126Y018141
X004125Y012370
X004125Y008370
X020126Y024370
X016126Y022141
X017566Y026141
X013566Y004370
X008125Y008370
X012126Y004370
X044126Y026370
X017566Y012370
X024126Y008370
X009566Y008370
X017566Y024370
X012126Y024370
X024126Y022141
X040126Y032370
X024126Y006141
X017566Y020370
X017566Y016370
X017566Y008370
X024126Y012370
X008125Y012370
X016126Y006141
X008125Y022141
X004125Y024370
X004125Y022141
X017566Y018141
X005566Y026141
X008125Y024370
X013566Y020370
X016126Y010141
X016126Y016370
X044126Y024370
X017566Y022141
X005566Y012370
X009566Y018141
X044126Y032370
X009566Y026141
X004125Y016370
X013566Y006141
X008125Y006141
X021566Y004370
X020126Y010141
X044126Y031370
X040126Y031370
X024126Y010141
X001566Y004370
X012126Y010141
X005566Y006141
X001566Y006141
X009566Y024370
X024126Y016370
X020126Y004370
X012126Y012370
X024126Y026141
X016126Y024370
X004125Y010141
X024126Y004370
X021566Y026141
X004125Y004370
X020126Y026141
X021566Y020370
X021566Y008370
X013566Y022141
X024126Y024370
X009566Y012370
X013566Y010141
X001566Y010141
X004125Y020370
X005566Y010141
X012126Y014141
X016126Y026141
X016126Y014141
X013566Y012370
X012126Y008370
X020126Y016370
X024126Y020370
X004125Y018141
X001566Y014141
X005566Y020370
X001566Y022141
X016126Y018141
X005566Y008370
X021566Y014141
X009566Y010141
X021566Y024370
X021566Y016370
X020126Y014141
X005566Y018141
X021566Y010141
X012126Y006141
X013566Y018141
X012126Y016370
X005566Y016370
X001566Y018141
X008125Y026141
X008125Y004370
X021566Y022141
X008125Y014141
X013566Y008370
X020126Y006141
X012126Y022141
X001566Y008370
X017566Y006141
X004125Y014141
X020126Y022141
T102
X038126Y037370
X038126Y021370
X031130Y027370
X038126Y033370
X031130Y037370
X033626Y021370
X002271Y038369
X038126Y024370
X031130Y039370
X038126Y040370
X031130Y024370
X038126Y031370
X031130Y036370
X035626Y021370
X038126Y029370
X023126Y036370
X038126Y026370
X031130Y031370
X002271Y032369
X038126Y023370
X002271Y034369
X038126Y027370
X031130Y030370
X038126Y030370
X002271Y039369
X038126Y028370
X031130Y028370
X031130Y025370
X034626Y021370
X038126Y039370
X031130Y032370
X031130Y023370
X038126Y034370
X038126Y032370
X031130Y040370
X038126Y022370
X031130Y033370
X031130Y029370
X023126Y034370
X002271Y033369
X038126Y025370
X038126Y035370
X031130Y034370
X023126Y037370
X038126Y038370
X002271Y036369
X023126Y035370
X031130Y035370
X002271Y037369
X031130Y021370
X038126Y036370
X031130Y022370
X002271Y035369
X031130Y038370
X031130Y026370
T103
X027126Y016370
X029126Y016370
X029126Y013370
X030126Y013370
X028126Y016370
X028126Y013370
X027126Y013370
X030126Y016370
T104
X041125Y004850
X043094Y003669
X041125Y002370
T105
X038126Y004370
X032126Y013370
X038126Y008370
X032126Y008370
X032126Y007370
X038126Y015370
X038126Y014370
X032126Y003370
X038126Y010370
X032126Y011370
X032126Y002370
X038126Y011370
X034128Y016326
X038126Y013370
X032126Y015370
X038126Y006370
X036130Y016326
X038126Y002370
X032126Y014370
X035128Y016326
X038126Y012370
X032126Y012370
X035128Y017326
X038126Y005370
X038126Y016370
X034128Y017326
X038126Y007370
X032126Y010370
X032126Y009370
X032126Y016370
X038126Y009370
X032126Y005370
X032126Y006370
X036130Y017326
X032126Y004370
X038126Y003370
T00
M30
