<?xml version='1.0' encoding='UTF-8' standalone='no'?>
<!-- Created with Fritzing (https://fritzing.org/) -->
<svg xmlns="http://www.w3.org/2000/svg" width="4.52756in" viewBox="0 0 325.984 325.984" version="1.2" x="0in"  y="0in" baseProfile="tiny" height="4.52756in" xmlns:svg="http://www.w3.org/2000/svg">
 <g partID="57832">
  <g id="silkscreen0">
   <rect width="325.409" stroke-width="0.576" stroke="black" x="0.288" y="0.288" fill="none" height="325.409"/>
  </g>
 </g>
 <g partID="57830">
  <g id="board">
   <rect id="boardoutline" width="325.409" fill-opacity="0.5" stroke-width="0.5" stroke="black" x="0.288" y="0.288" fill="none" height="325.409"/>
  </g>
 </g>
 <g partID="57832">
  <g id="silkscreen0">
   <rect width="325.409" stroke-width="0.576" stroke="black" x="0.288" y="0.288" fill="none" height="325.409"/>
  </g>
 </g>
 <g partID="854389810">
  <g transform="translate(285.889,61.1023)">
   <g id="copper0">
    <circle id="connector0pin" cx="3.01733" stroke-width="1.57039" r="0.992124" stroke="white" cy="3.01733" fill="white"/>
   </g>
  </g>
 </g>
 <g partID="854393770">
  <g transform="translate(278.689,176.302)">
   <g id="copper0">
    <circle id="connector0pin" cx="3.01733" stroke-width="1.57039" r="0.992124" stroke="white" cy="3.01733" fill="white"/>
   </g>
  </g>
 </g>
 <g partID="854323480">
  <g transform="translate(242.689,161.902)">
   <g id="copper0">
    <circle id="connector0pin" cx="3.01733" stroke-width="1.57039" r="0.992124" stroke="white" cy="3.01733" fill="white"/>
   </g>
  </g>
 </g>
 <g partID="854266210">
  <g transform="translate(300.289,183.502)">
   <g id="copper0">
    <circle id="connector0pin" cx="3.01733" stroke-width="1.57039" r="0.992124" stroke="white" cy="3.01733" fill="white"/>
   </g>
  </g>
 </g>
 <g partID="854269510">
  <g transform="translate(48.2895,75.5023)">
   <g id="copper0">
    <circle id="connector0pin" cx="3.01733" stroke-width="1.57039" r="0.992124" stroke="white" cy="3.01733" fill="white"/>
   </g>
  </g>
 </g>
 <g partID="854269720">
  <g transform="translate(242.689,125.902)">
   <g id="copper0">
    <circle id="connector0pin" cx="3.01733" stroke-width="1.57039" r="0.992124" stroke="white" cy="3.01733" fill="white"/>
   </g>
  </g>
 </g>
 <g partID="854269750">
  <g transform="translate(242.689,140.302)">
   <g id="copper0">
    <circle id="connector0pin" cx="3.01733" stroke-width="1.57039" r="0.992124" stroke="white" cy="3.01733" fill="white"/>
   </g>
  </g>
 </g>
 <g partID="854271800">
  <g transform="translate(312.989,1.80156)">
   <g id="copper0">
    <circle id="nonconn0" cx="4.71811" stroke-width="0.72" r="3.11811" stroke="white" cy="4.71811" fill="white"/>
   </g>
  </g>
 </g>
 <g partID="854271830">
  <g transform="translate(3.38896,1.80156)">
   <g id="copper0">
    <circle id="nonconn0" cx="4.71811" stroke-width="0.72" r="3.11811" stroke="white" cy="4.71811" fill="white"/>
   </g>
  </g>
 </g>
 <g partID="854271860">
  <g transform="translate(3.38896,311.402)">
   <g id="copper0">
    <circle id="nonconn0" cx="4.71811" stroke-width="0.72" r="3.11811" stroke="white" cy="4.71811" fill="white"/>
   </g>
  </g>
 </g>
 <g partID="854273620">
  <g transform="translate(312.989,311.402)">
   <g id="copper0">
    <circle id="nonconn0" cx="4.71811" stroke-width="0.72" r="3.11811" stroke="white" cy="4.71811" fill="white"/>
   </g>
  </g>
 </g>
 <g partID="854118600">
  <g transform="translate(8.86093,278.917)">
   <g id="copper0">
    <circle id="connector0pad" cx="20.8462" stroke-width="2.16" r="1.98" stroke="white" cy="15.6024" fill="white"/>
    <circle id="connector1pad" cx="2.42064" stroke-width="2.16" r="1.98" stroke="white" cy="15.6024" fill="white"/>
    <circle id="connector2pad" cx="20.8462" stroke-width="2.16" r="1.98" stroke="white" cy="2.84616" fill="white"/>
    <circle id="connector3pad" cx="2.42064" stroke-width="2.16" r="1.98" stroke="white" cy="2.84616" fill="white"/>
   </g>
  </g>
 </g>
 <g partID="854118180">
  <g transform="translate(8.86093,250.117)">
   <g id="copper0">
    <circle id="connector0pad" cx="20.8462" stroke-width="2.16" r="1.98" stroke="white" cy="15.6024" fill="white"/>
    <circle id="connector1pad" cx="2.42064" stroke-width="2.16" r="1.98" stroke="white" cy="15.6024" fill="white"/>
    <circle id="connector2pad" cx="20.8462" stroke-width="2.16" r="1.98" stroke="white" cy="2.84616" fill="white"/>
    <circle id="connector3pad" cx="2.42064" stroke-width="2.16" r="1.98" stroke="white" cy="2.84616" fill="white"/>
   </g>
  </g>
 </g>
 <g partID="854117760">
  <g transform="translate(8.86093,221.317)">
   <g id="copper0">
    <circle id="connector0pad" cx="20.8462" stroke-width="2.16" r="1.98" stroke="white" cy="15.6024" fill="white"/>
    <circle id="connector1pad" cx="2.42064" stroke-width="2.16" r="1.98" stroke="white" cy="15.6024" fill="white"/>
    <circle id="connector2pad" cx="20.8462" stroke-width="2.16" r="1.98" stroke="white" cy="2.84616" fill="white"/>
    <circle id="connector3pad" cx="2.42064" stroke-width="2.16" r="1.98" stroke="white" cy="2.84616" fill="white"/>
   </g>
  </g>
 </g>
 <g partID="854117340">
  <g transform="translate(8.86093,192.517)">
   <g id="copper0">
    <circle id="connector0pad" cx="20.8462" stroke-width="2.16" r="1.98" stroke="white" cy="15.6024" fill="white"/>
    <circle id="connector1pad" cx="2.42064" stroke-width="2.16" r="1.98" stroke="white" cy="15.6024" fill="white"/>
    <circle id="connector2pad" cx="20.8462" stroke-width="2.16" r="1.98" stroke="white" cy="2.84616" fill="white"/>
    <circle id="connector3pad" cx="2.42064" stroke-width="2.16" r="1.98" stroke="white" cy="2.84616" fill="white"/>
   </g>
  </g>
 </g>
 <g partID="854116920">
  <g transform="translate(8.86093,163.717)">
   <g id="copper0">
    <circle id="connector0pad" cx="20.8462" stroke-width="2.16" r="1.98" stroke="white" cy="15.6024" fill="white"/>
    <circle id="connector1pad" cx="2.42064" stroke-width="2.16" r="1.98" stroke="white" cy="15.6024" fill="white"/>
    <circle id="connector2pad" cx="20.8462" stroke-width="2.16" r="1.98" stroke="white" cy="2.84616" fill="white"/>
    <circle id="connector3pad" cx="2.42064" stroke-width="2.16" r="1.98" stroke="white" cy="2.84616" fill="white"/>
   </g>
  </g>
 </g>
 <g partID="854115960">
  <g transform="translate(8.86093,134.917)">
   <g id="copper0">
    <circle id="connector0pad" cx="20.8462" stroke-width="2.16" r="1.98" stroke="white" cy="15.6024" fill="white"/>
    <circle id="connector1pad" cx="2.42064" stroke-width="2.16" r="1.98" stroke="white" cy="15.6024" fill="white"/>
    <circle id="connector2pad" cx="20.8462" stroke-width="2.16" r="1.98" stroke="white" cy="2.84616" fill="white"/>
    <circle id="connector3pad" cx="2.42064" stroke-width="2.16" r="1.98" stroke="white" cy="2.84616" fill="white"/>
   </g>
  </g>
 </g>
 <g partID="854118610">
  <g transform="translate(37.6607,278.917)">
   <g id="copper0">
    <circle id="connector0pad" cx="20.8462" stroke-width="2.16" r="1.98" stroke="white" cy="15.6024" fill="white"/>
    <circle id="connector1pad" cx="2.42064" stroke-width="2.16" r="1.98" stroke="white" cy="15.6024" fill="white"/>
    <circle id="connector2pad" cx="20.8462" stroke-width="2.16" r="1.98" stroke="white" cy="2.84616" fill="white"/>
    <circle id="connector3pad" cx="2.42064" stroke-width="2.16" r="1.98" stroke="white" cy="2.84616" fill="white"/>
   </g>
  </g>
 </g>
 <g partID="854118190">
  <g transform="translate(37.6607,250.117)">
   <g id="copper0">
    <circle id="connector0pad" cx="20.8462" stroke-width="2.16" r="1.98" stroke="white" cy="15.6024" fill="white"/>
    <circle id="connector1pad" cx="2.42064" stroke-width="2.16" r="1.98" stroke="white" cy="15.6024" fill="white"/>
    <circle id="connector2pad" cx="20.8462" stroke-width="2.16" r="1.98" stroke="white" cy="2.84616" fill="white"/>
    <circle id="connector3pad" cx="2.42064" stroke-width="2.16" r="1.98" stroke="white" cy="2.84616" fill="white"/>
   </g>
  </g>
 </g>
 <g partID="854117770">
  <g transform="translate(37.6607,221.317)">
   <g id="copper0">
    <circle id="connector0pad" cx="20.8462" stroke-width="2.16" r="1.98" stroke="white" cy="15.6024" fill="white"/>
    <circle id="connector1pad" cx="2.42064" stroke-width="2.16" r="1.98" stroke="white" cy="15.6024" fill="white"/>
    <circle id="connector2pad" cx="20.8462" stroke-width="2.16" r="1.98" stroke="white" cy="2.84616" fill="white"/>
    <circle id="connector3pad" cx="2.42064" stroke-width="2.16" r="1.98" stroke="white" cy="2.84616" fill="white"/>
   </g>
  </g>
 </g>
 <g partID="854117350">
  <g transform="translate(37.6607,192.517)">
   <g id="copper0">
    <circle id="connector0pad" cx="20.8462" stroke-width="2.16" r="1.98" stroke="white" cy="15.6024" fill="white"/>
    <circle id="connector1pad" cx="2.42064" stroke-width="2.16" r="1.98" stroke="white" cy="15.6024" fill="white"/>
    <circle id="connector2pad" cx="20.8462" stroke-width="2.16" r="1.98" stroke="white" cy="2.84616" fill="white"/>
    <circle id="connector3pad" cx="2.42064" stroke-width="2.16" r="1.98" stroke="white" cy="2.84616" fill="white"/>
   </g>
  </g>
 </g>
 <g partID="854116930">
  <g transform="translate(37.6607,163.717)">
   <g id="copper0">
    <circle id="connector0pad" cx="20.8462" stroke-width="2.16" r="1.98" stroke="white" cy="15.6024" fill="white"/>
    <circle id="connector1pad" cx="2.42064" stroke-width="2.16" r="1.98" stroke="white" cy="15.6024" fill="white"/>
    <circle id="connector2pad" cx="20.8462" stroke-width="2.16" r="1.98" stroke="white" cy="2.84616" fill="white"/>
    <circle id="connector3pad" cx="2.42064" stroke-width="2.16" r="1.98" stroke="white" cy="2.84616" fill="white"/>
   </g>
  </g>
 </g>
 <g partID="854115990">
  <g transform="translate(37.6607,134.917)">
   <g id="copper0">
    <circle id="connector0pad" cx="20.8462" stroke-width="2.16" r="1.98" stroke="white" cy="15.6024" fill="white"/>
    <circle id="connector1pad" cx="2.42064" stroke-width="2.16" r="1.98" stroke="white" cy="15.6024" fill="white"/>
    <circle id="connector2pad" cx="20.8462" stroke-width="2.16" r="1.98" stroke="white" cy="2.84616" fill="white"/>
    <circle id="connector3pad" cx="2.42064" stroke-width="2.16" r="1.98" stroke="white" cy="2.84616" fill="white"/>
   </g>
  </g>
 </g>
 <g partID="854118620">
  <g transform="translate(66.4607,278.917)">
   <g id="copper0">
    <circle id="connector0pad" cx="20.8462" stroke-width="2.16" r="1.98" stroke="white" cy="15.6024" fill="white"/>
    <circle id="connector1pad" cx="2.42064" stroke-width="2.16" r="1.98" stroke="white" cy="15.6024" fill="white"/>
    <circle id="connector2pad" cx="20.8462" stroke-width="2.16" r="1.98" stroke="white" cy="2.84616" fill="white"/>
    <circle id="connector3pad" cx="2.42064" stroke-width="2.16" r="1.98" stroke="white" cy="2.84616" fill="white"/>
   </g>
  </g>
 </g>
 <g partID="854118200">
  <g transform="translate(66.4607,250.117)">
   <g id="copper0">
    <circle id="connector0pad" cx="20.8462" stroke-width="2.16" r="1.98" stroke="white" cy="15.6024" fill="white"/>
    <circle id="connector1pad" cx="2.42064" stroke-width="2.16" r="1.98" stroke="white" cy="15.6024" fill="white"/>
    <circle id="connector2pad" cx="20.8462" stroke-width="2.16" r="1.98" stroke="white" cy="2.84616" fill="white"/>
    <circle id="connector3pad" cx="2.42064" stroke-width="2.16" r="1.98" stroke="white" cy="2.84616" fill="white"/>
   </g>
  </g>
 </g>
 <g partID="854117780">
  <g transform="translate(66.4607,221.317)">
   <g id="copper0">
    <circle id="connector0pad" cx="20.8462" stroke-width="2.16" r="1.98" stroke="white" cy="15.6024" fill="white"/>
    <circle id="connector1pad" cx="2.42064" stroke-width="2.16" r="1.98" stroke="white" cy="15.6024" fill="white"/>
    <circle id="connector2pad" cx="20.8462" stroke-width="2.16" r="1.98" stroke="white" cy="2.84616" fill="white"/>
    <circle id="connector3pad" cx="2.42064" stroke-width="2.16" r="1.98" stroke="white" cy="2.84616" fill="white"/>
   </g>
  </g>
 </g>
 <g partID="854117360">
  <g transform="translate(66.4607,192.517)">
   <g id="copper0">
    <circle id="connector0pad" cx="20.8462" stroke-width="2.16" r="1.98" stroke="white" cy="15.6024" fill="white"/>
    <circle id="connector1pad" cx="2.42064" stroke-width="2.16" r="1.98" stroke="white" cy="15.6024" fill="white"/>
    <circle id="connector2pad" cx="20.8462" stroke-width="2.16" r="1.98" stroke="white" cy="2.84616" fill="white"/>
    <circle id="connector3pad" cx="2.42064" stroke-width="2.16" r="1.98" stroke="white" cy="2.84616" fill="white"/>
   </g>
  </g>
 </g>
 <g partID="854116940">
  <g transform="translate(66.4607,163.717)">
   <g id="copper0">
    <circle id="connector0pad" cx="20.8462" stroke-width="2.16" r="1.98" stroke="white" cy="15.6024" fill="white"/>
    <circle id="connector1pad" cx="2.42064" stroke-width="2.16" r="1.98" stroke="white" cy="15.6024" fill="white"/>
    <circle id="connector2pad" cx="20.8462" stroke-width="2.16" r="1.98" stroke="white" cy="2.84616" fill="white"/>
    <circle id="connector3pad" cx="2.42064" stroke-width="2.16" r="1.98" stroke="white" cy="2.84616" fill="white"/>
   </g>
  </g>
 </g>
 <g partID="854116020">
  <g transform="translate(66.4607,134.917)">
   <g id="copper0">
    <circle id="connector0pad" cx="20.8462" stroke-width="2.16" r="1.98" stroke="white" cy="15.6024" fill="white"/>
    <circle id="connector1pad" cx="2.42064" stroke-width="2.16" r="1.98" stroke="white" cy="15.6024" fill="white"/>
    <circle id="connector2pad" cx="20.8462" stroke-width="2.16" r="1.98" stroke="white" cy="2.84616" fill="white"/>
    <circle id="connector3pad" cx="2.42064" stroke-width="2.16" r="1.98" stroke="white" cy="2.84616" fill="white"/>
   </g>
  </g>
 </g>
 <g partID="854118630">
  <g transform="translate(95.2607,278.917)">
   <g id="copper0">
    <circle id="connector0pad" cx="20.8462" stroke-width="2.16" r="1.98" stroke="white" cy="15.6024" fill="white"/>
    <circle id="connector1pad" cx="2.42064" stroke-width="2.16" r="1.98" stroke="white" cy="15.6024" fill="white"/>
    <circle id="connector2pad" cx="20.8462" stroke-width="2.16" r="1.98" stroke="white" cy="2.84616" fill="white"/>
    <circle id="connector3pad" cx="2.42064" stroke-width="2.16" r="1.98" stroke="white" cy="2.84616" fill="white"/>
   </g>
  </g>
 </g>
 <g partID="854118210">
  <g transform="translate(95.2607,250.117)">
   <g id="copper0">
    <circle id="connector0pad" cx="20.8462" stroke-width="2.16" r="1.98" stroke="white" cy="15.6024" fill="white"/>
    <circle id="connector1pad" cx="2.42064" stroke-width="2.16" r="1.98" stroke="white" cy="15.6024" fill="white"/>
    <circle id="connector2pad" cx="20.8462" stroke-width="2.16" r="1.98" stroke="white" cy="2.84616" fill="white"/>
    <circle id="connector3pad" cx="2.42064" stroke-width="2.16" r="1.98" stroke="white" cy="2.84616" fill="white"/>
   </g>
  </g>
 </g>
 <g partID="854117790">
  <g transform="translate(95.2607,221.317)">
   <g id="copper0">
    <circle id="connector0pad" cx="20.8462" stroke-width="2.16" r="1.98" stroke="white" cy="15.6024" fill="white"/>
    <circle id="connector1pad" cx="2.42064" stroke-width="2.16" r="1.98" stroke="white" cy="15.6024" fill="white"/>
    <circle id="connector2pad" cx="20.8462" stroke-width="2.16" r="1.98" stroke="white" cy="2.84616" fill="white"/>
    <circle id="connector3pad" cx="2.42064" stroke-width="2.16" r="1.98" stroke="white" cy="2.84616" fill="white"/>
   </g>
  </g>
 </g>
 <g partID="854117370">
  <g transform="translate(95.2607,192.517)">
   <g id="copper0">
    <circle id="connector0pad" cx="20.8462" stroke-width="2.16" r="1.98" stroke="white" cy="15.6024" fill="white"/>
    <circle id="connector1pad" cx="2.42064" stroke-width="2.16" r="1.98" stroke="white" cy="15.6024" fill="white"/>
    <circle id="connector2pad" cx="20.8462" stroke-width="2.16" r="1.98" stroke="white" cy="2.84616" fill="white"/>
    <circle id="connector3pad" cx="2.42064" stroke-width="2.16" r="1.98" stroke="white" cy="2.84616" fill="white"/>
   </g>
  </g>
 </g>
 <g partID="854116950">
  <g transform="translate(95.2607,163.717)">
   <g id="copper0">
    <circle id="connector0pad" cx="20.8462" stroke-width="2.16" r="1.98" stroke="white" cy="15.6024" fill="white"/>
    <circle id="connector1pad" cx="2.42064" stroke-width="2.16" r="1.98" stroke="white" cy="15.6024" fill="white"/>
    <circle id="connector2pad" cx="20.8462" stroke-width="2.16" r="1.98" stroke="white" cy="2.84616" fill="white"/>
    <circle id="connector3pad" cx="2.42064" stroke-width="2.16" r="1.98" stroke="white" cy="2.84616" fill="white"/>
   </g>
  </g>
 </g>
 <g partID="854116050">
  <g transform="translate(95.2607,134.917)">
   <g id="copper0">
    <circle id="connector0pad" cx="20.8462" stroke-width="2.16" r="1.98" stroke="white" cy="15.6024" fill="white"/>
    <circle id="connector1pad" cx="2.42064" stroke-width="2.16" r="1.98" stroke="white" cy="15.6024" fill="white"/>
    <circle id="connector2pad" cx="20.8462" stroke-width="2.16" r="1.98" stroke="white" cy="2.84616" fill="white"/>
    <circle id="connector3pad" cx="2.42064" stroke-width="2.16" r="1.98" stroke="white" cy="2.84616" fill="white"/>
   </g>
  </g>
 </g>
 <g partID="854118640">
  <g transform="translate(124.061,278.917)">
   <g id="copper0">
    <circle id="connector0pad" cx="20.8462" stroke-width="2.16" r="1.98" stroke="white" cy="15.6024" fill="white"/>
    <circle id="connector1pad" cx="2.42064" stroke-width="2.16" r="1.98" stroke="white" cy="15.6024" fill="white"/>
    <circle id="connector2pad" cx="20.8462" stroke-width="2.16" r="1.98" stroke="white" cy="2.84616" fill="white"/>
    <circle id="connector3pad" cx="2.42064" stroke-width="2.16" r="1.98" stroke="white" cy="2.84616" fill="white"/>
   </g>
  </g>
 </g>
 <g partID="854118220">
  <g transform="translate(124.061,250.117)">
   <g id="copper0">
    <circle id="connector0pad" cx="20.8462" stroke-width="2.16" r="1.98" stroke="white" cy="15.6024" fill="white"/>
    <circle id="connector1pad" cx="2.42064" stroke-width="2.16" r="1.98" stroke="white" cy="15.6024" fill="white"/>
    <circle id="connector2pad" cx="20.8462" stroke-width="2.16" r="1.98" stroke="white" cy="2.84616" fill="white"/>
    <circle id="connector3pad" cx="2.42064" stroke-width="2.16" r="1.98" stroke="white" cy="2.84616" fill="white"/>
   </g>
  </g>
 </g>
 <g partID="854117800">
  <g transform="translate(124.061,221.317)">
   <g id="copper0">
    <circle id="connector0pad" cx="20.8462" stroke-width="2.16" r="1.98" stroke="white" cy="15.6024" fill="white"/>
    <circle id="connector1pad" cx="2.42064" stroke-width="2.16" r="1.98" stroke="white" cy="15.6024" fill="white"/>
    <circle id="connector2pad" cx="20.8462" stroke-width="2.16" r="1.98" stroke="white" cy="2.84616" fill="white"/>
    <circle id="connector3pad" cx="2.42064" stroke-width="2.16" r="1.98" stroke="white" cy="2.84616" fill="white"/>
   </g>
  </g>
 </g>
 <g partID="854117380">
  <g transform="translate(124.061,192.517)">
   <g id="copper0">
    <circle id="connector0pad" cx="20.8462" stroke-width="2.16" r="1.98" stroke="white" cy="15.6024" fill="white"/>
    <circle id="connector1pad" cx="2.42064" stroke-width="2.16" r="1.98" stroke="white" cy="15.6024" fill="white"/>
    <circle id="connector2pad" cx="20.8462" stroke-width="2.16" r="1.98" stroke="white" cy="2.84616" fill="white"/>
    <circle id="connector3pad" cx="2.42064" stroke-width="2.16" r="1.98" stroke="white" cy="2.84616" fill="white"/>
   </g>
  </g>
 </g>
 <g partID="854116960">
  <g transform="translate(124.061,163.717)">
   <g id="copper0">
    <circle id="connector0pad" cx="20.8462" stroke-width="2.16" r="1.98" stroke="white" cy="15.6024" fill="white"/>
    <circle id="connector1pad" cx="2.42064" stroke-width="2.16" r="1.98" stroke="white" cy="15.6024" fill="white"/>
    <circle id="connector2pad" cx="20.8462" stroke-width="2.16" r="1.98" stroke="white" cy="2.84616" fill="white"/>
    <circle id="connector3pad" cx="2.42064" stroke-width="2.16" r="1.98" stroke="white" cy="2.84616" fill="white"/>
   </g>
  </g>
 </g>
 <g partID="854116080">
  <g transform="translate(124.061,134.917)">
   <g id="copper0">
    <circle id="connector0pad" cx="20.8462" stroke-width="2.16" r="1.98" stroke="white" cy="15.6024" fill="white"/>
    <circle id="connector1pad" cx="2.42064" stroke-width="2.16" r="1.98" stroke="white" cy="15.6024" fill="white"/>
    <circle id="connector2pad" cx="20.8462" stroke-width="2.16" r="1.98" stroke="white" cy="2.84616" fill="white"/>
    <circle id="connector3pad" cx="2.42064" stroke-width="2.16" r="1.98" stroke="white" cy="2.84616" fill="white"/>
   </g>
  </g>
 </g>
 <g partID="854118650">
  <g transform="translate(152.861,278.917)">
   <g id="copper0">
    <circle id="connector0pad" cx="20.8462" stroke-width="2.16" r="1.98" stroke="white" cy="15.6024" fill="white"/>
    <circle id="connector1pad" cx="2.42064" stroke-width="2.16" r="1.98" stroke="white" cy="15.6024" fill="white"/>
    <circle id="connector2pad" cx="20.8462" stroke-width="2.16" r="1.98" stroke="white" cy="2.84616" fill="white"/>
    <circle id="connector3pad" cx="2.42064" stroke-width="2.16" r="1.98" stroke="white" cy="2.84616" fill="white"/>
   </g>
  </g>
 </g>
 <g partID="854118230">
  <g transform="translate(152.861,250.117)">
   <g id="copper0">
    <circle id="connector0pad" cx="20.8462" stroke-width="2.16" r="1.98" stroke="white" cy="15.6024" fill="white"/>
    <circle id="connector1pad" cx="2.42064" stroke-width="2.16" r="1.98" stroke="white" cy="15.6024" fill="white"/>
    <circle id="connector2pad" cx="20.8462" stroke-width="2.16" r="1.98" stroke="white" cy="2.84616" fill="white"/>
    <circle id="connector3pad" cx="2.42064" stroke-width="2.16" r="1.98" stroke="white" cy="2.84616" fill="white"/>
   </g>
  </g>
 </g>
 <g partID="854117810">
  <g transform="translate(152.861,221.317)">
   <g id="copper0">
    <circle id="connector0pad" cx="20.8462" stroke-width="2.16" r="1.98" stroke="white" cy="15.6024" fill="white"/>
    <circle id="connector1pad" cx="2.42064" stroke-width="2.16" r="1.98" stroke="white" cy="15.6024" fill="white"/>
    <circle id="connector2pad" cx="20.8462" stroke-width="2.16" r="1.98" stroke="white" cy="2.84616" fill="white"/>
    <circle id="connector3pad" cx="2.42064" stroke-width="2.16" r="1.98" stroke="white" cy="2.84616" fill="white"/>
   </g>
  </g>
 </g>
 <g partID="854117390">
  <g transform="translate(152.861,192.517)">
   <g id="copper0">
    <circle id="connector0pad" cx="20.8462" stroke-width="2.16" r="1.98" stroke="white" cy="15.6024" fill="white"/>
    <circle id="connector1pad" cx="2.42064" stroke-width="2.16" r="1.98" stroke="white" cy="15.6024" fill="white"/>
    <circle id="connector2pad" cx="20.8462" stroke-width="2.16" r="1.98" stroke="white" cy="2.84616" fill="white"/>
    <circle id="connector3pad" cx="2.42064" stroke-width="2.16" r="1.98" stroke="white" cy="2.84616" fill="white"/>
   </g>
  </g>
 </g>
 <g partID="854116970">
  <g transform="translate(152.861,163.717)">
   <g id="copper0">
    <circle id="connector0pad" cx="20.8462" stroke-width="2.16" r="1.98" stroke="white" cy="15.6024" fill="white"/>
    <circle id="connector1pad" cx="2.42064" stroke-width="2.16" r="1.98" stroke="white" cy="15.6024" fill="white"/>
    <circle id="connector2pad" cx="20.8462" stroke-width="2.16" r="1.98" stroke="white" cy="2.84616" fill="white"/>
    <circle id="connector3pad" cx="2.42064" stroke-width="2.16" r="1.98" stroke="white" cy="2.84616" fill="white"/>
   </g>
  </g>
 </g>
 <g partID="854116110">
  <g transform="translate(152.861,134.917)">
   <g id="copper0">
    <circle id="connector0pad" cx="20.8462" stroke-width="2.16" r="1.98" stroke="white" cy="15.6024" fill="white"/>
    <circle id="connector1pad" cx="2.42064" stroke-width="2.16" r="1.98" stroke="white" cy="15.6024" fill="white"/>
    <circle id="connector2pad" cx="20.8462" stroke-width="2.16" r="1.98" stroke="white" cy="2.84616" fill="white"/>
    <circle id="connector3pad" cx="2.42064" stroke-width="2.16" r="1.98" stroke="white" cy="2.84616" fill="white"/>
   </g>
  </g>
 </g>
 <g partID="59360">
  <g transform="translate(216.605,25.2294)">
   <g transform="matrix(1,0,0,1,0,0)">
    <g id="copper0">
     <circle id="nonconn1" cx="39.5497" stroke-width="0.72" r="2.088" stroke="white" cy="19.1675" fill="white"/>
     <circle id="nonconn2" cx="25.8247" stroke-width="0.72" r="2.088" stroke="white" cy="19.1675" fill="white"/>
     <circle id="nonconn3" cx="24.9997" stroke-width="0.72" r="2.52" stroke="white" cy="10.5425" fill="white"/>
     <circle id="nonconn4" cx="40.4497" stroke-width="0.72" r="2.52" stroke="white" cy="10.5425" fill="white"/>
     <rect id="rect0" width="10.344" stroke-width="0.72" x="0" stroke="white" y="7.30777" height="5.616" fill="white"/>
     <rect id="rect1" width="10.368" stroke-width="0.72" x="0.027" stroke="white" y="14.5078" height="5.616" fill="white"/>
     <rect id="rect2" width="10.368" stroke-width="0.72" x="0.027" stroke="white" y="21.7078" height="5.616" fill="white"/>
     <rect id="rect3" width="10.368" stroke-width="0.72" x="0" stroke="white" y="28.9078" height="5.616" fill="white"/>
     <rect id="rect4" width="10.368" stroke-width="0.72" x="0.027" stroke="white" y="36.1078" height="5.616" fill="white"/>
     <rect id="rect5" width="10.368" stroke-width="0.72" x="0.027" stroke="white" y="43.3078" height="5.616" fill="white"/>
     <rect id="rect6" width="10.368" stroke-width="0.72" x="0.027" stroke="white" y="50.5078" height="5.616" fill="white"/>
     <rect id="rect7" width="10.368" stroke-width="0.72" x="0.027" stroke="white" y="57.7078" height="5.616" fill="white"/>
     <rect id="rect8" width="10.368" stroke-width="0.72" x="0.027" stroke="white" y="64.9078" height="5.616" fill="white"/>
     <rect id="rect9" width="10.368" stroke-width="0.72" x="0.027" stroke="white" y="72.1078" height="5.616" fill="white"/>
     <rect id="rect10" width="10.368" stroke-width="0.72" x="0.027" stroke="white" y="79.3078" height="5.616" fill="white"/>
     <rect id="rect11" width="10.368" stroke-width="0.72" x="0.027" stroke="white" y="86.5078" height="5.616" fill="white"/>
     <rect id="rect12" width="10.368" stroke-width="0.72" x="0.027" stroke="white" y="93.7078" height="5.616" fill="white"/>
     <rect id="rect13" width="10.368" stroke-width="0.72" x="0.027" stroke="white" y="100.908" height="5.616" fill="white"/>
     <rect id="rect14" width="10.368" stroke-width="0.72" x="0.027" stroke="white" y="108.108" height="5.616" fill="white"/>
     <rect id="rect15" width="10.368" stroke-width="0.72" x="0.027" stroke="white" y="115.308" height="5.616" fill="white"/>
     <rect id="rect16" width="10.368" stroke-width="0.72" x="0.027" stroke="white" y="122.508" height="5.616" fill="white"/>
     <rect id="rect17" width="10.368" stroke-width="0.72" x="0.027" stroke="white" y="129.708" height="5.616" fill="white"/>
     <rect id="rect18" width="10.368" stroke-width="0.72" x="0.027" stroke="white" y="136.908" height="5.616" fill="white"/>
     <rect id="rect19" width="10.368" stroke-width="0.72" x="0.027" stroke="white" y="144.108" height="5.616" fill="white"/>
     <rect id="rect20" width="10.368" stroke-width="0.72" x="55.08" stroke="white" y="144.108" height="5.616" fill="white"/>
     <rect id="rect21" width="10.368" stroke-width="0.72" x="55.08" stroke="white" y="136.908" height="5.616" fill="white"/>
     <rect id="rect22" width="10.368" stroke-width="0.72" x="55.08" stroke="white" y="129.708" height="5.616" fill="white"/>
     <rect id="rect23" width="10.368" stroke-width="0.72" x="55.08" stroke="white" y="122.508" height="5.616" fill="white"/>
     <rect id="rect24" width="10.368" stroke-width="0.72" x="55.08" stroke="white" y="115.308" height="5.616" fill="white"/>
     <rect id="rect25" width="10.368" stroke-width="0.72" x="55.08" stroke="white" y="108.108" height="5.616" fill="white"/>
     <rect id="rect26" width="10.368" stroke-width="0.72" x="55.08" stroke="white" y="100.908" height="5.616" fill="white"/>
     <rect id="rect27" width="10.368" stroke-width="0.72" x="55.08" stroke="white" y="93.7078" height="5.616" fill="white"/>
     <rect id="rect28" width="10.368" stroke-width="0.72" x="55.08" stroke="white" y="86.5078" height="5.616" fill="white"/>
     <rect id="rect29" width="10.368" stroke-width="0.72" x="55.08" stroke="white" y="79.3078" height="5.616" fill="white"/>
     <rect id="rect30" width="10.368" stroke-width="0.72" x="55.08" stroke="white" y="72.1078" height="5.616" fill="white"/>
     <rect id="rect31" width="10.368" stroke-width="0.72" x="55.08" stroke="white" y="64.9078" height="5.616" fill="white"/>
     <rect id="rect32" width="10.368" stroke-width="0.72" x="55.08" stroke="white" y="57.7078" height="5.616" fill="white"/>
     <rect id="rect33" width="10.368" stroke-width="0.72" x="55.08" stroke="white" y="50.5078" height="5.616" fill="white"/>
     <rect id="rect34" width="10.368" stroke-width="0.72" x="55.08" stroke="white" y="43.3078" height="5.616" fill="white"/>
     <rect id="rect35" width="10.368" stroke-width="0.72" x="55.08" stroke="white" y="36.1078" height="5.616" fill="white"/>
     <rect id="rect36" width="10.368" stroke-width="0.72" x="55.08" stroke="white" y="28.9078" height="5.616" fill="white"/>
     <rect id="rect37" width="10.368" stroke-width="0.72" x="55.08" stroke="white" y="21.7078" height="5.616" fill="white"/>
     <rect id="rect38" width="10.368" stroke-width="0.72" x="55.08" stroke="white" y="14.5078" height="5.616" fill="white"/>
     <rect id="rect39" width="10.368" stroke-width="0.72" x="55.08" stroke="white" y="7.30777" height="5.616" fill="white"/>
     <rect id="rect40" width="5.616" stroke-width="0.72" x="22.68" stroke="white" y="143.46" height="10.368" fill="white"/>
     <rect id="rect41" width="5.616" stroke-width="0.72" x="29.88" stroke="white" y="143.46" height="10.368" fill="white"/>
     <rect id="rect42" width="5.616" stroke-width="0.72" x="37.08" stroke="white" y="143.46" height="10.368" fill="white"/>
     <circle id="connector0pin" cx="7.533" stroke-width="2.16" r="2.088" stroke="white" cy="10.0868" fill="white"/>
     <circle id="connector1pin" cx="7.533" stroke-width="2.16" r="2.088" stroke="white" cy="17.2903" fill="white"/>
     <circle id="connector2pin" cx="7.533" stroke-width="2.16" r="2.088" stroke="white" cy="24.4903" fill="white"/>
     <circle id="connector3pin" cx="7.533" stroke-width="2.16" r="2.088" stroke="white" cy="31.6903" fill="white"/>
     <circle id="connector4pin" cx="7.533" stroke-width="2.16" r="2.088" stroke="white" cy="38.8903" fill="white"/>
     <circle id="connector5pin" cx="7.533" stroke-width="2.16" r="2.088" stroke="white" cy="46.0903" fill="white"/>
     <circle id="connector6pin" cx="7.533" stroke-width="2.16" r="2.088" stroke="white" cy="53.2903" fill="white"/>
     <circle id="connector7pin" cx="7.533" stroke-width="2.16" r="2.088" stroke="white" cy="60.4903" fill="white"/>
     <circle id="connector8pin" cx="7.533" stroke-width="2.16" r="2.088" stroke="white" cy="67.6903" fill="white"/>
     <circle id="connector9pin" cx="7.533" stroke-width="2.16" r="2.088" stroke="white" cy="74.8903" fill="white"/>
     <circle id="connector10pin" cx="7.533" stroke-width="2.16" r="2.088" stroke="white" cy="82.0903" fill="white"/>
     <circle id="connector11pin" cx="7.533" stroke-width="2.16" r="2.088" stroke="white" cy="89.2903" fill="white"/>
     <circle id="connector12pin" cx="7.533" stroke-width="2.16" r="2.088" stroke="white" cy="96.4903" fill="white"/>
     <circle id="connector13pin" cx="7.533" stroke-width="2.16" r="2.088" stroke="white" cy="103.69" fill="white"/>
     <circle id="connector14pin" cx="7.533" stroke-width="2.16" r="2.088" stroke="white" cy="110.89" fill="white"/>
     <circle id="connector15pin" cx="7.533" stroke-width="2.16" r="2.088" stroke="white" cy="118.09" fill="white"/>
     <circle id="connector16pin" cx="7.533" stroke-width="2.16" r="2.088" stroke="white" cy="125.29" fill="white"/>
     <circle id="connector17pin" cx="7.533" stroke-width="2.16" r="2.088" stroke="white" cy="132.49" fill="white"/>
     <circle id="connector18pin" cx="7.533" stroke-width="2.16" r="2.088" stroke="white" cy="139.69" fill="white"/>
     <circle id="connector19pin" cx="7.533" stroke-width="2.16" r="2.088" stroke="white" cy="146.89" fill="white"/>
     <circle id="connector20pin" cx="57.9015" stroke-width="2.16" r="2.088" stroke="white" cy="146.89" fill="white"/>
     <circle id="connector21pin" cx="57.9015" stroke-width="2.16" r="2.088" stroke="white" cy="139.69" fill="white"/>
     <circle id="connector22pin" cx="57.9015" stroke-width="2.16" r="2.088" stroke="white" cy="132.49" fill="white"/>
     <circle id="connector23pin" cx="57.9015" stroke-width="2.16" r="2.088" stroke="white" cy="125.29" fill="white"/>
     <circle id="connector24pin" cx="57.9015" stroke-width="2.16" r="2.088" stroke="white" cy="118.09" fill="white"/>
     <circle id="connector25pin" cx="57.9015" stroke-width="2.16" r="2.088" stroke="white" cy="110.89" fill="white"/>
     <circle id="connector26pin" cx="57.9015" stroke-width="2.16" r="2.088" stroke="white" cy="103.69" fill="white"/>
     <circle id="connector27pin" cx="57.9015" stroke-width="2.16" r="2.088" stroke="white" cy="96.4903" fill="white"/>
     <circle id="connector28pin" cx="57.9015" stroke-width="2.16" r="2.088" stroke="white" cy="89.2903" fill="white"/>
     <circle id="connector29pin" cx="57.9015" stroke-width="2.16" r="2.088" stroke="white" cy="82.0903" fill="white"/>
     <circle id="connector30pin" cx="57.9015" stroke-width="2.16" r="2.088" stroke="white" cy="74.8903" fill="white"/>
     <circle id="connector31pin" cx="57.9015" stroke-width="2.16" r="2.088" stroke="white" cy="67.6903" fill="white"/>
     <circle id="connector32pin" cx="57.9015" stroke-width="2.16" r="2.088" stroke="white" cy="60.4903" fill="white"/>
     <circle id="connector33pin" cx="57.9015" stroke-width="2.16" r="2.088" stroke="white" cy="53.2903" fill="white"/>
     <circle id="connector34pin" cx="57.9015" stroke-width="2.16" r="2.088" stroke="white" cy="46.0903" fill="white"/>
     <circle id="connector35pin" cx="57.9015" stroke-width="2.16" r="2.088" stroke="white" cy="38.8903" fill="white"/>
     <circle id="connector36pin" cx="57.9015" stroke-width="2.16" r="2.088" stroke="white" cy="31.6903" fill="white"/>
     <circle id="connector37pin" cx="57.9015" stroke-width="2.16" r="2.088" stroke="white" cy="24.4903" fill="white"/>
     <circle id="connector38pin" cx="57.9015" stroke-width="2.16" r="2.088" stroke="white" cy="17.2903" fill="white"/>
     <circle id="connector39pin" cx="57.9015" stroke-width="2.16" r="2.088" stroke="white" cy="10.0903" fill="white"/>
     <circle id="connector40pin" cx="25.5015" stroke-width="2.16" r="2.088" stroke="white" cy="146.89" fill="white"/>
     <circle id="connector41pin" cx="32.7015" stroke-width="2.16" r="2.088" stroke="white" cy="146.89" fill="white"/>
     <circle id="connector42pin" cx="39.9015" stroke-width="2.16" r="2.088" stroke="white" cy="146.89" fill="white"/>
    </g>
   </g>
  </g>
 </g>
 <g partID="62040">
  <g transform="translate(203.659,204.376)">
   <g id="copper0">
    <circle id="connector0pad" cx="6.048" stroke-width="1.44" r="1.512" stroke="white" cy="25.344" connectorname="1" fill="white"/>
    <path stroke-width="0.72" d="m6.048,21.6a1.872,1.872,0,0,1,1.872,1.872l0,3.744a1.872,1.872,0,0,1,-1.872,1.872l0,0a1.872,1.872,0,0,1,-1.872,-1.872l0,-3.744a1.872,1.872,0,0,1,1.872,-1.872l0,0zM4.896,25.344a1.152,1.152,0,1,0,2.304,0,1.152,1.152,0,1,0,-2.304,0z" stroke="white" fill="white"/>
    <circle id="connector1pad" cx="13.248" stroke-width="1.44" r="1.512" stroke="white" cy="25.344" connectorname="2" fill="white"/>
    <path stroke-width="0.72" d="m13.248,21.6a1.872,1.872,0,0,1,1.872,1.872l0,3.744a1.872,1.872,0,0,1,-1.872,1.872l0,0a1.872,1.872,0,0,1,-1.872,-1.872l0,-3.744a1.872,1.872,0,0,1,1.872,-1.872l0,0zM12.096,25.344a1.152,1.152,0,1,0,2.304,0,1.152,1.152,0,1,0,-2.304,0z" stroke="white" fill="white"/>
    <circle id="connector2pad" cx="13.248" stroke-width="1.44" r="1.512" stroke="white" cy="3.744" connectorname="3" fill="white"/>
    <path stroke-width="0.72" d="m13.248,0a1.872,1.872,0,0,1,1.872,1.872l0,3.744a1.872,1.872,0,0,1,-1.872,1.872l0,0a1.872,1.872,0,0,1,-1.872,-1.872l0,-3.744a1.872,1.872,0,0,1,1.872,-1.872l0,0zM12.096,3.744a1.152,1.152,0,1,0,2.304,0,1.152,1.152,0,1,0,-2.304,0z" stroke="white" fill="white"/>
    <circle id="connector3pad" cx="6.048" stroke-width="1.44" r="1.512" stroke="white" cy="3.744" connectorname="4" fill="white"/>
    <path stroke-width="0.72" d="m6.048,0a1.872,1.872,0,0,1,1.872,1.872l0,3.744a1.872,1.872,0,0,1,-1.872,1.872l0,0a1.872,1.872,0,0,1,-1.872,-1.872l0,-3.744a1.872,1.872,0,0,1,1.872,-1.872l0,0zM4.896,3.744a1.152,1.152,0,1,0,2.304,0,1.152,1.152,0,1,0,-2.304,0z" stroke="white" fill="white"/>
   </g>
  </g>
 </g>
 <g partID="62070">
  <g transform="translate(189.259,204.376)">
   <g id="copper0">
    <circle id="connector0pad" cx="6.048" stroke-width="1.44" r="1.512" stroke="white" cy="25.344" connectorname="1" fill="white"/>
    <path stroke-width="0.72" d="m6.048,21.6a1.872,1.872,0,0,1,1.872,1.872l0,3.744a1.872,1.872,0,0,1,-1.872,1.872l0,0a1.872,1.872,0,0,1,-1.872,-1.872l0,-3.744a1.872,1.872,0,0,1,1.872,-1.872l0,0zM4.896,25.344a1.152,1.152,0,1,0,2.304,0,1.152,1.152,0,1,0,-2.304,0z" stroke="white" fill="white"/>
    <circle id="connector1pad" cx="13.248" stroke-width="1.44" r="1.512" stroke="white" cy="25.344" connectorname="2" fill="white"/>
    <path stroke-width="0.72" d="m13.248,21.6a1.872,1.872,0,0,1,1.872,1.872l0,3.744a1.872,1.872,0,0,1,-1.872,1.872l0,0a1.872,1.872,0,0,1,-1.872,-1.872l0,-3.744a1.872,1.872,0,0,1,1.872,-1.872l0,0zM12.096,25.344a1.152,1.152,0,1,0,2.304,0,1.152,1.152,0,1,0,-2.304,0z" stroke="white" fill="white"/>
    <circle id="connector2pad" cx="13.248" stroke-width="1.44" r="1.512" stroke="white" cy="3.744" connectorname="3" fill="white"/>
    <path stroke-width="0.72" d="m13.248,0a1.872,1.872,0,0,1,1.872,1.872l0,3.744a1.872,1.872,0,0,1,-1.872,1.872l0,0a1.872,1.872,0,0,1,-1.872,-1.872l0,-3.744a1.872,1.872,0,0,1,1.872,-1.872l0,0zM12.096,3.744a1.152,1.152,0,1,0,2.304,0,1.152,1.152,0,1,0,-2.304,0z" stroke="white" fill="white"/>
    <circle id="connector3pad" cx="6.048" stroke-width="1.44" r="1.512" stroke="white" cy="3.744" connectorname="4" fill="white"/>
    <path stroke-width="0.72" d="m6.048,0a1.872,1.872,0,0,1,1.872,1.872l0,3.744a1.872,1.872,0,0,1,-1.872,1.872l0,0a1.872,1.872,0,0,1,-1.872,-1.872l0,-3.744a1.872,1.872,0,0,1,1.872,-1.872l0,0zM4.896,3.744a1.152,1.152,0,1,0,2.304,0,1.152,1.152,0,1,0,-2.304,0z" stroke="white" fill="white"/>
   </g>
  </g>
 </g>
 <g partID="63770">
  <g transform="translate(227.707,197.32)">
   <g id="copper0">
    <circle id="connector16pad" cx="3.6" stroke-width="1.944" r="1.908" stroke="white" cy="10.8" fill="white"/>
    <rect width="3.813" stroke-width="1.944" x="1.692" stroke="white" y="8.892" fill="white" height="3.816"/>
    <circle id="connector17pad" cx="3.6" stroke-width="1.944" r="1.908" stroke="white" cy="18" fill="white"/>
    <circle id="connector18pad" cx="3.6" stroke-width="1.944" r="1.908" stroke="white" cy="25.2" fill="white"/>
    <circle id="connector19pad" cx="3.6" stroke-width="1.944" r="1.908" stroke="white" cy="32.4" fill="white"/>
    <circle id="connector20pad" cx="3.6" stroke-width="1.944" r="1.908" stroke="white" cy="39.6" fill="white"/>
    <circle id="connector21pad" cx="3.6" stroke-width="1.944" r="1.908" stroke="white" cy="46.8" fill="white"/>
    <circle id="connector22pad" cx="3.6" stroke-width="1.944" r="1.908" stroke="white" cy="54" fill="white"/>
    <circle id="connector23pad" cx="3.6" stroke-width="1.944" r="1.908" stroke="white" cy="61.2" fill="white"/>
    <circle id="connector24pad" cx="3.6" stroke-width="1.944" r="1.908" stroke="white" cy="68.4" fill="white"/>
    <circle id="connector25pad" cx="3.6" stroke-width="1.944" r="1.908" stroke="white" cy="75.6" fill="white"/>
    <circle id="connector26pad" cx="3.6" stroke-width="1.944" r="1.908" stroke="white" cy="82.8" fill="white"/>
    <circle id="connector27pad" cx="3.6" stroke-width="1.944" r="1.908" stroke="white" cy="90" fill="white"/>
    <circle id="connector28pad" cx="3.6" stroke-width="1.944" r="1.908" stroke="white" cy="97.2" fill="white"/>
    <circle id="connector29pad" cx="3.6" stroke-width="1.944" r="1.908" stroke="white" cy="104.4" fill="white"/>
    <circle id="connector30pad" cx="3.6" stroke-width="1.944" r="1.908" stroke="white" cy="111.6" fill="white"/>
    <circle id="connector31pad" cx="46.8" stroke-width="1.944" r="1.908" stroke="white" cy="10.8" fill="white"/>
    <circle id="connector32pad" cx="46.8" stroke-width="1.944" r="1.908" stroke="white" cy="18" fill="white"/>
    <circle id="connector33pad" cx="46.8" stroke-width="1.944" r="1.908" stroke="white" cy="25.2" fill="white"/>
    <circle id="connector34pad" cx="46.8" stroke-width="1.944" r="1.908" stroke="white" cy="32.4" fill="white"/>
    <circle id="connector35pad" cx="46.8" stroke-width="1.944" r="1.908" stroke="white" cy="39.6" fill="white"/>
    <circle id="connector36pad" cx="46.8" stroke-width="1.944" r="1.908" stroke="white" cy="46.8" fill="white"/>
    <circle id="connector37pad" cx="46.8" stroke-width="1.944" r="1.908" stroke="white" cy="54" fill="white"/>
    <circle id="connector38pad" cx="46.8" stroke-width="1.944" r="1.908" stroke="white" cy="61.2" fill="white"/>
    <circle id="connector39pad" cx="46.8" stroke-width="1.944" r="1.908" stroke="white" cy="68.4" fill="white"/>
    <circle id="connector40pad" cx="46.8" stroke-width="1.944" r="1.908" stroke="white" cy="75.6" fill="white"/>
    <circle id="connector41pad" cx="46.8" stroke-width="1.944" r="1.908" stroke="white" cy="82.8" fill="white"/>
    <circle id="connector42pad" cx="46.8" stroke-width="1.944" r="1.908" stroke="white" cy="90" fill="white"/>
    <circle id="connector43pad" cx="46.8" stroke-width="1.944" r="1.908" stroke="white" cy="97.2" fill="white"/>
    <circle id="connector44pad" cx="46.8" stroke-width="1.944" r="1.908" stroke="white" cy="104.4" fill="white"/>
    <circle id="connector45pad" cx="46.8" stroke-width="1.944" r="1.908" stroke="white" cy="111.6" fill="white"/>
    <circle id="connector59pad" cx="18.017" stroke-width="1.944" r="1.908" stroke="white" cy="3.917" fill="white"/>
    <circle id="connector60pad" cx="18.017" stroke-width="1.944" r="1.908" stroke="white" cy="11.116" fill="white"/>
    <circle id="connector57pad" cx="25.22" stroke-width="1.944" r="1.908" stroke="white" cy="3.917" fill="white"/>
    <circle id="connector58pad" cx="25.22" stroke-width="1.944" r="1.908" stroke="white" cy="11.116" fill="white"/>
    <circle id="connector55pad" cx="32.433" stroke-width="1.944" r="1.908" stroke="white" cy="3.917" fill="white"/>
    <circle id="connector56pad" cx="32.433" stroke-width="1.944" r="1.908" stroke="white" cy="11.116" fill="white"/>
   </g>
  </g>
 </g>
 <g partID="854100340">
  <g transform="translate(173.737,116.963)">
   <g transform="matrix(-1,0,0,-1,0,0)">
    <g id="copper0">
     <circle id="connector6pin" cx="157.384" stroke-width="2.16" r="2.088" stroke="white" cy="31.2382" gorn="0.3.0.0" connectorname="MOSI" fill="white"/>
     <circle id="connector2pin" cx="157.384" stroke-width="2.16" r="2.088" stroke="white" cy="60.0382" gorn="0.3.0.1" connectorname="RESET" fill="white"/>
     <circle id="connector8pin" cx="7.23006" stroke-width="2.16" r="2.088" stroke="white" cy="60.0435" gorn="0.3.0.2" connectorname="MISO" fill="white"/>
     <circle id="connector4pin" cx="157.384" stroke-width="2.16" r="2.088" stroke="white" cy="45.6383" gorn="0.3.0.3" connectorname="CARDCS" fill="white"/>
     <circle id="connector0pin" cx="157.384" stroke-width="2.16" r="2.088" stroke="white" cy="74.4382" gorn="0.3.0.4" connectorname="GND" fill="white"/>
     <circle id="connector9pin" cx="7.23006" stroke-width="2.16" r="2.088" stroke="white" cy="52.8435" gorn="0.3.0.5" connectorname="LITE" fill="white"/>
     <circle id="connector7pin" cx="157.384" stroke-width="2.16" r="2.088" stroke="white" cy="24.0382" gorn="0.3.0.6" connectorname="SCLK" fill="white"/>
     <circle id="connector5pin" cx="157.384" stroke-width="2.16" r="2.088" stroke="white" cy="38.4382" gorn="0.3.0.7" connectorname="TFTCS" fill="white"/>
     <circle id="connector3pin" cx="157.384" stroke-width="2.16" r="2.088" stroke="white" cy="52.8383" gorn="0.3.0.8" connectorname="TFTDC" fill="white"/>
     <circle id="connector1pin" cx="157.384" stroke-width="2.16" r="2.088" stroke="white" cy="67.2382" gorn="0.3.0.9" connectorname="+5V" fill="white"/>
     <circle id="connector10pin" cx="7.23006" stroke-width="2.16" r="2.088" stroke="white" cy="45.6435" connectorname="LITE" gorn="0.3.0.5" fill="white"/>
     <circle id="connector11pin" cx="7.23006" stroke-width="2.16" r="2.088" stroke="white" cy="38.4446" gorn="0.3.0.5" connectorname="LITE" fill="white"/>
     <circle id="nonconn1" cx="8.62521" stroke-width="0" r="4.53543" cy="8.64716" connectorname="LITE" gorn="0.3.0.5"/>
     <circle id="nonconn2" cx="8.62521" stroke-width="0" r="4.53543" cy="88.0563" gorn="0.3.0.5" connectorname="LITE"/>
     <circle id="nonconn3" cx="155.94" stroke-width="0" r="4.53543" cy="8.57744" gorn="0.3.0.5" connectorname="LITE"/>
     <circle id="nonconn4" cx="155.94" stroke-width="0" r="4.53543" cy="88.0563" connectorname="LITE" gorn="0.3.0.5"/>
    </g>
   </g>
  </g>
 </g>
 <g partID="854396920">
  <g transform="translate(286.207,97.0237)">
   <g id="copper0">
    <g id="copper1">
     <!-- <rect width="55" x="10" y="15.5" fill="none" height="55" stroke="rgb(255, 191, 0)" stroke-width="20" />  -->
     <circle id="connector0pin" cx="2.7" stroke-width="2.16" r="1.98" stroke="white" cy="3.096" fill="white"/>
     <circle id="connector1pin" cx="31.5" stroke-width="2.16" r="1.98" stroke="white" cy="3.096" fill="white"/>
    </g>
   </g>
  </g>
 </g>
 <g partID="854397060">
  <g transform="translate(286.207,147.424)">
   <g id="copper0">
    <g id="copper1">
     <!-- <rect width="55" x="10" y="15.5" fill="none" height="55" stroke="rgb(255, 191, 0)" stroke-width="20" />  -->
     <circle id="connector0pin" cx="2.7" stroke-width="2.16" r="1.98" stroke="white" cy="3.096" fill="white"/>
     <circle id="connector1pin" cx="31.5" stroke-width="2.16" r="1.98" stroke="white" cy="3.096" fill="white"/>
    </g>
   </g>
  </g>
 </g>
 <g partID="854397300">
  <g transform="translate(286.207,133.024)">
   <g id="copper0">
    <g id="copper1">
     <!-- <rect width="55" x="10" y="15.5" fill="none" height="55" stroke="rgb(255, 191, 0)" stroke-width="20" />  -->
     <circle id="connector0pin" cx="2.7" stroke-width="2.16" r="1.98" stroke="white" cy="3.096" fill="white"/>
     <circle id="connector1pin" cx="31.5" stroke-width="2.16" r="1.98" stroke="white" cy="3.096" fill="white"/>
    </g>
   </g>
  </g>
 </g>
 <g partID="854397460">
  <g transform="translate(286.207,89.8237)">
   <g id="copper0">
    <g id="copper1">
     <!-- <rect width="55" x="10" y="15.5" fill="none" height="55" stroke="rgb(255, 191, 0)" stroke-width="20" />  -->
     <circle id="connector0pin" cx="2.7" stroke-width="2.16" r="1.98" stroke="white" cy="3.096" fill="white"/>
     <circle id="connector1pin" cx="31.5" stroke-width="2.16" r="1.98" stroke="white" cy="3.096" fill="white"/>
    </g>
   </g>
  </g>
 </g>
 <g partID="854405010">
  <g transform="translate(290.438,288.227)">
   <g id="copper0">
    <circle id="connector2pad" cx="5.66929" stroke-width="2.13732" r="2.12598" stroke="white" cy="2.83465" connectorname="PWR" fill="white"/>
    <path stroke-width="0.72" d="m8.50393,0a2.83464,2.83465,0,0,1,2.83464,2.83465l0,0a2.83464,2.83465,0,0,1,-2.83464,2.83465l-5.66929,0a2.83464,2.83465,0,0,1,-2.83464,-2.83465l0,0a2.83464,2.83465,0,0,1,2.83464,-2.83465l5.66929,0zM4.25197,2.83465a1.41732,1.41732,0,1,0,2.83464,0,1.41732,1.41732,0,1,0,-2.83464,0z" stroke="white" fill="white"/>
    <circle id="connector0pad" cx="5.66929" stroke-width="2.13732" r="2.12598" stroke="white" cy="20.6929" connectorname="GND@1" fill="white"/>
    <path stroke-width="0.72" d="m8.50393,17.8583a2.83464,2.83465,0,0,1,2.83464,2.83465l0,0a2.83464,2.83465,0,0,1,-2.83464,2.83465l-5.66929,0a2.83464,2.83465,0,0,1,-2.83464,-2.83465l0,0a2.83464,2.83465,0,0,1,2.83464,-2.83465l5.66929,0zM4.25197,20.6929a1.41732,1.41732,0,1,0,2.83464,0,1.41732,1.41732,0,1,0,-2.83464,0z" stroke="white" fill="white"/>
    <circle id="connector1pad" cx="19.8425" stroke-width="2.13732" r="2.12598" stroke="white" cy="11.3386" connectorname="GND@2" fill="white"/>
    <path stroke-width="0.72" d="m19.8425,5.66929a2.83464,2.83465,0,0,1,2.83464,2.83465l0,5.66929a2.83464,2.83465,0,0,1,-2.83464,2.83465l0,0a2.83464,2.83465,0,0,1,-2.83464,-2.83465l0,-5.66929a2.83464,2.83465,0,0,1,2.83464,-2.83465l0,0zM18.4252,11.3386a1.41732,1.41732,0,1,0,2.83464,0,1.41732,1.41732,0,1,0,-2.83464,0z" stroke="white" fill="white"/>
   </g>
  </g>
 </g>
 <g partID="854405960">
  <g transform="translate(307.49,248.302)">
   <g id="copper0">
    <circle id="connector0pin" cx="3.01733" stroke-width="1.57039" r="0.992124" stroke="white" cy="3.01733" fill="white"/>
   </g>
  </g>
 </g>
</svg>
