<?xml version='1.0' encoding='UTF-8' standalone='no'?>
<!-- Created with Fritzing (https://fritzing.org/) -->
<svg xmlns="http://www.w3.org/2000/svg" baseProfile="tiny" width="4.52756in" xmlns:svg="http://www.w3.org/2000/svg" version="1.2" viewBox="0 0 325.984 325.984" y="0in" height="4.52756in" x="0in" >
 <g partID="57830">
  <g id="board" >
   <rect width="325.409" id="boardoutline" y="0.288" fill="none" stroke="black" height="325.409" stroke-width="0.5" x="0.288"  fill-opacity="0.5"/>
  </g>
 </g>
 <g partID="854397060">
  <g transform="translate(286.207,147.424)">
   <g id="copper0" >
    <g id="copper1" >
     <!-- <rect width="55" x="10" y="15.5" fill="none" height="55" stroke="rgb(255, 191, 0)" stroke-width="20" />  -->
     <circle id="connector0pin" fill="black" stroke="black" cy="3.096" cx="2.7" r="1.98" stroke-width="2.16" />
     <circle id="connector1pin" fill="black" stroke="black" cy="3.096" cx="31.5" r="1.98" stroke-width="2.16" />
    </g>
   </g>
  </g>
 </g>
 <g partID="854396920">
  <g transform="translate(286.207,97.0237)">
   <g id="copper0" >
    <g id="copper1" >
     <!-- <rect width="55" x="10" y="15.5" fill="none" height="55" stroke="rgb(255, 191, 0)" stroke-width="20" />  -->
     <circle id="connector0pin" fill="black" stroke="black" cy="3.096" cx="2.7" r="1.98" stroke-width="2.16" />
     <circle id="connector1pin" fill="black" stroke="black" cy="3.096" cx="31.5" r="1.98" stroke-width="2.16" />
    </g>
   </g>
  </g>
 </g>
 <g partID="854397460">
  <g transform="translate(286.207,89.8237)">
   <g id="copper0" >
    <g id="copper1" >
     <!-- <rect width="55" x="10" y="15.5" fill="none" height="55" stroke="rgb(255, 191, 0)" stroke-width="20" />  -->
     <circle id="connector0pin" fill="black" stroke="black" cy="3.096" cx="2.7" r="1.98" stroke-width="2.16" />
     <circle id="connector1pin" fill="black" stroke="black" cy="3.096" cx="31.5" r="1.98" stroke-width="2.16" />
    </g>
   </g>
  </g>
 </g>
 <g partID="854397300">
  <g transform="translate(286.207,133.024)">
   <g id="copper0" >
    <g id="copper1" >
     <!-- <rect width="55" x="10" y="15.5" fill="none" height="55" stroke="rgb(255, 191, 0)" stroke-width="20" />  -->
     <circle id="connector0pin" fill="black" stroke="black" cy="3.096" cx="2.7" r="1.98" stroke-width="2.16" />
     <circle id="connector1pin" fill="black" stroke="black" cy="3.096" cx="31.5" r="1.98" stroke-width="2.16" />
    </g>
   </g>
  </g>
 </g>
 <g partID="854405010">
  <g transform="translate(290.438,288.227)">
   <g id="copper0" >
    <circle id="connector2pad" fill="black" stroke="black" connectorname="PWR" cy="2.83465" cx="5.66929" r="2.12598" stroke-width="2.13732" />
    <path d="m8.50393,0a2.83464,2.83465,0,0,1,2.83464,2.83465l0,0a2.83464,2.83465,0,0,1,-2.83464,2.83465l-5.66929,0a2.83464,2.83465,0,0,1,-2.83464,-2.83465l0,0a2.83464,2.83465,0,0,1,2.83464,-2.83465l5.66929,0zM4.25197,2.83465a1.41732,1.41732,0,1,0,2.83464,0,1.41732,1.41732,0,1,0,-2.83464,0z" fill="black" stroke="black" stroke-width="0.72" />
    <circle id="connector0pad" fill="black" stroke="black" connectorname="GND@1" cy="20.6929" cx="5.66929" r="2.12598" stroke-width="2.13732" />
    <path d="m8.50393,17.8583a2.83464,2.83465,0,0,1,2.83464,2.83465l0,0a2.83464,2.83465,0,0,1,-2.83464,2.83465l-5.66929,0a2.83464,2.83465,0,0,1,-2.83464,-2.83465l0,0a2.83464,2.83465,0,0,1,2.83464,-2.83465l5.66929,0zM4.25197,20.6929a1.41732,1.41732,0,1,0,2.83464,0,1.41732,1.41732,0,1,0,-2.83464,0z" fill="black" stroke="black" stroke-width="0.72" />
    <circle id="connector1pad" fill="black" stroke="black" connectorname="GND@2" cy="11.3386" cx="19.8425" r="2.12598" stroke-width="2.13732" />
    <path d="m19.8425,5.66929a2.83464,2.83465,0,0,1,2.83464,2.83465l0,5.66929a2.83464,2.83465,0,0,1,-2.83464,2.83465l0,0a2.83464,2.83465,0,0,1,-2.83464,-2.83465l0,-5.66929a2.83464,2.83465,0,0,1,2.83464,-2.83465l0,0zM18.4252,11.3386a1.41732,1.41732,0,1,0,2.83464,0,1.41732,1.41732,0,1,0,-2.83464,0z" fill="black" stroke="black" stroke-width="0.72" />
   </g>
  </g>
 </g>
 <g partID="854405960">
  <g transform="translate(307.49,248.302)">
   <g id="copper0" >
    <circle id="connector0pin" fill="black" stroke="black" cy="3.01733" cx="3.01733" r="0.992124" stroke-width="1.57039" />
   </g>
  </g>
 </g>
 <g partID="854389810">
  <g transform="translate(285.89,61.1023)">
   <g id="copper0" >
    <circle id="connector0pin" fill="black" stroke="black" cy="3.01733" cx="3.01733" r="0.992124" stroke-width="1.57039" />
   </g>
  </g>
 </g>
 <g partID="854393770">
  <g transform="translate(278.69,176.302)">
   <g id="copper0" >
    <circle id="connector0pin" fill="black" stroke="black" cy="3.01733" cx="3.01733" r="0.992124" stroke-width="1.57039" />
   </g>
  </g>
 </g>
 <g partID="854323480">
  <g transform="translate(242.69,161.902)">
   <g id="copper0" >
    <circle id="connector0pin" fill="black" stroke="black" cy="3.01733" cx="3.01733" r="0.992124" stroke-width="1.57039" />
   </g>
  </g>
 </g>
 <g partID="854266210">
  <g transform="translate(300.29,183.502)">
   <g id="copper0" >
    <circle id="connector0pin" fill="black" stroke="black" cy="3.01733" cx="3.01733" r="0.992124" stroke-width="1.57039" />
   </g>
  </g>
 </g>
 <g partID="854269510">
  <g transform="translate(48.2895,75.5023)">
   <g id="copper0" >
    <circle id="connector0pin" fill="black" stroke="black" cy="3.01733" cx="3.01733" r="0.992124" stroke-width="1.57039" />
   </g>
  </g>
 </g>
 <g partID="854269720">
  <g transform="translate(242.69,125.902)">
   <g id="copper0" >
    <circle id="connector0pin" fill="black" stroke="black" cy="3.01733" cx="3.01733" r="0.992124" stroke-width="1.57039" />
   </g>
  </g>
 </g>
 <g partID="854269750">
  <g transform="translate(242.69,140.302)">
   <g id="copper0" >
    <circle id="connector0pin" fill="black" stroke="black" cy="3.01733" cx="3.01733" r="0.992124" stroke-width="1.57039" />
   </g>
  </g>
 </g>
 <g partID="854271800">
  <g transform="translate(312.989,1.80152)">
   <g id="copper0" >
    <circle id="nonconn0" fill="black" stroke="black" cy="4.71811" cx="4.71811" r="3.11811" stroke-width="0.72" />
   </g>
  </g>
 </g>
 <g partID="854271830">
  <g transform="translate(3.38896,1.80152)">
   <g id="copper0" >
    <circle id="nonconn0" fill="black" stroke="black" cy="4.71811" cx="4.71811" r="3.11811" stroke-width="0.72" />
   </g>
  </g>
 </g>
 <g partID="854271860">
  <g transform="translate(3.38896,311.401)">
   <g id="copper0" >
    <circle id="nonconn0" fill="black" stroke="black" cy="4.71811" cx="4.71811" r="3.11811" stroke-width="0.72" />
   </g>
  </g>
 </g>
 <g partID="854273620">
  <g transform="translate(312.989,311.401)">
   <g id="copper0" >
    <circle id="nonconn0" fill="black" stroke="black" cy="4.71811" cx="4.71811" r="3.11811" stroke-width="0.72" />
   </g>
  </g>
 </g>
 <g partID="854118600">
  <g transform="translate(8.86096,278.917)">
   <g id="copper0" >
    <circle id="connector0pad" fill="black" stroke="black" cy="15.6024" cx="20.8462" r="1.98" stroke-width="2.16" />
    <circle id="connector1pad" fill="black" stroke="black" cy="15.6024" cx="2.42064" r="1.98" stroke-width="2.16" />
    <circle id="connector2pad" fill="black" stroke="black" cy="2.84616" cx="20.8462" r="1.98" stroke-width="2.16" />
    <circle id="connector3pad" fill="black" stroke="black" cy="2.84616" cx="2.42064" r="1.98" stroke-width="2.16" />
   </g>
  </g>
 </g>
 <g partID="854118180">
  <g transform="translate(8.86096,250.117)">
   <g id="copper0" >
    <circle id="connector0pad" fill="black" stroke="black" cy="15.6024" cx="20.8462" r="1.98" stroke-width="2.16" />
    <circle id="connector1pad" fill="black" stroke="black" cy="15.6024" cx="2.42064" r="1.98" stroke-width="2.16" />
    <circle id="connector2pad" fill="black" stroke="black" cy="2.84616" cx="20.8462" r="1.98" stroke-width="2.16" />
    <circle id="connector3pad" fill="black" stroke="black" cy="2.84616" cx="2.42064" r="1.98" stroke-width="2.16" />
   </g>
  </g>
 </g>
 <g partID="854117760">
  <g transform="translate(8.86096,221.317)">
   <g id="copper0" >
    <circle id="connector0pad" fill="black" stroke="black" cy="15.6024" cx="20.8462" r="1.98" stroke-width="2.16" />
    <circle id="connector1pad" fill="black" stroke="black" cy="15.6024" cx="2.42064" r="1.98" stroke-width="2.16" />
    <circle id="connector2pad" fill="black" stroke="black" cy="2.84616" cx="20.8462" r="1.98" stroke-width="2.16" />
    <circle id="connector3pad" fill="black" stroke="black" cy="2.84616" cx="2.42064" r="1.98" stroke-width="2.16" />
   </g>
  </g>
 </g>
 <g partID="854117340">
  <g transform="translate(8.86096,192.517)">
   <g id="copper0" >
    <circle id="connector0pad" fill="black" stroke="black" cy="15.6024" cx="20.8462" r="1.98" stroke-width="2.16" />
    <circle id="connector1pad" fill="black" stroke="black" cy="15.6024" cx="2.42064" r="1.98" stroke-width="2.16" />
    <circle id="connector2pad" fill="black" stroke="black" cy="2.84616" cx="20.8462" r="1.98" stroke-width="2.16" />
    <circle id="connector3pad" fill="black" stroke="black" cy="2.84616" cx="2.42064" r="1.98" stroke-width="2.16" />
   </g>
  </g>
 </g>
 <g partID="854116920">
  <g transform="translate(8.86096,163.717)">
   <g id="copper0" >
    <circle id="connector0pad" fill="black" stroke="black" cy="15.6024" cx="20.8462" r="1.98" stroke-width="2.16" />
    <circle id="connector1pad" fill="black" stroke="black" cy="15.6024" cx="2.42064" r="1.98" stroke-width="2.16" />
    <circle id="connector2pad" fill="black" stroke="black" cy="2.84616" cx="20.8462" r="1.98" stroke-width="2.16" />
    <circle id="connector3pad" fill="black" stroke="black" cy="2.84616" cx="2.42064" r="1.98" stroke-width="2.16" />
   </g>
  </g>
 </g>
 <g partID="854115960">
  <g transform="translate(8.86096,134.917)">
   <g id="copper0" >
    <circle id="connector0pad" fill="black" stroke="black" cy="15.6024" cx="20.8462" r="1.98" stroke-width="2.16" />
    <circle id="connector1pad" fill="black" stroke="black" cy="15.6024" cx="2.42064" r="1.98" stroke-width="2.16" />
    <circle id="connector2pad" fill="black" stroke="black" cy="2.84616" cx="20.8462" r="1.98" stroke-width="2.16" />
    <circle id="connector3pad" fill="black" stroke="black" cy="2.84616" cx="2.42064" r="1.98" stroke-width="2.16" />
   </g>
  </g>
 </g>
 <g partID="854118610">
  <g transform="translate(37.6607,278.917)">
   <g id="copper0" >
    <circle id="connector0pad" fill="black" stroke="black" cy="15.6024" cx="20.8462" r="1.98" stroke-width="2.16" />
    <circle id="connector1pad" fill="black" stroke="black" cy="15.6024" cx="2.42064" r="1.98" stroke-width="2.16" />
    <circle id="connector2pad" fill="black" stroke="black" cy="2.84616" cx="20.8462" r="1.98" stroke-width="2.16" />
    <circle id="connector3pad" fill="black" stroke="black" cy="2.84616" cx="2.42064" r="1.98" stroke-width="2.16" />
   </g>
  </g>
 </g>
 <g partID="854118190">
  <g transform="translate(37.6607,250.117)">
   <g id="copper0" >
    <circle id="connector0pad" fill="black" stroke="black" cy="15.6024" cx="20.8462" r="1.98" stroke-width="2.16" />
    <circle id="connector1pad" fill="black" stroke="black" cy="15.6024" cx="2.42064" r="1.98" stroke-width="2.16" />
    <circle id="connector2pad" fill="black" stroke="black" cy="2.84616" cx="20.8462" r="1.98" stroke-width="2.16" />
    <circle id="connector3pad" fill="black" stroke="black" cy="2.84616" cx="2.42064" r="1.98" stroke-width="2.16" />
   </g>
  </g>
 </g>
 <g partID="854117770">
  <g transform="translate(37.6607,221.317)">
   <g id="copper0" >
    <circle id="connector0pad" fill="black" stroke="black" cy="15.6024" cx="20.8462" r="1.98" stroke-width="2.16" />
    <circle id="connector1pad" fill="black" stroke="black" cy="15.6024" cx="2.42064" r="1.98" stroke-width="2.16" />
    <circle id="connector2pad" fill="black" stroke="black" cy="2.84616" cx="20.8462" r="1.98" stroke-width="2.16" />
    <circle id="connector3pad" fill="black" stroke="black" cy="2.84616" cx="2.42064" r="1.98" stroke-width="2.16" />
   </g>
  </g>
 </g>
 <g partID="854117350">
  <g transform="translate(37.6607,192.517)">
   <g id="copper0" >
    <circle id="connector0pad" fill="black" stroke="black" cy="15.6024" cx="20.8462" r="1.98" stroke-width="2.16" />
    <circle id="connector1pad" fill="black" stroke="black" cy="15.6024" cx="2.42064" r="1.98" stroke-width="2.16" />
    <circle id="connector2pad" fill="black" stroke="black" cy="2.84616" cx="20.8462" r="1.98" stroke-width="2.16" />
    <circle id="connector3pad" fill="black" stroke="black" cy="2.84616" cx="2.42064" r="1.98" stroke-width="2.16" />
   </g>
  </g>
 </g>
 <g partID="854116930">
  <g transform="translate(37.6607,163.717)">
   <g id="copper0" >
    <circle id="connector0pad" fill="black" stroke="black" cy="15.6024" cx="20.8462" r="1.98" stroke-width="2.16" />
    <circle id="connector1pad" fill="black" stroke="black" cy="15.6024" cx="2.42064" r="1.98" stroke-width="2.16" />
    <circle id="connector2pad" fill="black" stroke="black" cy="2.84616" cx="20.8462" r="1.98" stroke-width="2.16" />
    <circle id="connector3pad" fill="black" stroke="black" cy="2.84616" cx="2.42064" r="1.98" stroke-width="2.16" />
   </g>
  </g>
 </g>
 <g partID="854115990">
  <g transform="translate(37.6607,134.917)">
   <g id="copper0" >
    <circle id="connector0pad" fill="black" stroke="black" cy="15.6024" cx="20.8462" r="1.98" stroke-width="2.16" />
    <circle id="connector1pad" fill="black" stroke="black" cy="15.6024" cx="2.42064" r="1.98" stroke-width="2.16" />
    <circle id="connector2pad" fill="black" stroke="black" cy="2.84616" cx="20.8462" r="1.98" stroke-width="2.16" />
    <circle id="connector3pad" fill="black" stroke="black" cy="2.84616" cx="2.42064" r="1.98" stroke-width="2.16" />
   </g>
  </g>
 </g>
 <g partID="854118620">
  <g transform="translate(66.4607,278.917)">
   <g id="copper0" >
    <circle id="connector0pad" fill="black" stroke="black" cy="15.6024" cx="20.8462" r="1.98" stroke-width="2.16" />
    <circle id="connector1pad" fill="black" stroke="black" cy="15.6024" cx="2.42064" r="1.98" stroke-width="2.16" />
    <circle id="connector2pad" fill="black" stroke="black" cy="2.84616" cx="20.8462" r="1.98" stroke-width="2.16" />
    <circle id="connector3pad" fill="black" stroke="black" cy="2.84616" cx="2.42064" r="1.98" stroke-width="2.16" />
   </g>
  </g>
 </g>
 <g partID="854118200">
  <g transform="translate(66.4607,250.117)">
   <g id="copper0" >
    <circle id="connector0pad" fill="black" stroke="black" cy="15.6024" cx="20.8462" r="1.98" stroke-width="2.16" />
    <circle id="connector1pad" fill="black" stroke="black" cy="15.6024" cx="2.42064" r="1.98" stroke-width="2.16" />
    <circle id="connector2pad" fill="black" stroke="black" cy="2.84616" cx="20.8462" r="1.98" stroke-width="2.16" />
    <circle id="connector3pad" fill="black" stroke="black" cy="2.84616" cx="2.42064" r="1.98" stroke-width="2.16" />
   </g>
  </g>
 </g>
 <g partID="854117780">
  <g transform="translate(66.4607,221.317)">
   <g id="copper0" >
    <circle id="connector0pad" fill="black" stroke="black" cy="15.6024" cx="20.8462" r="1.98" stroke-width="2.16" />
    <circle id="connector1pad" fill="black" stroke="black" cy="15.6024" cx="2.42064" r="1.98" stroke-width="2.16" />
    <circle id="connector2pad" fill="black" stroke="black" cy="2.84616" cx="20.8462" r="1.98" stroke-width="2.16" />
    <circle id="connector3pad" fill="black" stroke="black" cy="2.84616" cx="2.42064" r="1.98" stroke-width="2.16" />
   </g>
  </g>
 </g>
 <g partID="854117360">
  <g transform="translate(66.4607,192.517)">
   <g id="copper0" >
    <circle id="connector0pad" fill="black" stroke="black" cy="15.6024" cx="20.8462" r="1.98" stroke-width="2.16" />
    <circle id="connector1pad" fill="black" stroke="black" cy="15.6024" cx="2.42064" r="1.98" stroke-width="2.16" />
    <circle id="connector2pad" fill="black" stroke="black" cy="2.84616" cx="20.8462" r="1.98" stroke-width="2.16" />
    <circle id="connector3pad" fill="black" stroke="black" cy="2.84616" cx="2.42064" r="1.98" stroke-width="2.16" />
   </g>
  </g>
 </g>
 <g partID="854116940">
  <g transform="translate(66.4607,163.717)">
   <g id="copper0" >
    <circle id="connector0pad" fill="black" stroke="black" cy="15.6024" cx="20.8462" r="1.98" stroke-width="2.16" />
    <circle id="connector1pad" fill="black" stroke="black" cy="15.6024" cx="2.42064" r="1.98" stroke-width="2.16" />
    <circle id="connector2pad" fill="black" stroke="black" cy="2.84616" cx="20.8462" r="1.98" stroke-width="2.16" />
    <circle id="connector3pad" fill="black" stroke="black" cy="2.84616" cx="2.42064" r="1.98" stroke-width="2.16" />
   </g>
  </g>
 </g>
 <g partID="854116020">
  <g transform="translate(66.4607,134.917)">
   <g id="copper0" >
    <circle id="connector0pad" fill="black" stroke="black" cy="15.6024" cx="20.8462" r="1.98" stroke-width="2.16" />
    <circle id="connector1pad" fill="black" stroke="black" cy="15.6024" cx="2.42064" r="1.98" stroke-width="2.16" />
    <circle id="connector2pad" fill="black" stroke="black" cy="2.84616" cx="20.8462" r="1.98" stroke-width="2.16" />
    <circle id="connector3pad" fill="black" stroke="black" cy="2.84616" cx="2.42064" r="1.98" stroke-width="2.16" />
   </g>
  </g>
 </g>
 <g partID="854118630">
  <g transform="translate(95.2607,278.917)">
   <g id="copper0" >
    <circle id="connector0pad" fill="black" stroke="black" cy="15.6024" cx="20.8462" r="1.98" stroke-width="2.16" />
    <circle id="connector1pad" fill="black" stroke="black" cy="15.6024" cx="2.42064" r="1.98" stroke-width="2.16" />
    <circle id="connector2pad" fill="black" stroke="black" cy="2.84616" cx="20.8462" r="1.98" stroke-width="2.16" />
    <circle id="connector3pad" fill="black" stroke="black" cy="2.84616" cx="2.42064" r="1.98" stroke-width="2.16" />
   </g>
  </g>
 </g>
 <g partID="854118210">
  <g transform="translate(95.2607,250.117)">
   <g id="copper0" >
    <circle id="connector0pad" fill="black" stroke="black" cy="15.6024" cx="20.8462" r="1.98" stroke-width="2.16" />
    <circle id="connector1pad" fill="black" stroke="black" cy="15.6024" cx="2.42064" r="1.98" stroke-width="2.16" />
    <circle id="connector2pad" fill="black" stroke="black" cy="2.84616" cx="20.8462" r="1.98" stroke-width="2.16" />
    <circle id="connector3pad" fill="black" stroke="black" cy="2.84616" cx="2.42064" r="1.98" stroke-width="2.16" />
   </g>
  </g>
 </g>
 <g partID="854117790">
  <g transform="translate(95.2607,221.317)">
   <g id="copper0" >
    <circle id="connector0pad" fill="black" stroke="black" cy="15.6024" cx="20.8462" r="1.98" stroke-width="2.16" />
    <circle id="connector1pad" fill="black" stroke="black" cy="15.6024" cx="2.42064" r="1.98" stroke-width="2.16" />
    <circle id="connector2pad" fill="black" stroke="black" cy="2.84616" cx="20.8462" r="1.98" stroke-width="2.16" />
    <circle id="connector3pad" fill="black" stroke="black" cy="2.84616" cx="2.42064" r="1.98" stroke-width="2.16" />
   </g>
  </g>
 </g>
 <g partID="854117370">
  <g transform="translate(95.2607,192.517)">
   <g id="copper0" >
    <circle id="connector0pad" fill="black" stroke="black" cy="15.6024" cx="20.8462" r="1.98" stroke-width="2.16" />
    <circle id="connector1pad" fill="black" stroke="black" cy="15.6024" cx="2.42064" r="1.98" stroke-width="2.16" />
    <circle id="connector2pad" fill="black" stroke="black" cy="2.84616" cx="20.8462" r="1.98" stroke-width="2.16" />
    <circle id="connector3pad" fill="black" stroke="black" cy="2.84616" cx="2.42064" r="1.98" stroke-width="2.16" />
   </g>
  </g>
 </g>
 <g partID="854116950">
  <g transform="translate(95.2607,163.717)">
   <g id="copper0" >
    <circle id="connector0pad" fill="black" stroke="black" cy="15.6024" cx="20.8462" r="1.98" stroke-width="2.16" />
    <circle id="connector1pad" fill="black" stroke="black" cy="15.6024" cx="2.42064" r="1.98" stroke-width="2.16" />
    <circle id="connector2pad" fill="black" stroke="black" cy="2.84616" cx="20.8462" r="1.98" stroke-width="2.16" />
    <circle id="connector3pad" fill="black" stroke="black" cy="2.84616" cx="2.42064" r="1.98" stroke-width="2.16" />
   </g>
  </g>
 </g>
 <g partID="854116050">
  <g transform="translate(95.2607,134.917)">
   <g id="copper0" >
    <circle id="connector0pad" fill="black" stroke="black" cy="15.6024" cx="20.8462" r="1.98" stroke-width="2.16" />
    <circle id="connector1pad" fill="black" stroke="black" cy="15.6024" cx="2.42064" r="1.98" stroke-width="2.16" />
    <circle id="connector2pad" fill="black" stroke="black" cy="2.84616" cx="20.8462" r="1.98" stroke-width="2.16" />
    <circle id="connector3pad" fill="black" stroke="black" cy="2.84616" cx="2.42064" r="1.98" stroke-width="2.16" />
   </g>
  </g>
 </g>
 <g partID="854118640">
  <g transform="translate(124.061,278.917)">
   <g id="copper0" >
    <circle id="connector0pad" fill="black" stroke="black" cy="15.6024" cx="20.8462" r="1.98" stroke-width="2.16" />
    <circle id="connector1pad" fill="black" stroke="black" cy="15.6024" cx="2.42064" r="1.98" stroke-width="2.16" />
    <circle id="connector2pad" fill="black" stroke="black" cy="2.84616" cx="20.8462" r="1.98" stroke-width="2.16" />
    <circle id="connector3pad" fill="black" stroke="black" cy="2.84616" cx="2.42064" r="1.98" stroke-width="2.16" />
   </g>
  </g>
 </g>
 <g partID="854118220">
  <g transform="translate(124.061,250.117)">
   <g id="copper0" >
    <circle id="connector0pad" fill="black" stroke="black" cy="15.6024" cx="20.8462" r="1.98" stroke-width="2.16" />
    <circle id="connector1pad" fill="black" stroke="black" cy="15.6024" cx="2.42064" r="1.98" stroke-width="2.16" />
    <circle id="connector2pad" fill="black" stroke="black" cy="2.84616" cx="20.8462" r="1.98" stroke-width="2.16" />
    <circle id="connector3pad" fill="black" stroke="black" cy="2.84616" cx="2.42064" r="1.98" stroke-width="2.16" />
   </g>
  </g>
 </g>
 <g partID="854117800">
  <g transform="translate(124.061,221.317)">
   <g id="copper0" >
    <circle id="connector0pad" fill="black" stroke="black" cy="15.6024" cx="20.8462" r="1.98" stroke-width="2.16" />
    <circle id="connector1pad" fill="black" stroke="black" cy="15.6024" cx="2.42064" r="1.98" stroke-width="2.16" />
    <circle id="connector2pad" fill="black" stroke="black" cy="2.84616" cx="20.8462" r="1.98" stroke-width="2.16" />
    <circle id="connector3pad" fill="black" stroke="black" cy="2.84616" cx="2.42064" r="1.98" stroke-width="2.16" />
   </g>
  </g>
 </g>
 <g partID="854117380">
  <g transform="translate(124.061,192.517)">
   <g id="copper0" >
    <circle id="connector0pad" fill="black" stroke="black" cy="15.6024" cx="20.8462" r="1.98" stroke-width="2.16" />
    <circle id="connector1pad" fill="black" stroke="black" cy="15.6024" cx="2.42064" r="1.98" stroke-width="2.16" />
    <circle id="connector2pad" fill="black" stroke="black" cy="2.84616" cx="20.8462" r="1.98" stroke-width="2.16" />
    <circle id="connector3pad" fill="black" stroke="black" cy="2.84616" cx="2.42064" r="1.98" stroke-width="2.16" />
   </g>
  </g>
 </g>
 <g partID="854116960">
  <g transform="translate(124.061,163.717)">
   <g id="copper0" >
    <circle id="connector0pad" fill="black" stroke="black" cy="15.6024" cx="20.8462" r="1.98" stroke-width="2.16" />
    <circle id="connector1pad" fill="black" stroke="black" cy="15.6024" cx="2.42064" r="1.98" stroke-width="2.16" />
    <circle id="connector2pad" fill="black" stroke="black" cy="2.84616" cx="20.8462" r="1.98" stroke-width="2.16" />
    <circle id="connector3pad" fill="black" stroke="black" cy="2.84616" cx="2.42064" r="1.98" stroke-width="2.16" />
   </g>
  </g>
 </g>
 <g partID="854116080">
  <g transform="translate(124.061,134.917)">
   <g id="copper0" >
    <circle id="connector0pad" fill="black" stroke="black" cy="15.6024" cx="20.8462" r="1.98" stroke-width="2.16" />
    <circle id="connector1pad" fill="black" stroke="black" cy="15.6024" cx="2.42064" r="1.98" stroke-width="2.16" />
    <circle id="connector2pad" fill="black" stroke="black" cy="2.84616" cx="20.8462" r="1.98" stroke-width="2.16" />
    <circle id="connector3pad" fill="black" stroke="black" cy="2.84616" cx="2.42064" r="1.98" stroke-width="2.16" />
   </g>
  </g>
 </g>
 <g partID="854118650">
  <g transform="translate(152.861,278.917)">
   <g id="copper0" >
    <circle id="connector0pad" fill="black" stroke="black" cy="15.6024" cx="20.8462" r="1.98" stroke-width="2.16" />
    <circle id="connector1pad" fill="black" stroke="black" cy="15.6024" cx="2.42064" r="1.98" stroke-width="2.16" />
    <circle id="connector2pad" fill="black" stroke="black" cy="2.84616" cx="20.8462" r="1.98" stroke-width="2.16" />
    <circle id="connector3pad" fill="black" stroke="black" cy="2.84616" cx="2.42064" r="1.98" stroke-width="2.16" />
   </g>
  </g>
 </g>
 <g partID="854118230">
  <g transform="translate(152.861,250.117)">
   <g id="copper0" >
    <circle id="connector0pad" fill="black" stroke="black" cy="15.6024" cx="20.8462" r="1.98" stroke-width="2.16" />
    <circle id="connector1pad" fill="black" stroke="black" cy="15.6024" cx="2.42064" r="1.98" stroke-width="2.16" />
    <circle id="connector2pad" fill="black" stroke="black" cy="2.84616" cx="20.8462" r="1.98" stroke-width="2.16" />
    <circle id="connector3pad" fill="black" stroke="black" cy="2.84616" cx="2.42064" r="1.98" stroke-width="2.16" />
   </g>
  </g>
 </g>
 <g partID="854117810">
  <g transform="translate(152.861,221.317)">
   <g id="copper0" >
    <circle id="connector0pad" fill="black" stroke="black" cy="15.6024" cx="20.8462" r="1.98" stroke-width="2.16" />
    <circle id="connector1pad" fill="black" stroke="black" cy="15.6024" cx="2.42064" r="1.98" stroke-width="2.16" />
    <circle id="connector2pad" fill="black" stroke="black" cy="2.84616" cx="20.8462" r="1.98" stroke-width="2.16" />
    <circle id="connector3pad" fill="black" stroke="black" cy="2.84616" cx="2.42064" r="1.98" stroke-width="2.16" />
   </g>
  </g>
 </g>
 <g partID="854117390">
  <g transform="translate(152.861,192.517)">
   <g id="copper0" >
    <circle id="connector0pad" fill="black" stroke="black" cy="15.6024" cx="20.8462" r="1.98" stroke-width="2.16" />
    <circle id="connector1pad" fill="black" stroke="black" cy="15.6024" cx="2.42064" r="1.98" stroke-width="2.16" />
    <circle id="connector2pad" fill="black" stroke="black" cy="2.84616" cx="20.8462" r="1.98" stroke-width="2.16" />
    <circle id="connector3pad" fill="black" stroke="black" cy="2.84616" cx="2.42064" r="1.98" stroke-width="2.16" />
   </g>
  </g>
 </g>
 <g partID="854116970">
  <g transform="translate(152.861,163.717)">
   <g id="copper0" >
    <circle id="connector0pad" fill="black" stroke="black" cy="15.6024" cx="20.8462" r="1.98" stroke-width="2.16" />
    <circle id="connector1pad" fill="black" stroke="black" cy="15.6024" cx="2.42064" r="1.98" stroke-width="2.16" />
    <circle id="connector2pad" fill="black" stroke="black" cy="2.84616" cx="20.8462" r="1.98" stroke-width="2.16" />
    <circle id="connector3pad" fill="black" stroke="black" cy="2.84616" cx="2.42064" r="1.98" stroke-width="2.16" />
   </g>
  </g>
 </g>
 <g partID="854116110">
  <g transform="translate(152.861,134.917)">
   <g id="copper0" >
    <circle id="connector0pad" fill="black" stroke="black" cy="15.6024" cx="20.8462" r="1.98" stroke-width="2.16" />
    <circle id="connector1pad" fill="black" stroke="black" cy="15.6024" cx="2.42064" r="1.98" stroke-width="2.16" />
    <circle id="connector2pad" fill="black" stroke="black" cy="2.84616" cx="20.8462" r="1.98" stroke-width="2.16" />
    <circle id="connector3pad" fill="black" stroke="black" cy="2.84616" cx="2.42064" r="1.98" stroke-width="2.16" />
   </g>
  </g>
 </g>
 <g partID="59360">
  <g transform="translate(216.605,25.2294)">
   <g transform="matrix(1,0,0,1,0,0)">
    <g id="copper0" >
     <circle id="nonconn1" fill="black" stroke="black" cy="19.1675" cx="39.5497" r="2.088" stroke-width="0.72" />
     <circle id="nonconn2" fill="black" stroke="black" cy="19.1675" cx="25.8247" r="2.088" stroke-width="0.72" />
     <circle id="nonconn3" fill="black" stroke="black" cy="10.5425" cx="24.9997" r="2.52" stroke-width="0.72" />
     <circle id="nonconn4" fill="black" stroke="black" cy="10.5425" cx="40.4497" r="2.52" stroke-width="0.72" />
     <rect width="10.344" id="rect0" y="7.30777" fill="black" stroke="black" height="5.616" x="0" stroke-width="0.72" />
     <rect width="10.368" id="rect1" y="14.5078" fill="black" stroke="black" height="5.616" x="0.027" stroke-width="0.72" />
     <rect width="10.368" id="rect2" y="21.7078" fill="black" stroke="black" height="5.616" x="0.027" stroke-width="0.72" />
     <rect width="10.368" id="rect3" y="28.9078" fill="black" stroke="black" height="5.616" x="0" stroke-width="0.72" />
     <rect width="10.368" id="rect4" y="36.1078" fill="black" stroke="black" height="5.616" x="0.027" stroke-width="0.72" />
     <rect width="10.368" id="rect5" y="43.3078" fill="black" stroke="black" height="5.616" x="0.027" stroke-width="0.72" />
     <rect width="10.368" id="rect6" y="50.5078" fill="black" stroke="black" height="5.616" x="0.027" stroke-width="0.72" />
     <rect width="10.368" id="rect7" y="57.7078" fill="black" stroke="black" height="5.616" x="0.027" stroke-width="0.72" />
     <rect width="10.368" id="rect8" y="64.9078" fill="black" stroke="black" height="5.616" x="0.027" stroke-width="0.72" />
     <rect width="10.368" id="rect9" y="72.1078" fill="black" stroke="black" height="5.616" x="0.027" stroke-width="0.72" />
     <rect width="10.368" id="rect10" y="79.3078" fill="black" stroke="black" height="5.616" x="0.027" stroke-width="0.72" />
     <rect width="10.368" id="rect11" y="86.5078" fill="black" stroke="black" height="5.616" x="0.027" stroke-width="0.72" />
     <rect width="10.368" id="rect12" y="93.7078" fill="black" stroke="black" height="5.616" x="0.027" stroke-width="0.72" />
     <rect width="10.368" id="rect13" y="100.908" fill="black" stroke="black" height="5.616" x="0.027" stroke-width="0.72" />
     <rect width="10.368" id="rect14" y="108.108" fill="black" stroke="black" height="5.616" x="0.027" stroke-width="0.72" />
     <rect width="10.368" id="rect15" y="115.308" fill="black" stroke="black" height="5.616" x="0.027" stroke-width="0.72" />
     <rect width="10.368" id="rect16" y="122.508" fill="black" stroke="black" height="5.616" x="0.027" stroke-width="0.72" />
     <rect width="10.368" id="rect17" y="129.708" fill="black" stroke="black" height="5.616" x="0.027" stroke-width="0.72" />
     <rect width="10.368" id="rect18" y="136.908" fill="black" stroke="black" height="5.616" x="0.027" stroke-width="0.72" />
     <rect width="10.368" id="rect19" y="144.108" fill="black" stroke="black" height="5.616" x="0.027" stroke-width="0.72" />
     <rect width="10.368" id="rect20" y="144.108" fill="black" stroke="black" height="5.616" x="55.08" stroke-width="0.72" />
     <rect width="10.368" id="rect21" y="136.908" fill="black" stroke="black" height="5.616" x="55.08" stroke-width="0.72" />
     <rect width="10.368" id="rect22" y="129.708" fill="black" stroke="black" height="5.616" x="55.08" stroke-width="0.72" />
     <rect width="10.368" id="rect23" y="122.508" fill="black" stroke="black" height="5.616" x="55.08" stroke-width="0.72" />
     <rect width="10.368" id="rect24" y="115.308" fill="black" stroke="black" height="5.616" x="55.08" stroke-width="0.72" />
     <rect width="10.368" id="rect25" y="108.108" fill="black" stroke="black" height="5.616" x="55.08" stroke-width="0.72" />
     <rect width="10.368" id="rect26" y="100.908" fill="black" stroke="black" height="5.616" x="55.08" stroke-width="0.72" />
     <rect width="10.368" id="rect27" y="93.7078" fill="black" stroke="black" height="5.616" x="55.08" stroke-width="0.72" />
     <rect width="10.368" id="rect28" y="86.5078" fill="black" stroke="black" height="5.616" x="55.08" stroke-width="0.72" />
     <rect width="10.368" id="rect29" y="79.3078" fill="black" stroke="black" height="5.616" x="55.08" stroke-width="0.72" />
     <rect width="10.368" id="rect30" y="72.1078" fill="black" stroke="black" height="5.616" x="55.08" stroke-width="0.72" />
     <rect width="10.368" id="rect31" y="64.9078" fill="black" stroke="black" height="5.616" x="55.08" stroke-width="0.72" />
     <rect width="10.368" id="rect32" y="57.7078" fill="black" stroke="black" height="5.616" x="55.08" stroke-width="0.72" />
     <rect width="10.368" id="rect33" y="50.5078" fill="black" stroke="black" height="5.616" x="55.08" stroke-width="0.72" />
     <rect width="10.368" id="rect34" y="43.3078" fill="black" stroke="black" height="5.616" x="55.08" stroke-width="0.72" />
     <rect width="10.368" id="rect35" y="36.1078" fill="black" stroke="black" height="5.616" x="55.08" stroke-width="0.72" />
     <rect width="10.368" id="rect36" y="28.9078" fill="black" stroke="black" height="5.616" x="55.08" stroke-width="0.72" />
     <rect width="10.368" id="rect37" y="21.7078" fill="black" stroke="black" height="5.616" x="55.08" stroke-width="0.72" />
     <rect width="10.368" id="rect38" y="14.5078" fill="black" stroke="black" height="5.616" x="55.08" stroke-width="0.72" />
     <rect width="10.368" id="rect39" y="7.30777" fill="black" stroke="black" height="5.616" x="55.08" stroke-width="0.72" />
     <rect width="5.616" id="rect40" y="143.46" fill="black" stroke="black" height="10.368" x="22.68" stroke-width="0.72" />
     <rect width="5.616" id="rect41" y="143.46" fill="black" stroke="black" height="10.368" x="29.88" stroke-width="0.72" />
     <rect width="5.616" id="rect42" y="143.46" fill="black" stroke="black" height="10.368" x="37.08" stroke-width="0.72" />
     <circle id="connector0pin" fill="black" stroke="black" cy="10.0868" cx="7.533" r="2.088" stroke-width="2.16" />
     <circle id="connector1pin" fill="black" stroke="black" cy="17.2903" cx="7.533" r="2.088" stroke-width="2.16" />
     <circle id="connector2pin" fill="black" stroke="black" cy="24.4903" cx="7.533" r="2.088" stroke-width="2.16" />
     <circle id="connector3pin" fill="black" stroke="black" cy="31.6903" cx="7.533" r="2.088" stroke-width="2.16" />
     <circle id="connector4pin" fill="black" stroke="black" cy="38.8903" cx="7.533" r="2.088" stroke-width="2.16" />
     <circle id="connector5pin" fill="black" stroke="black" cy="46.0903" cx="7.533" r="2.088" stroke-width="2.16" />
     <circle id="connector6pin" fill="black" stroke="black" cy="53.2903" cx="7.533" r="2.088" stroke-width="2.16" />
     <circle id="connector7pin" fill="black" stroke="black" cy="60.4903" cx="7.533" r="2.088" stroke-width="2.16" />
     <circle id="connector8pin" fill="black" stroke="black" cy="67.6903" cx="7.533" r="2.088" stroke-width="2.16" />
     <circle id="connector9pin" fill="black" stroke="black" cy="74.8903" cx="7.533" r="2.088" stroke-width="2.16" />
     <circle id="connector10pin" fill="black" stroke="black" cy="82.0903" cx="7.533" r="2.088" stroke-width="2.16" />
     <circle id="connector11pin" fill="black" stroke="black" cy="89.2903" cx="7.533" r="2.088" stroke-width="2.16" />
     <circle id="connector12pin" fill="black" stroke="black" cy="96.4903" cx="7.533" r="2.088" stroke-width="2.16" />
     <circle id="connector13pin" fill="black" stroke="black" cy="103.69" cx="7.533" r="2.088" stroke-width="2.16" />
     <circle id="connector14pin" fill="black" stroke="black" cy="110.89" cx="7.533" r="2.088" stroke-width="2.16" />
     <circle id="connector15pin" fill="black" stroke="black" cy="118.09" cx="7.533" r="2.088" stroke-width="2.16" />
     <circle id="connector16pin" fill="black" stroke="black" cy="125.29" cx="7.533" r="2.088" stroke-width="2.16" />
     <circle id="connector17pin" fill="black" stroke="black" cy="132.49" cx="7.533" r="2.088" stroke-width="2.16" />
     <circle id="connector18pin" fill="black" stroke="black" cy="139.69" cx="7.533" r="2.088" stroke-width="2.16" />
     <circle id="connector19pin" fill="black" stroke="black" cy="146.89" cx="7.533" r="2.088" stroke-width="2.16" />
     <circle id="connector20pin" fill="black" stroke="black" cy="146.89" cx="57.9015" r="2.088" stroke-width="2.16" />
     <circle id="connector21pin" fill="black" stroke="black" cy="139.69" cx="57.9015" r="2.088" stroke-width="2.16" />
     <circle id="connector22pin" fill="black" stroke="black" cy="132.49" cx="57.9015" r="2.088" stroke-width="2.16" />
     <circle id="connector23pin" fill="black" stroke="black" cy="125.29" cx="57.9015" r="2.088" stroke-width="2.16" />
     <circle id="connector24pin" fill="black" stroke="black" cy="118.09" cx="57.9015" r="2.088" stroke-width="2.16" />
     <circle id="connector25pin" fill="black" stroke="black" cy="110.89" cx="57.9015" r="2.088" stroke-width="2.16" />
     <circle id="connector26pin" fill="black" stroke="black" cy="103.69" cx="57.9015" r="2.088" stroke-width="2.16" />
     <circle id="connector27pin" fill="black" stroke="black" cy="96.4903" cx="57.9015" r="2.088" stroke-width="2.16" />
     <circle id="connector28pin" fill="black" stroke="black" cy="89.2903" cx="57.9015" r="2.088" stroke-width="2.16" />
     <circle id="connector29pin" fill="black" stroke="black" cy="82.0903" cx="57.9015" r="2.088" stroke-width="2.16" />
     <circle id="connector30pin" fill="black" stroke="black" cy="74.8903" cx="57.9015" r="2.088" stroke-width="2.16" />
     <circle id="connector31pin" fill="black" stroke="black" cy="67.6903" cx="57.9015" r="2.088" stroke-width="2.16" />
     <circle id="connector32pin" fill="black" stroke="black" cy="60.4903" cx="57.9015" r="2.088" stroke-width="2.16" />
     <circle id="connector33pin" fill="black" stroke="black" cy="53.2903" cx="57.9015" r="2.088" stroke-width="2.16" />
     <circle id="connector34pin" fill="black" stroke="black" cy="46.0903" cx="57.9015" r="2.088" stroke-width="2.16" />
     <circle id="connector35pin" fill="black" stroke="black" cy="38.8903" cx="57.9015" r="2.088" stroke-width="2.16" />
     <circle id="connector36pin" fill="black" stroke="black" cy="31.6903" cx="57.9015" r="2.088" stroke-width="2.16" />
     <circle id="connector37pin" fill="black" stroke="black" cy="24.4903" cx="57.9015" r="2.088" stroke-width="2.16" />
     <circle id="connector38pin" fill="black" stroke="black" cy="17.2903" cx="57.9015" r="2.088" stroke-width="2.16" />
     <circle id="connector39pin" fill="black" stroke="black" cy="10.0903" cx="57.9015" r="2.088" stroke-width="2.16" />
     <circle id="connector40pin" fill="black" stroke="black" cy="146.89" cx="25.5015" r="2.088" stroke-width="2.16" />
     <circle id="connector41pin" fill="black" stroke="black" cy="146.89" cx="32.7015" r="2.088" stroke-width="2.16" />
     <circle id="connector42pin" fill="black" stroke="black" cy="146.89" cx="39.9015" r="2.088" stroke-width="2.16" />
    </g>
   </g>
  </g>
 </g>
 <g partID="62040">
  <g transform="translate(203.659,204.376)">
   <g id="copper0" >
    <circle id="connector0pad" fill="black" stroke="black" connectorname="1" cy="25.344" cx="6.048" r="1.512" stroke-width="1.44" />
    <path d="m6.048,21.6a1.872,1.872,0,0,1,1.872,1.872l0,3.744a1.872,1.872,0,0,1,-1.872,1.872l0,0a1.872,1.872,0,0,1,-1.872,-1.872l0,-3.744a1.872,1.872,0,0,1,1.872,-1.872l0,0zM4.896,25.344a1.152,1.152,0,1,0,2.304,0,1.152,1.152,0,1,0,-2.304,0z" fill="black" stroke="black" stroke-width="0.72" />
    <circle id="connector1pad" fill="black" stroke="black" connectorname="2" cy="25.344" cx="13.248" r="1.512" stroke-width="1.44" />
    <path d="m13.248,21.6a1.872,1.872,0,0,1,1.872,1.872l0,3.744a1.872,1.872,0,0,1,-1.872,1.872l0,0a1.872,1.872,0,0,1,-1.872,-1.872l0,-3.744a1.872,1.872,0,0,1,1.872,-1.872l0,0zM12.096,25.344a1.152,1.152,0,1,0,2.304,0,1.152,1.152,0,1,0,-2.304,0z" fill="black" stroke="black" stroke-width="0.72" />
    <circle id="connector2pad" fill="black" stroke="black" connectorname="3" cy="3.744" cx="13.248" r="1.512" stroke-width="1.44" />
    <path d="m13.248,0a1.872,1.872,0,0,1,1.872,1.872l0,3.744a1.872,1.872,0,0,1,-1.872,1.872l0,0a1.872,1.872,0,0,1,-1.872,-1.872l0,-3.744a1.872,1.872,0,0,1,1.872,-1.872l0,0zM12.096,3.744a1.152,1.152,0,1,0,2.304,0,1.152,1.152,0,1,0,-2.304,0z" fill="black" stroke="black" stroke-width="0.72" />
    <circle id="connector3pad" fill="black" stroke="black" connectorname="4" cy="3.744" cx="6.048" r="1.512" stroke-width="1.44" />
    <path d="m6.048,0a1.872,1.872,0,0,1,1.872,1.872l0,3.744a1.872,1.872,0,0,1,-1.872,1.872l0,0a1.872,1.872,0,0,1,-1.872,-1.872l0,-3.744a1.872,1.872,0,0,1,1.872,-1.872l0,0zM4.896,3.744a1.152,1.152,0,1,0,2.304,0,1.152,1.152,0,1,0,-2.304,0z" fill="black" stroke="black" stroke-width="0.72" />
   </g>
  </g>
 </g>
 <g partID="62070">
  <g transform="translate(189.259,204.376)">
   <g id="copper0" >
    <circle id="connector0pad" fill="black" stroke="black" connectorname="1" cy="25.344" cx="6.048" r="1.512" stroke-width="1.44" />
    <path d="m6.048,21.6a1.872,1.872,0,0,1,1.872,1.872l0,3.744a1.872,1.872,0,0,1,-1.872,1.872l0,0a1.872,1.872,0,0,1,-1.872,-1.872l0,-3.744a1.872,1.872,0,0,1,1.872,-1.872l0,0zM4.896,25.344a1.152,1.152,0,1,0,2.304,0,1.152,1.152,0,1,0,-2.304,0z" fill="black" stroke="black" stroke-width="0.72" />
    <circle id="connector1pad" fill="black" stroke="black" connectorname="2" cy="25.344" cx="13.248" r="1.512" stroke-width="1.44" />
    <path d="m13.248,21.6a1.872,1.872,0,0,1,1.872,1.872l0,3.744a1.872,1.872,0,0,1,-1.872,1.872l0,0a1.872,1.872,0,0,1,-1.872,-1.872l0,-3.744a1.872,1.872,0,0,1,1.872,-1.872l0,0zM12.096,25.344a1.152,1.152,0,1,0,2.304,0,1.152,1.152,0,1,0,-2.304,0z" fill="black" stroke="black" stroke-width="0.72" />
    <circle id="connector2pad" fill="black" stroke="black" connectorname="3" cy="3.744" cx="13.248" r="1.512" stroke-width="1.44" />
    <path d="m13.248,0a1.872,1.872,0,0,1,1.872,1.872l0,3.744a1.872,1.872,0,0,1,-1.872,1.872l0,0a1.872,1.872,0,0,1,-1.872,-1.872l0,-3.744a1.872,1.872,0,0,1,1.872,-1.872l0,0zM12.096,3.744a1.152,1.152,0,1,0,2.304,0,1.152,1.152,0,1,0,-2.304,0z" fill="black" stroke="black" stroke-width="0.72" />
    <circle id="connector3pad" fill="black" stroke="black" connectorname="4" cy="3.744" cx="6.048" r="1.512" stroke-width="1.44" />
    <path d="m6.048,0a1.872,1.872,0,0,1,1.872,1.872l0,3.744a1.872,1.872,0,0,1,-1.872,1.872l0,0a1.872,1.872,0,0,1,-1.872,-1.872l0,-3.744a1.872,1.872,0,0,1,1.872,-1.872l0,0zM4.896,3.744a1.152,1.152,0,1,0,2.304,0,1.152,1.152,0,1,0,-2.304,0z" fill="black" stroke="black" stroke-width="0.72" />
   </g>
  </g>
 </g>
 <g partID="63770">
  <g transform="translate(227.707,197.32)">
   <g id="copper0" >
    <circle id="connector16pad" fill="black" stroke="black" cy="10.8" cx="3.6" stroke-width="1.944" r="1.908" />
    <rect width="3.813" y="8.892" fill="black" stroke="black" height="3.816" x="1.692" stroke-width="1.944" />
    <circle id="connector17pad" fill="black" stroke="black" cy="18" cx="3.6" stroke-width="1.944" r="1.908" />
    <circle id="connector18pad" fill="black" stroke="black" cy="25.2" cx="3.6" stroke-width="1.944" r="1.908" />
    <circle id="connector19pad" fill="black" stroke="black" cy="32.4" cx="3.6" stroke-width="1.944" r="1.908" />
    <circle id="connector20pad" fill="black" stroke="black" cy="39.6" cx="3.6" stroke-width="1.944" r="1.908" />
    <circle id="connector21pad" fill="black" stroke="black" cy="46.8" cx="3.6" stroke-width="1.944" r="1.908" />
    <circle id="connector22pad" fill="black" stroke="black" cy="54" cx="3.6" stroke-width="1.944" r="1.908" />
    <circle id="connector23pad" fill="black" stroke="black" cy="61.2" cx="3.6" stroke-width="1.944" r="1.908" />
    <circle id="connector24pad" fill="black" stroke="black" cy="68.4" cx="3.6" stroke-width="1.944" r="1.908" />
    <circle id="connector25pad" fill="black" stroke="black" cy="75.6" cx="3.6" stroke-width="1.944" r="1.908" />
    <circle id="connector26pad" fill="black" stroke="black" cy="82.8" cx="3.6" stroke-width="1.944" r="1.908" />
    <circle id="connector27pad" fill="black" stroke="black" cy="90" cx="3.6" stroke-width="1.944" r="1.908" />
    <circle id="connector28pad" fill="black" stroke="black" cy="97.2" cx="3.6" stroke-width="1.944" r="1.908" />
    <circle id="connector29pad" fill="black" stroke="black" cy="104.4" cx="3.6" stroke-width="1.944" r="1.908" />
    <circle id="connector30pad" fill="black" stroke="black" cy="111.6" cx="3.6" stroke-width="1.944" r="1.908" />
    <circle id="connector31pad" fill="black" stroke="black" cy="10.8" cx="46.8" stroke-width="1.944" r="1.908" />
    <circle id="connector32pad" fill="black" stroke="black" cy="18" cx="46.8" stroke-width="1.944" r="1.908" />
    <circle id="connector33pad" fill="black" stroke="black" cy="25.2" cx="46.8" stroke-width="1.944" r="1.908" />
    <circle id="connector34pad" fill="black" stroke="black" cy="32.4" cx="46.8" stroke-width="1.944" r="1.908" />
    <circle id="connector35pad" fill="black" stroke="black" cy="39.6" cx="46.8" stroke-width="1.944" r="1.908" />
    <circle id="connector36pad" fill="black" stroke="black" cy="46.8" cx="46.8" stroke-width="1.944" r="1.908" />
    <circle id="connector37pad" fill="black" stroke="black" cy="54" cx="46.8" stroke-width="1.944" r="1.908" />
    <circle id="connector38pad" fill="black" stroke="black" cy="61.2" cx="46.8" stroke-width="1.944" r="1.908" />
    <circle id="connector39pad" fill="black" stroke="black" cy="68.4" cx="46.8" stroke-width="1.944" r="1.908" />
    <circle id="connector40pad" fill="black" stroke="black" cy="75.6" cx="46.8" stroke-width="1.944" r="1.908" />
    <circle id="connector41pad" fill="black" stroke="black" cy="82.8" cx="46.8" stroke-width="1.944" r="1.908" />
    <circle id="connector42pad" fill="black" stroke="black" cy="90" cx="46.8" stroke-width="1.944" r="1.908" />
    <circle id="connector43pad" fill="black" stroke="black" cy="97.2" cx="46.8" stroke-width="1.944" r="1.908" />
    <circle id="connector44pad" fill="black" stroke="black" cy="104.4" cx="46.8" stroke-width="1.944" r="1.908" />
    <circle id="connector45pad" fill="black" stroke="black" cy="111.6" cx="46.8" stroke-width="1.944" r="1.908" />
    <circle id="connector59pad" fill="black" stroke="black" cy="3.917" cx="18.017" stroke-width="1.944" r="1.908" />
    <circle id="connector60pad" fill="black" stroke="black" cy="11.116" cx="18.017" stroke-width="1.944" r="1.908" />
    <circle id="connector57pad" fill="black" stroke="black" cy="3.917" cx="25.22" stroke-width="1.944" r="1.908" />
    <circle id="connector58pad" fill="black" stroke="black" cy="11.116" cx="25.22" stroke-width="1.944" r="1.908" />
    <circle id="connector55pad" fill="black" stroke="black" cy="3.917" cx="32.433" stroke-width="1.944" r="1.908" />
    <circle id="connector56pad" fill="black" stroke="black" cy="11.116" cx="32.433" stroke-width="1.944" r="1.908" />
   </g>
  </g>
 </g>
 <g partID="854100340">
  <g transform="translate(173.737,116.963)">
   <g transform="matrix(-1,0,0,-1,0,0)">
    <g id="copper0" >
     <circle id="connector6pin" gorn="0.3.0.0" fill="black" stroke="black" cy="31.2382" connectorname="MOSI" cx="157.384" r="2.088" stroke-width="2.16" />
     <circle id="connector2pin" gorn="0.3.0.1" fill="black" stroke="black" cy="60.0382" connectorname="RESET" cx="157.384" r="2.088" stroke-width="2.16" />
     <circle id="connector8pin" gorn="0.3.0.2" fill="black" stroke="black" cy="60.0435" connectorname="MISO" cx="7.23006" r="2.088" stroke-width="2.16" />
     <circle id="connector4pin" gorn="0.3.0.3" fill="black" stroke="black" cy="45.6383" connectorname="CARDCS" cx="157.384" r="2.088" stroke-width="2.16" />
     <circle id="connector0pin" gorn="0.3.0.4" fill="black" stroke="black" cy="74.4382" connectorname="GND" cx="157.384" r="2.088" stroke-width="2.16" />
     <circle id="connector9pin" gorn="0.3.0.5" fill="black" stroke="black" cy="52.8435" connectorname="LITE" cx="7.23006" stroke-width="2.16" r="2.088" />
     <circle id="connector7pin" gorn="0.3.0.6" fill="black" stroke="black" cy="24.0382" connectorname="SCLK" cx="157.384" r="2.088" stroke-width="2.16" />
     <circle id="connector5pin" gorn="0.3.0.7" fill="black" stroke="black" cy="38.4382" connectorname="TFTCS" cx="157.384" r="2.088" stroke-width="2.16" />
     <circle id="connector3pin" gorn="0.3.0.8" fill="black" stroke="black" cy="52.8383" connectorname="TFTDC" cx="157.384" r="2.088" stroke-width="2.16" />
     <circle id="connector1pin" gorn="0.3.0.9" fill="black" stroke="black" cy="67.2382" connectorname="+5V" cx="157.384" r="2.088" stroke-width="2.16" />
     <circle gorn="0.3.0.5" id="connector10pin" fill="black" stroke="black" connectorname="LITE" cy="45.6435" cx="7.23006" r="2.088" stroke-width="2.16" />
     <circle id="connector11pin" gorn="0.3.0.5" fill="black" stroke="black" cy="38.4446" connectorname="LITE" cx="7.23006" r="2.088" stroke-width="2.16" />
     <circle gorn="0.3.0.5" id="nonconn1" connectorname="LITE" cy="8.64716" cx="8.62521" r="4.53543" stroke-width="0" />
     <circle id="nonconn2" gorn="0.3.0.5" cy="88.0563" connectorname="LITE" cx="8.62521" r="4.53543" stroke-width="0" />
     <circle id="nonconn3" gorn="0.3.0.5" cy="8.57744" connectorname="LITE" cx="155.94" r="4.53543" stroke-width="0" />
     <circle gorn="0.3.0.5" id="nonconn4" connectorname="LITE" cy="88.0563" cx="155.94" r="4.53543" stroke-width="0" />
    </g>
   </g>
  </g>
 </g>
</svg>
