<?xml version='1.0' encoding='UTF-8' standalone='no'?>
<!-- Created with Fritzing (https://fritzing.org/) -->
<svg xmlns="http://www.w3.org/2000/svg" xmlns:svg="http://www.w3.org/2000/svg" x="0in" height="4.5074in" viewBox="0 0 310.391 324.533" version="1.2" width="4.31098in" baseProfile="tiny" y="0in" >
 <g partID="57830">
  <g id="board" >
   <rect stroke-width="0.5" x="0.288" id="boardoutline" fill="none" height="323.957" stroke="black" width="309.815" y="0.288"  fill-opacity="0.5"/>
  </g>
 </g>
 <g partID="854323481">
  <g transform="translate(241.782,155.382)">
   <g id="copper1" >
    <g cx="3.01733" r="0.992124" stroke-width="0.850392" id="0" fill="none" cy="3.01733" stroke="black" />
   </g>
  </g>
 </g>
 <g partID="854266211">
  <g transform="translate(292.182,83.3826)">
   <g id="copper1" >
    <g cx="3.01733" r="0.992124" stroke-width="0.850392" id="1" fill="none" cy="3.01733" stroke="black" />
   </g>
  </g>
 </g>
 <g partID="854266241">
  <g transform="translate(284.982,90.5826)">
   <g id="copper1" >
    <g cx="3.01733" r="0.992124" stroke-width="0.850392" id="2" fill="none" cy="3.01733" stroke="black" />
   </g>
  </g>
 </g>
 <g partID="854266971">
  <g transform="translate(284.982,104.983)">
   <g id="copper1" >
    <g cx="3.01733" r="0.992124" stroke-width="0.850392" id="3" fill="none" cy="3.01733" stroke="black" />
   </g>
  </g>
 </g>
 <g partID="854269511">
  <g transform="translate(47.3824,68.9826)">
   <g id="copper1" >
    <g cx="3.01733" r="0.992124" stroke-width="0.850392" id="4" fill="none" cy="3.01733" stroke="black" />
   </g>
  </g>
 </g>
 <g partID="854269721">
  <g transform="translate(241.782,119.382)">
   <g id="copper1" >
    <g cx="3.01733" r="0.992124" stroke-width="0.850392" id="5" fill="none" cy="3.01733" stroke="black" />
   </g>
  </g>
 </g>
 <g partID="854269751">
  <g transform="translate(241.782,133.782)">
   <g id="copper1" >
    <g cx="3.01733" r="0.992124" stroke-width="0.850392" id="6" fill="none" cy="3.01733" stroke="black" />
   </g>
  </g>
 </g>
 <g partID="854271920">
  <g transform="translate(298.166,44.8534)">
   <g id="copper1" >
    <rect x="1.6" stroke-width="0" id="7" fill="black" height="7.89324" stroke="none" width="5.26776" y="1.6"  fill-opacity="1"/>
    <g x="1.6" stroke-width="0" id="8" fill="none" height="7.89324" stroke="none" width="5.26776" y="1.6" />
   </g>
  </g>
 </g>
 <g partID="854272310">
  <g transform="translate(204.42,73.5107)">
   <g id="copper1" >
    <rect x="1.6" stroke-width="0" id="9" fill="black" height="8.17856" stroke="none" width="5.55943" y="1.6"  fill-opacity="1"/>
    <g x="1.6" stroke-width="0" id="10" fill="none" height="8.17856" stroke="none" width="5.55943" y="1.6" />
   </g>
  </g>
 </g>
 <g partID="854148570">
  <g transform="translate(210.303,17.0646)">
   <g transform="matrix(0,1,-1,0,0,0)">
    <g id="copper1" >
     <rect x="1.70079" stroke-width="0" id="11" height="7.08662" fill="black" stroke="none" width="5.66929" stroke-linecap="round" y="19.5591"  connectorname="SLEEVE"/>
     <rect x="27.7795" stroke-width="0" id="12" height="7.08662" fill="black" stroke="none" width="5.66929" stroke-linecap="round" y="19.5591"  connectorname="TIP"/>
     <rect x="6.80315" stroke-width="0" id="13" height="7.08662" fill="black" stroke="none" width="5.66929" stroke-linecap="round" y="0"  connectorname="RING"/>
     <rect x="38.5512" stroke-width="0" id="14" height="5.6693" fill="black" stroke="none" width="7.08661" stroke-linecap="round" y="8.36221"  connectorname="TSH"/>
     <rect x="0" stroke-width="0" id="15" height="7.08662" fill="black" stroke="none" width="3.40157" stroke-linecap="round" y="0"  connectorname="RSH"/>
     <circle cx="7.37008" r="2.83464" stroke-width="0" id="16" cy="13.3228" fill="black" stroke="black" />
     <circle cx="27.2126" r="2.83464" stroke-width="0" id="17" cy="13.3228" fill="black" stroke="black" />
     <g id="copper0" >
      <circle cx="7.37008" r="2.83464" stroke-width="0" id="18" cy="13.3228" fill="black" stroke="black" />
      <circle cx="27.2126" r="2.83464" stroke-width="0" id="19" cy="13.3228" fill="black" stroke="black" />
     </g>
    </g>
   </g>
  </g>
 </g>
 <g partID="854118601">
  <g transform="translate(7.95384,272.398)">
   <g id="copper1" >
    <g id="copper0" >
     <g cx="20.8462" r="1.98" stroke-width="1.44" id="20" cy="15.6024" fill="none" stroke="black" />
     <g cx="2.42064" r="1.98" stroke-width="1.44" id="21" cy="15.6024" fill="none" stroke="black" />
     <g cx="20.8462" r="1.98" stroke-width="1.44" id="22" cy="2.84616" fill="none" stroke="black" />
     <g cx="2.42064" r="1.98" stroke-width="1.44" id="23" cy="2.84616" fill="none" stroke="black" />
    </g>
   </g>
  </g>
 </g>
 <g partID="854118181">
  <g transform="translate(7.95384,243.598)">
   <g id="copper1" >
    <g id="copper0" >
     <g cx="20.8462" r="1.98" stroke-width="1.44" id="24" cy="15.6024" fill="none" stroke="black" />
     <g cx="2.42064" r="1.98" stroke-width="1.44" id="25" cy="15.6024" fill="none" stroke="black" />
     <g cx="20.8462" r="1.98" stroke-width="1.44" id="26" cy="2.84616" fill="none" stroke="black" />
     <g cx="2.42064" r="1.98" stroke-width="1.44" id="27" cy="2.84616" fill="none" stroke="black" />
    </g>
   </g>
  </g>
 </g>
 <g partID="854117761">
  <g transform="translate(7.95384,214.798)">
   <g id="copper1" >
    <g id="copper0" >
     <g cx="20.8462" r="1.98" stroke-width="1.44" id="28" cy="15.6024" fill="none" stroke="black" />
     <g cx="2.42064" r="1.98" stroke-width="1.44" id="29" cy="15.6024" fill="none" stroke="black" />
     <g cx="20.8462" r="1.98" stroke-width="1.44" id="30" cy="2.84616" fill="none" stroke="black" />
     <g cx="2.42064" r="1.98" stroke-width="1.44" id="31" cy="2.84616" fill="none" stroke="black" />
    </g>
   </g>
  </g>
 </g>
 <g partID="854117341">
  <g transform="translate(7.95384,185.998)">
   <g id="copper1" >
    <g id="copper0" >
     <g cx="20.8462" r="1.98" stroke-width="1.44" id="32" cy="15.6024" fill="none" stroke="black" />
     <g cx="2.42064" r="1.98" stroke-width="1.44" id="33" cy="15.6024" fill="none" stroke="black" />
     <g cx="20.8462" r="1.98" stroke-width="1.44" id="34" cy="2.84616" fill="none" stroke="black" />
     <g cx="2.42064" r="1.98" stroke-width="1.44" id="35" cy="2.84616" fill="none" stroke="black" />
    </g>
   </g>
  </g>
 </g>
 <g partID="854116921">
  <g transform="translate(7.95384,157.198)">
   <g id="copper1" >
    <g id="copper0" >
     <g cx="20.8462" r="1.98" stroke-width="1.44" id="36" cy="15.6024" fill="none" stroke="black" />
     <g cx="2.42064" r="1.98" stroke-width="1.44" id="37" cy="15.6024" fill="none" stroke="black" />
     <g cx="20.8462" r="1.98" stroke-width="1.44" id="38" cy="2.84616" fill="none" stroke="black" />
     <g cx="2.42064" r="1.98" stroke-width="1.44" id="39" cy="2.84616" fill="none" stroke="black" />
    </g>
   </g>
  </g>
 </g>
 <g partID="854115961">
  <g transform="translate(7.95384,128.398)">
   <g id="copper1" >
    <g id="copper0" >
     <g cx="20.8462" r="1.98" stroke-width="1.44" id="40" cy="15.6024" fill="none" stroke="black" />
     <g cx="2.42064" r="1.98" stroke-width="1.44" id="41" cy="15.6024" fill="none" stroke="black" />
     <g cx="20.8462" r="1.98" stroke-width="1.44" id="42" cy="2.84616" fill="none" stroke="black" />
     <g cx="2.42064" r="1.98" stroke-width="1.44" id="43" cy="2.84616" fill="none" stroke="black" />
    </g>
   </g>
  </g>
 </g>
 <g partID="854118611">
  <g transform="translate(36.7536,272.398)">
   <g id="copper1" >
    <g id="copper0" >
     <g cx="20.8462" r="1.98" stroke-width="1.44" id="44" cy="15.6024" fill="none" stroke="black" />
     <g cx="2.42064" r="1.98" stroke-width="1.44" id="45" cy="15.6024" fill="none" stroke="black" />
     <g cx="20.8462" r="1.98" stroke-width="1.44" id="46" cy="2.84616" fill="none" stroke="black" />
     <g cx="2.42064" r="1.98" stroke-width="1.44" id="47" cy="2.84616" fill="none" stroke="black" />
    </g>
   </g>
  </g>
 </g>
 <g partID="854118191">
  <g transform="translate(36.7536,243.598)">
   <g id="copper1" >
    <g id="copper0" >
     <g cx="20.8462" r="1.98" stroke-width="1.44" id="48" cy="15.6024" fill="none" stroke="black" />
     <g cx="2.42064" r="1.98" stroke-width="1.44" id="49" cy="15.6024" fill="none" stroke="black" />
     <g cx="20.8462" r="1.98" stroke-width="1.44" id="50" cy="2.84616" fill="none" stroke="black" />
     <g cx="2.42064" r="1.98" stroke-width="1.44" id="51" cy="2.84616" fill="none" stroke="black" />
    </g>
   </g>
  </g>
 </g>
 <g partID="854117771">
  <g transform="translate(36.7536,214.798)">
   <g id="copper1" >
    <g id="copper0" >
     <g cx="20.8462" r="1.98" stroke-width="1.44" id="52" cy="15.6024" fill="none" stroke="black" />
     <g cx="2.42064" r="1.98" stroke-width="1.44" id="53" cy="15.6024" fill="none" stroke="black" />
     <g cx="20.8462" r="1.98" stroke-width="1.44" id="54" cy="2.84616" fill="none" stroke="black" />
     <g cx="2.42064" r="1.98" stroke-width="1.44" id="55" cy="2.84616" fill="none" stroke="black" />
    </g>
   </g>
  </g>
 </g>
 <g partID="854117351">
  <g transform="translate(36.7536,185.998)">
   <g id="copper1" >
    <g id="copper0" >
     <g cx="20.8462" r="1.98" stroke-width="1.44" id="56" cy="15.6024" fill="none" stroke="black" />
     <g cx="2.42064" r="1.98" stroke-width="1.44" id="57" cy="15.6024" fill="none" stroke="black" />
     <g cx="20.8462" r="1.98" stroke-width="1.44" id="58" cy="2.84616" fill="none" stroke="black" />
     <g cx="2.42064" r="1.98" stroke-width="1.44" id="59" cy="2.84616" fill="none" stroke="black" />
    </g>
   </g>
  </g>
 </g>
 <g partID="854116931">
  <g transform="translate(36.7536,157.198)">
   <g id="copper1" >
    <g id="copper0" >
     <g cx="20.8462" r="1.98" stroke-width="1.44" id="60" cy="15.6024" fill="none" stroke="black" />
     <g cx="2.42064" r="1.98" stroke-width="1.44" id="61" cy="15.6024" fill="none" stroke="black" />
     <g cx="20.8462" r="1.98" stroke-width="1.44" id="62" cy="2.84616" fill="none" stroke="black" />
     <g cx="2.42064" r="1.98" stroke-width="1.44" id="63" cy="2.84616" fill="none" stroke="black" />
    </g>
   </g>
  </g>
 </g>
 <g partID="854115991">
  <g transform="translate(36.7536,128.398)">
   <g id="copper1" >
    <g id="copper0" >
     <g cx="20.8462" r="1.98" stroke-width="1.44" id="64" cy="15.6024" fill="none" stroke="black" />
     <g cx="2.42064" r="1.98" stroke-width="1.44" id="65" cy="15.6024" fill="none" stroke="black" />
     <g cx="20.8462" r="1.98" stroke-width="1.44" id="66" cy="2.84616" fill="none" stroke="black" />
     <g cx="2.42064" r="1.98" stroke-width="1.44" id="67" cy="2.84616" fill="none" stroke="black" />
    </g>
   </g>
  </g>
 </g>
 <g partID="854118621">
  <g transform="translate(65.5536,272.398)">
   <g id="copper1" >
    <g id="copper0" >
     <g cx="20.8462" r="1.98" stroke-width="1.44" id="68" cy="15.6024" fill="none" stroke="black" />
     <g cx="2.42064" r="1.98" stroke-width="1.44" id="69" cy="15.6024" fill="none" stroke="black" />
     <g cx="20.8462" r="1.98" stroke-width="1.44" id="70" cy="2.84616" fill="none" stroke="black" />
     <g cx="2.42064" r="1.98" stroke-width="1.44" id="71" cy="2.84616" fill="none" stroke="black" />
    </g>
   </g>
  </g>
 </g>
 <g partID="854118201">
  <g transform="translate(65.5536,243.598)">
   <g id="copper1" >
    <g id="copper0" >
     <g cx="20.8462" r="1.98" stroke-width="1.44" id="72" cy="15.6024" fill="none" stroke="black" />
     <g cx="2.42064" r="1.98" stroke-width="1.44" id="73" cy="15.6024" fill="none" stroke="black" />
     <g cx="20.8462" r="1.98" stroke-width="1.44" id="74" cy="2.84616" fill="none" stroke="black" />
     <g cx="2.42064" r="1.98" stroke-width="1.44" id="75" cy="2.84616" fill="none" stroke="black" />
    </g>
   </g>
  </g>
 </g>
 <g partID="854117781">
  <g transform="translate(65.5536,214.798)">
   <g id="copper1" >
    <g id="copper0" >
     <g cx="20.8462" r="1.98" stroke-width="1.44" id="76" cy="15.6024" fill="none" stroke="black" />
     <g cx="2.42064" r="1.98" stroke-width="1.44" id="77" cy="15.6024" fill="none" stroke="black" />
     <g cx="20.8462" r="1.98" stroke-width="1.44" id="78" cy="2.84616" fill="none" stroke="black" />
     <g cx="2.42064" r="1.98" stroke-width="1.44" id="79" cy="2.84616" fill="none" stroke="black" />
    </g>
   </g>
  </g>
 </g>
 <g partID="854117361">
  <g transform="translate(65.5536,185.998)">
   <g id="copper1" >
    <g id="copper0" >
     <g cx="20.8462" r="1.98" stroke-width="1.44" id="80" cy="15.6024" fill="none" stroke="black" />
     <g cx="2.42064" r="1.98" stroke-width="1.44" id="81" cy="15.6024" fill="none" stroke="black" />
     <g cx="20.8462" r="1.98" stroke-width="1.44" id="82" cy="2.84616" fill="none" stroke="black" />
     <g cx="2.42064" r="1.98" stroke-width="1.44" id="83" cy="2.84616" fill="none" stroke="black" />
    </g>
   </g>
  </g>
 </g>
 <g partID="854116941">
  <g transform="translate(65.5536,157.198)">
   <g id="copper1" >
    <g id="copper0" >
     <g cx="20.8462" r="1.98" stroke-width="1.44" id="84" cy="15.6024" fill="none" stroke="black" />
     <g cx="2.42064" r="1.98" stroke-width="1.44" id="85" cy="15.6024" fill="none" stroke="black" />
     <g cx="20.8462" r="1.98" stroke-width="1.44" id="86" cy="2.84616" fill="none" stroke="black" />
     <g cx="2.42064" r="1.98" stroke-width="1.44" id="87" cy="2.84616" fill="none" stroke="black" />
    </g>
   </g>
  </g>
 </g>
 <g partID="854116021">
  <g transform="translate(65.5536,128.398)">
   <g id="copper1" >
    <g id="copper0" >
     <g cx="20.8462" r="1.98" stroke-width="1.44" id="88" cy="15.6024" fill="none" stroke="black" />
     <g cx="2.42064" r="1.98" stroke-width="1.44" id="89" cy="15.6024" fill="none" stroke="black" />
     <g cx="20.8462" r="1.98" stroke-width="1.44" id="90" cy="2.84616" fill="none" stroke="black" />
     <g cx="2.42064" r="1.98" stroke-width="1.44" id="91" cy="2.84616" fill="none" stroke="black" />
    </g>
   </g>
  </g>
 </g>
 <g partID="854118631">
  <g transform="translate(94.3536,272.398)">
   <g id="copper1" >
    <g id="copper0" >
     <g cx="20.8462" r="1.98" stroke-width="1.44" id="92" cy="15.6024" fill="none" stroke="black" />
     <g cx="2.42064" r="1.98" stroke-width="1.44" id="93" cy="15.6024" fill="none" stroke="black" />
     <g cx="20.8462" r="1.98" stroke-width="1.44" id="94" cy="2.84616" fill="none" stroke="black" />
     <g cx="2.42064" r="1.98" stroke-width="1.44" id="95" cy="2.84616" fill="none" stroke="black" />
    </g>
   </g>
  </g>
 </g>
 <g partID="854118211">
  <g transform="translate(94.3536,243.598)">
   <g id="copper1" >
    <g id="copper0" >
     <g cx="20.8462" r="1.98" stroke-width="1.44" id="96" cy="15.6024" fill="none" stroke="black" />
     <g cx="2.42064" r="1.98" stroke-width="1.44" id="97" cy="15.6024" fill="none" stroke="black" />
     <g cx="20.8462" r="1.98" stroke-width="1.44" id="98" cy="2.84616" fill="none" stroke="black" />
     <g cx="2.42064" r="1.98" stroke-width="1.44" id="99" cy="2.84616" fill="none" stroke="black" />
    </g>
   </g>
  </g>
 </g>
 <g partID="854117791">
  <g transform="translate(94.3536,214.798)">
   <g id="copper1" >
    <g id="copper0" >
     <g cx="20.8462" r="1.98" stroke-width="1.44" id="100" cy="15.6024" fill="none" stroke="black" />
     <g cx="2.42064" r="1.98" stroke-width="1.44" id="101" cy="15.6024" fill="none" stroke="black" />
     <g cx="20.8462" r="1.98" stroke-width="1.44" id="102" cy="2.84616" fill="none" stroke="black" />
     <g cx="2.42064" r="1.98" stroke-width="1.44" id="103" cy="2.84616" fill="none" stroke="black" />
    </g>
   </g>
  </g>
 </g>
 <g partID="854117371">
  <g transform="translate(94.3536,185.998)">
   <g id="copper1" >
    <g id="copper0" >
     <g cx="20.8462" r="1.98" stroke-width="1.44" id="104" cy="15.6024" fill="none" stroke="black" />
     <g cx="2.42064" r="1.98" stroke-width="1.44" id="105" cy="15.6024" fill="none" stroke="black" />
     <g cx="20.8462" r="1.98" stroke-width="1.44" id="106" cy="2.84616" fill="none" stroke="black" />
     <g cx="2.42064" r="1.98" stroke-width="1.44" id="107" cy="2.84616" fill="none" stroke="black" />
    </g>
   </g>
  </g>
 </g>
 <g partID="854116951">
  <g transform="translate(94.3536,157.198)">
   <g id="copper1" >
    <g id="copper0" >
     <g cx="20.8462" r="1.98" stroke-width="1.44" id="108" cy="15.6024" fill="none" stroke="black" />
     <g cx="2.42064" r="1.98" stroke-width="1.44" id="109" cy="15.6024" fill="none" stroke="black" />
     <g cx="20.8462" r="1.98" stroke-width="1.44" id="110" cy="2.84616" fill="none" stroke="black" />
     <g cx="2.42064" r="1.98" stroke-width="1.44" id="111" cy="2.84616" fill="none" stroke="black" />
    </g>
   </g>
  </g>
 </g>
 <g partID="854116051">
  <g transform="translate(94.3536,128.398)">
   <g id="copper1" >
    <g id="copper0" >
     <g cx="20.8462" r="1.98" stroke-width="1.44" id="112" cy="15.6024" fill="none" stroke="black" />
     <g cx="2.42064" r="1.98" stroke-width="1.44" id="113" cy="15.6024" fill="none" stroke="black" />
     <g cx="20.8462" r="1.98" stroke-width="1.44" id="114" cy="2.84616" fill="none" stroke="black" />
     <g cx="2.42064" r="1.98" stroke-width="1.44" id="115" cy="2.84616" fill="none" stroke="black" />
    </g>
   </g>
  </g>
 </g>
 <g partID="854118641">
  <g transform="translate(123.154,272.398)">
   <g id="copper1" >
    <g id="copper0" >
     <g cx="20.8462" r="1.98" stroke-width="1.44" id="116" cy="15.6024" fill="none" stroke="black" />
     <g cx="2.42064" r="1.98" stroke-width="1.44" id="117" cy="15.6024" fill="none" stroke="black" />
     <g cx="20.8462" r="1.98" stroke-width="1.44" id="118" cy="2.84616" fill="none" stroke="black" />
     <g cx="2.42064" r="1.98" stroke-width="1.44" id="119" cy="2.84616" fill="none" stroke="black" />
    </g>
   </g>
  </g>
 </g>
 <g partID="854118221">
  <g transform="translate(123.154,243.598)">
   <g id="copper1" >
    <g id="copper0" >
     <g cx="20.8462" r="1.98" stroke-width="1.44" id="120" cy="15.6024" fill="none" stroke="black" />
     <g cx="2.42064" r="1.98" stroke-width="1.44" id="121" cy="15.6024" fill="none" stroke="black" />
     <g cx="20.8462" r="1.98" stroke-width="1.44" id="122" cy="2.84616" fill="none" stroke="black" />
     <g cx="2.42064" r="1.98" stroke-width="1.44" id="123" cy="2.84616" fill="none" stroke="black" />
    </g>
   </g>
  </g>
 </g>
 <g partID="854117801">
  <g transform="translate(123.154,214.798)">
   <g id="copper1" >
    <g id="copper0" >
     <g cx="20.8462" r="1.98" stroke-width="1.44" id="124" cy="15.6024" fill="none" stroke="black" />
     <g cx="2.42064" r="1.98" stroke-width="1.44" id="125" cy="15.6024" fill="none" stroke="black" />
     <g cx="20.8462" r="1.98" stroke-width="1.44" id="126" cy="2.84616" fill="none" stroke="black" />
     <g cx="2.42064" r="1.98" stroke-width="1.44" id="127" cy="2.84616" fill="none" stroke="black" />
    </g>
   </g>
  </g>
 </g>
 <g partID="854117381">
  <g transform="translate(123.154,185.998)">
   <g id="copper1" >
    <g id="copper0" >
     <g cx="20.8462" r="1.98" stroke-width="1.44" id="128" cy="15.6024" fill="none" stroke="black" />
     <g cx="2.42064" r="1.98" stroke-width="1.44" id="129" cy="15.6024" fill="none" stroke="black" />
     <g cx="20.8462" r="1.98" stroke-width="1.44" id="130" cy="2.84616" fill="none" stroke="black" />
     <g cx="2.42064" r="1.98" stroke-width="1.44" id="131" cy="2.84616" fill="none" stroke="black" />
    </g>
   </g>
  </g>
 </g>
 <g partID="854116961">
  <g transform="translate(123.154,157.198)">
   <g id="copper1" >
    <g id="copper0" >
     <g cx="20.8462" r="1.98" stroke-width="1.44" id="132" cy="15.6024" fill="none" stroke="black" />
     <g cx="2.42064" r="1.98" stroke-width="1.44" id="133" cy="15.6024" fill="none" stroke="black" />
     <g cx="20.8462" r="1.98" stroke-width="1.44" id="134" cy="2.84616" fill="none" stroke="black" />
     <g cx="2.42064" r="1.98" stroke-width="1.44" id="135" cy="2.84616" fill="none" stroke="black" />
    </g>
   </g>
  </g>
 </g>
 <g partID="854116081">
  <g transform="translate(123.154,128.398)">
   <g id="copper1" >
    <g id="copper0" >
     <g cx="20.8462" r="1.98" stroke-width="1.44" id="136" cy="15.6024" fill="none" stroke="black" />
     <g cx="2.42064" r="1.98" stroke-width="1.44" id="137" cy="15.6024" fill="none" stroke="black" />
     <g cx="20.8462" r="1.98" stroke-width="1.44" id="138" cy="2.84616" fill="none" stroke="black" />
     <g cx="2.42064" r="1.98" stroke-width="1.44" id="139" cy="2.84616" fill="none" stroke="black" />
    </g>
   </g>
  </g>
 </g>
 <g partID="854118651">
  <g transform="translate(151.954,272.398)">
   <g id="copper1" >
    <g id="copper0" >
     <g cx="20.8462" r="1.98" stroke-width="1.44" id="140" cy="15.6024" fill="none" stroke="black" />
     <g cx="2.42064" r="1.98" stroke-width="1.44" id="141" cy="15.6024" fill="none" stroke="black" />
     <g cx="20.8462" r="1.98" stroke-width="1.44" id="142" cy="2.84616" fill="none" stroke="black" />
     <g cx="2.42064" r="1.98" stroke-width="1.44" id="143" cy="2.84616" fill="none" stroke="black" />
    </g>
   </g>
  </g>
 </g>
 <g partID="854118231">
  <g transform="translate(151.954,243.598)">
   <g id="copper1" >
    <g id="copper0" >
     <g cx="20.8462" r="1.98" stroke-width="1.44" id="144" cy="15.6024" fill="none" stroke="black" />
     <g cx="2.42064" r="1.98" stroke-width="1.44" id="145" cy="15.6024" fill="none" stroke="black" />
     <g cx="20.8462" r="1.98" stroke-width="1.44" id="146" cy="2.84616" fill="none" stroke="black" />
     <g cx="2.42064" r="1.98" stroke-width="1.44" id="147" cy="2.84616" fill="none" stroke="black" />
    </g>
   </g>
  </g>
 </g>
 <g partID="854117811">
  <g transform="translate(151.954,214.798)">
   <g id="copper1" >
    <g id="copper0" >
     <g cx="20.8462" r="1.98" stroke-width="1.44" id="148" cy="15.6024" fill="none" stroke="black" />
     <g cx="2.42064" r="1.98" stroke-width="1.44" id="149" cy="15.6024" fill="none" stroke="black" />
     <g cx="20.8462" r="1.98" stroke-width="1.44" id="150" cy="2.84616" fill="none" stroke="black" />
     <g cx="2.42064" r="1.98" stroke-width="1.44" id="151" cy="2.84616" fill="none" stroke="black" />
    </g>
   </g>
  </g>
 </g>
 <g partID="854117391">
  <g transform="translate(151.954,185.998)">
   <g id="copper1" >
    <g id="copper0" >
     <g cx="20.8462" r="1.98" stroke-width="1.44" id="152" cy="15.6024" fill="none" stroke="black" />
     <g cx="2.42064" r="1.98" stroke-width="1.44" id="153" cy="15.6024" fill="none" stroke="black" />
     <g cx="20.8462" r="1.98" stroke-width="1.44" id="154" cy="2.84616" fill="none" stroke="black" />
     <g cx="2.42064" r="1.98" stroke-width="1.44" id="155" cy="2.84616" fill="none" stroke="black" />
    </g>
   </g>
  </g>
 </g>
 <g partID="854116971">
  <g transform="translate(151.954,157.198)">
   <g id="copper1" >
    <g id="copper0" >
     <g cx="20.8462" r="1.98" stroke-width="1.44" id="156" cy="15.6024" fill="none" stroke="black" />
     <g cx="2.42064" r="1.98" stroke-width="1.44" id="157" cy="15.6024" fill="none" stroke="black" />
     <g cx="20.8462" r="1.98" stroke-width="1.44" id="158" cy="2.84616" fill="none" stroke="black" />
     <g cx="2.42064" r="1.98" stroke-width="1.44" id="159" cy="2.84616" fill="none" stroke="black" />
    </g>
   </g>
  </g>
 </g>
 <g partID="854116111">
  <g transform="translate(151.954,128.398)">
   <g id="copper1" >
    <g id="copper0" >
     <g cx="20.8462" r="1.98" stroke-width="1.44" id="160" cy="15.6024" fill="none" stroke="black" />
     <g cx="2.42064" r="1.98" stroke-width="1.44" id="161" cy="15.6024" fill="none" stroke="black" />
     <g cx="20.8462" r="1.98" stroke-width="1.44" id="162" cy="2.84616" fill="none" stroke="black" />
     <g cx="2.42064" r="1.98" stroke-width="1.44" id="163" cy="2.84616" fill="none" stroke="black" />
    </g>
   </g>
  </g>
 </g>
 <g partID="59361">
  <g transform="translate(215.698,18.7097)">
   <g transform="matrix(1,0,0,1,0,0)">
    <g id="copper1" >
     <g id="copper0" >
      <circle cx="39.5497" r="2.088" stroke-width="0" id="164" cy="19.1675" fill="black" stroke="none" />
      <circle r="2.088" cx="25.8247" stroke-width="0" id="165" cy="19.1675" fill="black" stroke="none" />
      <circle cx="24.9997" r="2.52" stroke-width="0" id="166" cy="10.5425" fill="black" stroke="none" />
      <circle r="2.52" cx="40.4497" stroke-width="0" id="167" cy="10.5425" fill="black" stroke="none" />
      <g x="0" stroke-width="0" id="168" height="5.616" fill="black" width="10.344" y="7.30777" />
      <g x="0.027" stroke-width="0" id="169" height="5.616" fill="black" width="10.368" y="14.5078" />
      <g x="0.027" stroke-width="0" id="170" height="5.616" fill="black" width="10.368" y="21.7078" />
      <g x="0" stroke-width="0" id="171" height="5.616" fill="black" width="10.368" y="28.9078" />
      <g x="0.027" stroke-width="0" id="172" height="5.616" fill="black" width="10.368" y="36.1078" />
      <g x="0.027" stroke-width="0" id="173" height="5.616" fill="black" width="10.368" y="43.3078" />
      <g x="0.027" stroke-width="0" id="174" height="5.616" fill="black" width="10.368" y="50.5078" />
      <g x="0.027" stroke-width="0" id="175" height="5.616" fill="black" width="10.368" y="57.7078" />
      <g x="0.027" stroke-width="0" id="176" height="5.616" fill="black" width="10.368" y="64.9078" />
      <g x="0.027" stroke-width="0" id="177" height="5.616" fill="black" width="10.368" y="72.1078" />
      <g x="0.027" stroke-width="0" id="178" height="5.616" fill="black" width="10.368" y="79.3078" />
      <g x="0.027" stroke-width="0" id="179" height="5.616" fill="black" width="10.368" y="86.5078" />
      <g x="0.027" stroke-width="0" id="180" height="5.616" fill="black" width="10.368" y="93.7078" />
      <g x="0.027" stroke-width="0" id="181" height="5.616" fill="black" width="10.368" y="100.908" />
      <g x="0.027" stroke-width="0" id="182" height="5.616" fill="black" width="10.368" y="108.108" />
      <g x="0.027" stroke-width="0" id="183" height="5.616" fill="black" width="10.368" y="115.308" />
      <g x="0.027" stroke-width="0" id="184" height="5.616" fill="black" width="10.368" y="122.508" />
      <g x="0.027" stroke-width="0" id="185" height="5.616" fill="black" width="10.368" y="129.708" />
      <g x="0.027" stroke-width="0" id="186" height="5.616" fill="black" width="10.368" y="136.908" />
      <g x="0.027" stroke-width="0" id="187" height="5.616" fill="black" width="10.368" y="144.108" />
      <g x="55.08" stroke-width="0" id="188" height="5.616" fill="black" width="10.368" y="144.108" />
      <g x="55.08" stroke-width="0" id="189" height="5.616" fill="black" width="10.368" y="136.908" />
      <g x="55.08" stroke-width="0" id="190" height="5.616" fill="black" width="10.368" y="129.708" />
      <g x="55.08" stroke-width="0" id="191" height="5.616" fill="black" width="10.368" y="122.508" />
      <g x="55.08" stroke-width="0" id="192" height="5.616" fill="black" width="10.368" y="115.308" />
      <g x="55.08" stroke-width="0" id="193" height="5.616" fill="black" width="10.368" y="108.108" />
      <g x="55.08" stroke-width="0" id="194" height="5.616" fill="black" width="10.368" y="100.908" />
      <g x="55.08" stroke-width="0" id="195" height="5.616" fill="black" width="10.368" y="93.7078" />
      <g x="55.08" stroke-width="0" id="196" height="5.616" fill="black" width="10.368" y="86.5078" />
      <g x="55.08" stroke-width="0" id="197" height="5.616" fill="black" width="10.368" y="79.3078" />
      <g x="55.08" stroke-width="0" id="198" height="5.616" fill="black" width="10.368" y="72.1078" />
      <g x="55.08" stroke-width="0" id="199" height="5.616" fill="black" width="10.368" y="64.9078" />
      <g x="55.08" stroke-width="0" id="200" height="5.616" fill="black" width="10.368" y="57.7078" />
      <g x="55.08" stroke-width="0" id="201" height="5.616" fill="black" width="10.368" y="50.5078" />
      <g x="55.08" stroke-width="0" id="202" height="5.616" fill="black" width="10.368" y="43.3078" />
      <g x="55.08" stroke-width="0" id="203" height="5.616" fill="black" width="10.368" y="36.1078" />
      <g x="55.08" stroke-width="0" id="204" height="5.616" fill="black" width="10.368" y="28.9078" />
      <g x="55.08" stroke-width="0" id="205" height="5.616" fill="black" width="10.368" y="21.7078" />
      <g x="55.08" stroke-width="0" id="206" height="5.616" fill="black" width="10.368" y="14.5078" />
      <g x="55.08" stroke-width="0" id="207" height="5.616" fill="black" width="10.368" y="7.30777" />
      <g x="22.68" stroke-width="0" id="208" height="10.368" fill="black" width="5.616" y="143.46" />
      <g x="29.88" stroke-width="0" id="209" height="10.368" fill="black" width="5.616" y="143.46" />
      <g x="37.08" stroke-width="0" id="210" height="10.368" fill="black" width="5.616" y="143.46" />
      <g cx="7.533" r="2.088" stroke-width="1.44" id="211" cy="10.0868" fill="black" stroke="black" />
      <g r="2.088" cx="7.533" stroke-width="1.44" id="212" cy="17.2903" fill="black" stroke="black" />
      <g cx="7.533" r="2.088" stroke-width="1.44" id="213" cy="24.4903" fill="black" stroke="black" />
      <g r="2.088" cx="7.533" stroke-width="1.44" id="214" cy="31.6903" fill="black" stroke="black" />
      <g cx="7.533" r="2.088" stroke-width="1.44" id="215" cy="38.8903" fill="black" stroke="black" />
      <g r="2.088" cx="7.533" stroke-width="1.44" id="216" cy="46.0903" fill="black" stroke="black" />
      <g cx="7.533" r="2.088" stroke-width="1.44" id="217" cy="53.2903" fill="black" stroke="black" />
      <g r="2.088" cx="7.533" stroke-width="1.44" id="218" cy="60.4903" fill="black" stroke="black" />
      <g cx="7.533" r="2.088" stroke-width="1.44" id="219" cy="67.6903" fill="black" stroke="black" />
      <g r="2.088" cx="7.533" stroke-width="1.44" id="220" cy="74.8903" fill="black" stroke="black" />
      <g cx="7.533" r="2.088" stroke-width="1.44" id="221" cy="82.0903" fill="black" stroke="black" />
      <g r="2.088" cx="7.533" stroke-width="1.44" id="222" cy="89.2903" fill="black" stroke="black" />
      <g cx="7.533" r="2.088" stroke-width="1.44" id="223" cy="96.4903" fill="black" stroke="black" />
      <g r="2.088" cx="7.533" stroke-width="1.44" id="224" cy="103.69" fill="black" stroke="black" />
      <g cx="7.533" r="2.088" stroke-width="1.44" id="225" cy="110.89" fill="black" stroke="black" />
      <g r="2.088" cx="7.533" stroke-width="1.44" id="226" cy="118.09" fill="black" stroke="black" />
      <g cx="7.533" r="2.088" stroke-width="1.44" id="227" cy="125.29" fill="black" stroke="black" />
      <g r="2.088" cx="7.533" stroke-width="1.44" id="228" cy="132.49" fill="black" stroke="black" />
      <g cx="7.533" r="2.088" stroke-width="1.44" id="229" cy="139.69" fill="black" stroke="black" />
      <g r="2.088" cx="7.533" stroke-width="1.44" id="230" cy="146.89" fill="black" stroke="black" />
      <g cx="57.9015" r="2.088" stroke-width="1.44" id="231" cy="146.89" fill="black" stroke="black" />
      <g r="2.088" cx="57.9015" stroke-width="1.44" id="232" cy="139.69" fill="black" stroke="black" />
      <g cx="57.9015" r="2.088" stroke-width="1.44" id="233" cy="132.49" fill="black" stroke="black" />
      <g r="2.088" cx="57.9015" stroke-width="1.44" id="234" cy="125.29" fill="black" stroke="black" />
      <g cx="57.9015" r="2.088" stroke-width="1.44" id="235" cy="118.09" fill="black" stroke="black" />
      <g r="2.088" cx="57.9015" stroke-width="1.44" id="236" cy="110.89" fill="black" stroke="black" />
      <g cx="57.9015" r="2.088" stroke-width="1.44" id="237" cy="103.69" fill="black" stroke="black" />
      <g r="2.088" cx="57.9015" stroke-width="1.44" id="238" cy="96.4903" fill="black" stroke="black" />
      <g cx="57.9015" r="2.088" stroke-width="1.44" id="239" cy="89.2903" fill="black" stroke="black" />
      <g r="2.088" cx="57.9015" stroke-width="1.44" id="240" cy="82.0903" fill="black" stroke="black" />
      <g cx="57.9015" r="2.088" stroke-width="1.44" id="241" cy="74.8903" fill="black" stroke="black" />
      <g r="2.088" cx="57.9015" stroke-width="1.44" id="242" cy="67.6903" fill="black" stroke="black" />
      <g cx="57.9015" r="2.088" stroke-width="1.44" id="243" cy="60.4903" fill="black" stroke="black" />
      <g r="2.088" cx="57.9015" stroke-width="1.44" id="244" cy="53.2903" fill="black" stroke="black" />
      <g cx="57.9015" r="2.088" stroke-width="1.44" id="245" cy="46.0903" fill="black" stroke="black" />
      <g r="2.088" cx="57.9015" stroke-width="1.44" id="246" cy="38.8903" fill="black" stroke="black" />
      <g cx="57.9015" r="2.088" stroke-width="1.44" id="247" cy="31.6903" fill="black" stroke="black" />
      <g r="2.088" cx="57.9015" stroke-width="1.44" id="248" cy="24.4903" fill="black" stroke="black" />
      <g cx="57.9015" r="2.088" stroke-width="1.44" id="249" cy="17.2903" fill="black" stroke="black" />
      <g r="2.088" cx="57.9015" stroke-width="1.44" id="250" cy="10.0903" fill="black" stroke="black" />
      <g cx="25.5015" r="2.088" stroke-width="1.44" id="251" cy="146.89" fill="black" stroke="black" />
      <g r="2.088" cx="32.7015" stroke-width="1.44" id="252" cy="146.89" fill="black" stroke="black" />
      <g cx="39.9015" r="2.088" stroke-width="1.44" id="253" cy="146.89" fill="black" stroke="black" />
     </g>
    </g>
   </g>
  </g>
 </g>
 <g partID="62041">
  <g transform="translate(202.752,197.856)">
   <g id="copper1" >
    <g cx="6.048" r="1.512" stroke-width="0.72" id="254" cy="25.344" fill="none" stroke="black"  connectorname="1"/>
    <g stroke-width="0" id="255" fill="black" stroke="none"  d="m6.048,21.6a1.872,1.872,0,0,1,1.872,1.872l0,3.744a1.872,1.872,0,0,1,-1.872,1.872l0,0a1.872,1.872,0,0,1,-1.872,-1.872l0,-3.744a1.872,1.872,0,0,1,1.872,-1.872l0,0zM4.896,25.344a1.152,1.152,0,1,0,2.304,0,1.152,1.152,0,1,0,-2.304,0z"/>
    <g cx="13.248" r="1.512" stroke-width="0.72" id="256" cy="25.344" fill="none" stroke="black"  connectorname="2"/>
    <g stroke-width="0" id="257" fill="black" stroke="none"  d="m13.248,21.6a1.872,1.872,0,0,1,1.872,1.872l0,3.744a1.872,1.872,0,0,1,-1.872,1.872l0,0a1.872,1.872,0,0,1,-1.872,-1.872l0,-3.744a1.872,1.872,0,0,1,1.872,-1.872l0,0zM12.096,25.344a1.152,1.152,0,1,0,2.304,0,1.152,1.152,0,1,0,-2.304,0z"/>
    <g cx="13.248" r="1.512" stroke-width="0.72" id="258" cy="3.744" fill="none" stroke="black"  connectorname="3"/>
    <g stroke-width="0" id="259" fill="black" stroke="none"  d="m13.248,0a1.872,1.872,0,0,1,1.872,1.872l0,3.744a1.872,1.872,0,0,1,-1.872,1.872l0,0a1.872,1.872,0,0,1,-1.872,-1.872l0,-3.744a1.872,1.872,0,0,1,1.872,-1.872l0,0zM12.096,3.744a1.152,1.152,0,1,0,2.304,0,1.152,1.152,0,1,0,-2.304,0z"/>
    <g cx="6.048" r="1.512" stroke-width="0.72" id="260" cy="3.744" fill="none" stroke="black"  connectorname="4"/>
    <g stroke-width="0" id="261" fill="black" stroke="none"  d="m6.048,0a1.872,1.872,0,0,1,1.872,1.872l0,3.744a1.872,1.872,0,0,1,-1.872,1.872l0,0a1.872,1.872,0,0,1,-1.872,-1.872l0,-3.744a1.872,1.872,0,0,1,1.872,-1.872l0,0zM4.896,3.744a1.152,1.152,0,1,0,2.304,0,1.152,1.152,0,1,0,-2.304,0z"/>
    <g id="copper0" >
     <g cx="6.048" r="1.512" stroke-width="0.72" id="262" cy="25.344" fill="none" stroke="black"  connectorname="1"/>
     <g stroke-width="0" id="263" fill="black" stroke="none"  d="m6.048,21.6a1.872,1.872,0,0,1,1.872,1.872l0,3.744a1.872,1.872,0,0,1,-1.872,1.872l0,0a1.872,1.872,0,0,1,-1.872,-1.872l0,-3.744a1.872,1.872,0,0,1,1.872,-1.872l0,0zM4.896,25.344a1.152,1.152,0,1,0,2.304,0,1.152,1.152,0,1,0,-2.304,0z"/>
     <g cx="13.248" r="1.512" stroke-width="0.72" id="264" cy="25.344" fill="none" stroke="black"  connectorname="2"/>
     <g stroke-width="0" id="265" fill="black" stroke="none"  d="m13.248,21.6a1.872,1.872,0,0,1,1.872,1.872l0,3.744a1.872,1.872,0,0,1,-1.872,1.872l0,0a1.872,1.872,0,0,1,-1.872,-1.872l0,-3.744a1.872,1.872,0,0,1,1.872,-1.872l0,0zM12.096,25.344a1.152,1.152,0,1,0,2.304,0,1.152,1.152,0,1,0,-2.304,0z"/>
     <g cx="13.248" r="1.512" stroke-width="0.72" id="266" cy="3.744" fill="none" stroke="black"  connectorname="3"/>
     <g stroke-width="0" id="267" fill="black" stroke="none"  d="m13.248,0a1.872,1.872,0,0,1,1.872,1.872l0,3.744a1.872,1.872,0,0,1,-1.872,1.872l0,0a1.872,1.872,0,0,1,-1.872,-1.872l0,-3.744a1.872,1.872,0,0,1,1.872,-1.872l0,0zM12.096,3.744a1.152,1.152,0,1,0,2.304,0,1.152,1.152,0,1,0,-2.304,0z"/>
     <g cx="6.048" r="1.512" stroke-width="0.72" id="268" cy="3.744" fill="none" stroke="black"  connectorname="4"/>
     <g stroke-width="0" id="269" fill="black" stroke="none"  d="m6.048,0a1.872,1.872,0,0,1,1.872,1.872l0,3.744a1.872,1.872,0,0,1,-1.872,1.872l0,0a1.872,1.872,0,0,1,-1.872,-1.872l0,-3.744a1.872,1.872,0,0,1,1.872,-1.872l0,0zM4.896,3.744a1.152,1.152,0,1,0,2.304,0,1.152,1.152,0,1,0,-2.304,0z"/>
    </g>
   </g>
  </g>
 </g>
 <g partID="62071">
  <g transform="translate(188.352,197.856)">
   <g id="copper1" >
    <g cx="6.048" r="1.512" stroke-width="0.72" id="270" cy="25.344" fill="none" stroke="black"  connectorname="1"/>
    <g stroke-width="0" id="271" fill="black" stroke="none"  d="m6.048,21.6a1.872,1.872,0,0,1,1.872,1.872l0,3.744a1.872,1.872,0,0,1,-1.872,1.872l0,0a1.872,1.872,0,0,1,-1.872,-1.872l0,-3.744a1.872,1.872,0,0,1,1.872,-1.872l0,0zM4.896,25.344a1.152,1.152,0,1,0,2.304,0,1.152,1.152,0,1,0,-2.304,0z"/>
    <g cx="13.248" r="1.512" stroke-width="0.72" id="272" cy="25.344" fill="none" stroke="black"  connectorname="2"/>
    <g stroke-width="0" id="273" fill="black" stroke="none"  d="m13.248,21.6a1.872,1.872,0,0,1,1.872,1.872l0,3.744a1.872,1.872,0,0,1,-1.872,1.872l0,0a1.872,1.872,0,0,1,-1.872,-1.872l0,-3.744a1.872,1.872,0,0,1,1.872,-1.872l0,0zM12.096,25.344a1.152,1.152,0,1,0,2.304,0,1.152,1.152,0,1,0,-2.304,0z"/>
    <g cx="13.248" r="1.512" stroke-width="0.72" id="274" cy="3.744" fill="none" stroke="black"  connectorname="3"/>
    <g stroke-width="0" id="275" fill="black" stroke="none"  d="m13.248,0a1.872,1.872,0,0,1,1.872,1.872l0,3.744a1.872,1.872,0,0,1,-1.872,1.872l0,0a1.872,1.872,0,0,1,-1.872,-1.872l0,-3.744a1.872,1.872,0,0,1,1.872,-1.872l0,0zM12.096,3.744a1.152,1.152,0,1,0,2.304,0,1.152,1.152,0,1,0,-2.304,0z"/>
    <g cx="6.048" r="1.512" stroke-width="0.72" id="276" cy="3.744" fill="none" stroke="black"  connectorname="4"/>
    <g stroke-width="0" id="277" fill="black" stroke="none"  d="m6.048,0a1.872,1.872,0,0,1,1.872,1.872l0,3.744a1.872,1.872,0,0,1,-1.872,1.872l0,0a1.872,1.872,0,0,1,-1.872,-1.872l0,-3.744a1.872,1.872,0,0,1,1.872,-1.872l0,0zM4.896,3.744a1.152,1.152,0,1,0,2.304,0,1.152,1.152,0,1,0,-2.304,0z"/>
    <g id="copper0" >
     <g cx="6.048" r="1.512" stroke-width="0.72" id="278" cy="25.344" fill="none" stroke="black"  connectorname="1"/>
     <g stroke-width="0" id="279" fill="black" stroke="none"  d="m6.048,21.6a1.872,1.872,0,0,1,1.872,1.872l0,3.744a1.872,1.872,0,0,1,-1.872,1.872l0,0a1.872,1.872,0,0,1,-1.872,-1.872l0,-3.744a1.872,1.872,0,0,1,1.872,-1.872l0,0zM4.896,25.344a1.152,1.152,0,1,0,2.304,0,1.152,1.152,0,1,0,-2.304,0z"/>
     <g cx="13.248" r="1.512" stroke-width="0.72" id="280" cy="25.344" fill="none" stroke="black"  connectorname="2"/>
     <g stroke-width="0" id="281" fill="black" stroke="none"  d="m13.248,21.6a1.872,1.872,0,0,1,1.872,1.872l0,3.744a1.872,1.872,0,0,1,-1.872,1.872l0,0a1.872,1.872,0,0,1,-1.872,-1.872l0,-3.744a1.872,1.872,0,0,1,1.872,-1.872l0,0zM12.096,25.344a1.152,1.152,0,1,0,2.304,0,1.152,1.152,0,1,0,-2.304,0z"/>
     <g cx="13.248" r="1.512" stroke-width="0.72" id="282" cy="3.744" fill="none" stroke="black"  connectorname="3"/>
     <g stroke-width="0" id="283" fill="black" stroke="none"  d="m13.248,0a1.872,1.872,0,0,1,1.872,1.872l0,3.744a1.872,1.872,0,0,1,-1.872,1.872l0,0a1.872,1.872,0,0,1,-1.872,-1.872l0,-3.744a1.872,1.872,0,0,1,1.872,-1.872l0,0zM12.096,3.744a1.152,1.152,0,1,0,2.304,0,1.152,1.152,0,1,0,-2.304,0z"/>
     <g cx="6.048" r="1.512" stroke-width="0.72" id="284" cy="3.744" fill="none" stroke="black"  connectorname="4"/>
     <g stroke-width="0" id="285" fill="black" stroke="none"  d="m6.048,0a1.872,1.872,0,0,1,1.872,1.872l0,3.744a1.872,1.872,0,0,1,-1.872,1.872l0,0a1.872,1.872,0,0,1,-1.872,-1.872l0,-3.744a1.872,1.872,0,0,1,1.872,-1.872l0,0zM4.896,3.744a1.152,1.152,0,1,0,2.304,0,1.152,1.152,0,1,0,-2.304,0z"/>
    </g>
   </g>
  </g>
 </g>
 <g partID="63771">
  <g transform="translate(226.8,190.8)">
   <g id="copper1" >
    <g id="copper0" >
     <g cx="3.6" r="1.908" stroke-width="1.224" id="286" fill="none" cy="10.8" stroke="black" />
     <g x="1.692" stroke-width="1.224" id="287" fill="none" height="3.816" stroke="black" width="3.813" y="8.892" />
     <g cx="3.6" r="1.908" stroke-width="1.224" id="288" fill="none" cy="18" stroke="black" />
     <g cx="3.6" r="1.908" stroke-width="1.224" id="289" fill="none" cy="25.2" stroke="black" />
     <g cx="3.6" r="1.908" stroke-width="1.224" id="290" fill="none" cy="32.4" stroke="black" />
     <g cx="3.6" r="1.908" stroke-width="1.224" id="291" fill="none" cy="39.6" stroke="black" />
     <g cx="3.6" r="1.908" stroke-width="1.224" id="292" fill="none" cy="46.8" stroke="black" />
     <g cx="3.6" r="1.908" stroke-width="1.224" id="293" fill="none" cy="54" stroke="black" />
     <g cx="3.6" r="1.908" stroke-width="1.224" id="294" fill="none" cy="61.2" stroke="black" />
     <g cx="3.6" r="1.908" stroke-width="1.224" id="295" fill="none" cy="68.4" stroke="black" />
     <g cx="3.6" r="1.908" stroke-width="1.224" id="296" fill="none" cy="75.6" stroke="black" />
     <g cx="3.6" r="1.908" stroke-width="1.224" id="297" fill="none" cy="82.8" stroke="black" />
     <g cx="3.6" r="1.908" stroke-width="1.224" id="298" fill="none" cy="90" stroke="black" />
     <g cx="3.6" r="1.908" stroke-width="1.224" id="299" fill="none" cy="97.2" stroke="black" />
     <g cx="3.6" r="1.908" stroke-width="1.224" id="300" fill="none" cy="104.4" stroke="black" />
     <g cx="3.6" r="1.908" stroke-width="1.224" id="301" fill="none" cy="111.6" stroke="black" />
     <g cx="46.8" r="1.908" stroke-width="1.224" id="302" fill="none" cy="10.8" stroke="black" />
     <g cx="46.8" r="1.908" stroke-width="1.224" id="303" fill="none" cy="18" stroke="black" />
     <g cx="46.8" r="1.908" stroke-width="1.224" id="304" fill="none" cy="25.2" stroke="black" />
     <g cx="46.8" r="1.908" stroke-width="1.224" id="305" fill="none" cy="32.4" stroke="black" />
     <g cx="46.8" r="1.908" stroke-width="1.224" id="306" fill="none" cy="39.6" stroke="black" />
     <g cx="46.8" r="1.908" stroke-width="1.224" id="307" fill="none" cy="46.8" stroke="black" />
     <g cx="46.8" r="1.908" stroke-width="1.224" id="308" fill="none" cy="54" stroke="black" />
     <g cx="46.8" r="1.908" stroke-width="1.224" id="309" fill="none" cy="61.2" stroke="black" />
     <g cx="46.8" r="1.908" stroke-width="1.224" id="310" fill="none" cy="68.4" stroke="black" />
     <g cx="46.8" r="1.908" stroke-width="1.224" id="311" fill="none" cy="75.6" stroke="black" />
     <g cx="46.8" r="1.908" stroke-width="1.224" id="312" fill="none" cy="82.8" stroke="black" />
     <g cx="46.8" r="1.908" stroke-width="1.224" id="313" fill="none" cy="90" stroke="black" />
     <g cx="46.8" r="1.908" stroke-width="1.224" id="314" fill="none" cy="97.2" stroke="black" />
     <g cx="46.8" r="1.908" stroke-width="1.224" id="315" fill="none" cy="104.4" stroke="black" />
     <g cx="46.8" r="1.908" stroke-width="1.224" id="316" fill="none" cy="111.6" stroke="black" />
     <g cx="18.017" r="1.908" stroke-width="1.224" id="317" fill="none" cy="3.917" stroke="black" />
     <g cx="18.017" r="1.908" stroke-width="1.224" id="318" fill="none" cy="11.116" stroke="black" />
     <g cx="25.22" r="1.908" stroke-width="1.224" id="319" fill="none" cy="3.917" stroke="black" />
     <g cx="25.22" r="1.908" stroke-width="1.224" id="320" fill="none" cy="11.116" stroke="black" />
     <g cx="32.433" r="1.908" stroke-width="1.224" id="321" fill="none" cy="3.917" stroke="black" />
     <g cx="32.433" r="1.908" stroke-width="1.224" id="322" fill="none" cy="11.116" stroke="black" />
    </g>
   </g>
  </g>
 </g>
 <g partID="854100341">
  <g transform="translate(172.83,110.444)">
   <g transform="matrix(-1,0,0,-1,0,0)">
    <g id="copper1" >
     <g id="copper0" >
      <g cx="157.384" r="2.088" gorn="0.3.0.0" stroke-width="1.44" id="323" cy="31.2382" fill="none" stroke="black"  connectorname="MOSI"/>
      <g cx="157.384" r="2.088" gorn="0.3.0.1" stroke-width="1.44" id="324" cy="60.0382" fill="none" stroke="black"  connectorname="RESET"/>
      <g cx="7.23006" r="2.088" gorn="0.3.0.2" stroke-width="1.44" id="325" cy="60.0435" fill="none" stroke="black"  connectorname="MISO"/>
      <g cx="157.384" r="2.088" gorn="0.3.0.3" stroke-width="1.44" id="326" cy="45.6383" fill="none" stroke="black"  connectorname="CARDCS"/>
      <g cx="157.384" r="2.088" gorn="0.3.0.4" stroke-width="1.44" id="327" cy="74.4382" fill="none" stroke="black"  connectorname="GND"/>
      <g cx="7.23006" r="2.088" stroke-width="1.44" gorn="0.3.0.5" id="328" fill="none" cy="52.8435" stroke="black"  connectorname="LITE"/>
      <g cx="157.384" r="2.088" gorn="0.3.0.6" stroke-width="1.44" id="329" cy="24.0382" fill="none" stroke="black"  connectorname="SCLK"/>
      <g cx="157.384" r="2.088" gorn="0.3.0.7" stroke-width="1.44" id="330" cy="38.4382" fill="none" stroke="black"  connectorname="TFTCS"/>
      <g cx="157.384" r="2.088" gorn="0.3.0.8" stroke-width="1.44" id="331" cy="52.8383" fill="none" stroke="black"  connectorname="TFTDC"/>
      <g cx="157.384" r="2.088" gorn="0.3.0.9" stroke-width="1.44" id="332" cy="67.2382" fill="none" stroke="black"  connectorname="+5V"/>
      <g cx="7.23006" r="2.088" gorn="0.3.0.5" stroke-width="1.44" id="333" cy="45.6435" fill="none" stroke="black"  connectorname="LITE"/>
      <g cx="7.23006" r="2.088" gorn="0.3.0.5" stroke-width="1.44" id="334" cy="38.4446" fill="none" stroke="black"  connectorname="LITE"/>
      <circle cx="8.62521" r="4.53543" gorn="0.3.0.5" stroke-width="0" id="335" cy="8.64716"  connectorname="LITE"/>
      <circle r="4.53543" cx="8.62521" gorn="0.3.0.5" stroke-width="0" id="336" cy="88.0563"  connectorname="LITE"/>
      <circle r="4.53543" cx="155.94" gorn="0.3.0.5" stroke-width="0" id="337" cy="8.57744"  connectorname="LITE"/>
      <circle cx="155.94" r="4.53543" gorn="0.3.0.5" stroke-width="0" id="338" cy="88.0563"  connectorname="LITE"/>
     </g>
    </g>
   </g>
  </g>
 </g>
</svg>
