<?xml version='1.0' encoding='UTF-8' standalone='no'?>
<!-- Created with Fritzing (https://fritzing.org/) -->
<svg xmlns="http://www.w3.org/2000/svg" xmlns:svg="http://www.w3.org/2000/svg" x="0in" height="4.5074in" viewBox="0 0 310.391 324.533" version="1.2" width="4.31098in" baseProfile="tiny" y="0in" >
 <g transform="matrix(-1, 0, 0, 1, 310.391, 0)">
  <g partID="57831">
   <g id="silkscreen0">
    <rect stroke-width="0.576" x="0.288" fill="none" height="323.957" stroke="black" width="309.815" y="0.288"/>
   </g>
  </g>
  <g partID="57830">
   <g id="board">
    <rect stroke-width="0.5" x="0.288" id="boardoutline" fill="none" height="323.957" stroke="black" width="309.815" y="0.288" fill-opacity="0.5"/>
   </g>
  </g>
  <g partID="57831">
   <g id="silkscreen0">
    <rect stroke-width="0.576" x="0.288" fill="none" height="323.957" stroke="black" width="309.815" y="0.288"/>
   </g>
  </g>
  <g partID="854323480">
   <g transform="translate(241.782,155.382)">
    <g id="copper0">
     <circle cx="3.01733" r="0.992124" stroke-width="1.57039" id="connector0pin" fill="white" cy="3.01733" stroke="white"/>
    </g>
   </g>
  </g>
  <g partID="854266210">
   <g transform="translate(292.182,83.3826)">
    <g id="copper0">
     <circle cx="3.01733" r="0.992124" stroke-width="1.57039" id="connector0pin" fill="white" cy="3.01733" stroke="white"/>
    </g>
   </g>
  </g>
  <g partID="854266240">
   <g transform="translate(284.982,90.5826)">
    <g id="copper0">
     <circle cx="3.01733" r="0.992124" stroke-width="1.57039" id="connector0pin" fill="white" cy="3.01733" stroke="white"/>
    </g>
   </g>
  </g>
  <g partID="854266970">
   <g transform="translate(284.982,104.983)">
    <g id="copper0">
     <circle cx="3.01733" r="0.992124" stroke-width="1.57039" id="connector0pin" fill="white" cy="3.01733" stroke="white"/>
    </g>
   </g>
  </g>
  <g partID="854269510">
   <g transform="translate(47.3824,68.9826)">
    <g id="copper0">
     <circle cx="3.01733" r="0.992124" stroke-width="1.57039" id="connector0pin" fill="white" cy="3.01733" stroke="white"/>
    </g>
   </g>
  </g>
  <g partID="854269720">
   <g transform="translate(241.782,119.382)">
    <g id="copper0">
     <circle cx="3.01733" r="0.992124" stroke-width="1.57039" id="connector0pin" fill="white" cy="3.01733" stroke="white"/>
    </g>
   </g>
  </g>
  <g partID="854269750">
   <g transform="translate(241.782,133.782)">
    <g id="copper0">
     <circle cx="3.01733" r="0.992124" stroke-width="1.57039" id="connector0pin" fill="white" cy="3.01733" stroke="white"/>
    </g>
   </g>
  </g>
  <g partID="854271800">
   <g transform="translate(297.682,2.48184)">
    <g id="copper0">
     <circle cx="4.71811" r="3.11811" stroke-width="0.72" id="nonconn0" fill="white" cy="4.71811" stroke="white"/>
    </g>
   </g>
  </g>
  <g partID="854271830">
   <g transform="translate(2.48184,2.48184)">
    <g id="copper0">
     <circle cx="4.71811" r="3.11811" stroke-width="0.72" id="nonconn0" fill="white" cy="4.71811" stroke="white"/>
    </g>
   </g>
  </g>
  <g partID="854271860">
   <g transform="translate(2.48184,312.082)">
    <g id="copper0">
     <circle cx="4.71811" r="3.11811" stroke-width="0.72" id="nonconn0" fill="white" cy="4.71811" stroke="white"/>
    </g>
   </g>
  </g>
  <g partID="854273620">
   <g transform="translate(297.682,312.082)">
    <g id="copper0">
     <circle cx="4.71811" r="3.11811" stroke-width="0.72" id="nonconn0" fill="white" cy="4.71811" stroke="white"/>
    </g>
   </g>
  </g>
  <g partID="854118600">
   <g transform="translate(7.95384,272.398)">
    <g id="copper0">
     <circle cx="20.8462" r="1.98" stroke-width="2.16" id="connector0pad" cy="15.6024" fill="white" stroke="white"/>
     <circle cx="2.42064" r="1.98" stroke-width="2.16" id="connector1pad" cy="15.6024" fill="white" stroke="white"/>
     <circle cx="20.8462" r="1.98" stroke-width="2.16" id="connector2pad" cy="2.84616" fill="white" stroke="white"/>
     <circle cx="2.42064" r="1.98" stroke-width="2.16" id="connector3pad" cy="2.84616" fill="white" stroke="white"/>
    </g>
   </g>
  </g>
  <g partID="854118180">
   <g transform="translate(7.95384,243.598)">
    <g id="copper0">
     <circle cx="20.8462" r="1.98" stroke-width="2.16" id="connector0pad" cy="15.6024" fill="white" stroke="white"/>
     <circle cx="2.42064" r="1.98" stroke-width="2.16" id="connector1pad" cy="15.6024" fill="white" stroke="white"/>
     <circle cx="20.8462" r="1.98" stroke-width="2.16" id="connector2pad" cy="2.84616" fill="white" stroke="white"/>
     <circle cx="2.42064" r="1.98" stroke-width="2.16" id="connector3pad" cy="2.84616" fill="white" stroke="white"/>
    </g>
   </g>
  </g>
  <g partID="854117760">
   <g transform="translate(7.95384,214.798)">
    <g id="copper0">
     <circle cx="20.8462" r="1.98" stroke-width="2.16" id="connector0pad" cy="15.6024" fill="white" stroke="white"/>
     <circle cx="2.42064" r="1.98" stroke-width="2.16" id="connector1pad" cy="15.6024" fill="white" stroke="white"/>
     <circle cx="20.8462" r="1.98" stroke-width="2.16" id="connector2pad" cy="2.84616" fill="white" stroke="white"/>
     <circle cx="2.42064" r="1.98" stroke-width="2.16" id="connector3pad" cy="2.84616" fill="white" stroke="white"/>
    </g>
   </g>
  </g>
  <g partID="854117340">
   <g transform="translate(7.95384,185.998)">
    <g id="copper0">
     <circle cx="20.8462" r="1.98" stroke-width="2.16" id="connector0pad" cy="15.6024" fill="white" stroke="white"/>
     <circle cx="2.42064" r="1.98" stroke-width="2.16" id="connector1pad" cy="15.6024" fill="white" stroke="white"/>
     <circle cx="20.8462" r="1.98" stroke-width="2.16" id="connector2pad" cy="2.84616" fill="white" stroke="white"/>
     <circle cx="2.42064" r="1.98" stroke-width="2.16" id="connector3pad" cy="2.84616" fill="white" stroke="white"/>
    </g>
   </g>
  </g>
  <g partID="854116920">
   <g transform="translate(7.95384,157.198)">
    <g id="copper0">
     <circle cx="20.8462" r="1.98" stroke-width="2.16" id="connector0pad" cy="15.6024" fill="white" stroke="white"/>
     <circle cx="2.42064" r="1.98" stroke-width="2.16" id="connector1pad" cy="15.6024" fill="white" stroke="white"/>
     <circle cx="20.8462" r="1.98" stroke-width="2.16" id="connector2pad" cy="2.84616" fill="white" stroke="white"/>
     <circle cx="2.42064" r="1.98" stroke-width="2.16" id="connector3pad" cy="2.84616" fill="white" stroke="white"/>
    </g>
   </g>
  </g>
  <g partID="854115960">
   <g transform="translate(7.95384,128.398)">
    <g id="copper0">
     <circle cx="20.8462" r="1.98" stroke-width="2.16" id="connector0pad" cy="15.6024" fill="white" stroke="white"/>
     <circle cx="2.42064" r="1.98" stroke-width="2.16" id="connector1pad" cy="15.6024" fill="white" stroke="white"/>
     <circle cx="20.8462" r="1.98" stroke-width="2.16" id="connector2pad" cy="2.84616" fill="white" stroke="white"/>
     <circle cx="2.42064" r="1.98" stroke-width="2.16" id="connector3pad" cy="2.84616" fill="white" stroke="white"/>
    </g>
   </g>
  </g>
  <g partID="854118610">
   <g transform="translate(36.7536,272.398)">
    <g id="copper0">
     <circle cx="20.8462" r="1.98" stroke-width="2.16" id="connector0pad" cy="15.6024" fill="white" stroke="white"/>
     <circle cx="2.42064" r="1.98" stroke-width="2.16" id="connector1pad" cy="15.6024" fill="white" stroke="white"/>
     <circle cx="20.8462" r="1.98" stroke-width="2.16" id="connector2pad" cy="2.84616" fill="white" stroke="white"/>
     <circle cx="2.42064" r="1.98" stroke-width="2.16" id="connector3pad" cy="2.84616" fill="white" stroke="white"/>
    </g>
   </g>
  </g>
  <g partID="854118190">
   <g transform="translate(36.7536,243.598)">
    <g id="copper0">
     <circle cx="20.8462" r="1.98" stroke-width="2.16" id="connector0pad" cy="15.6024" fill="white" stroke="white"/>
     <circle cx="2.42064" r="1.98" stroke-width="2.16" id="connector1pad" cy="15.6024" fill="white" stroke="white"/>
     <circle cx="20.8462" r="1.98" stroke-width="2.16" id="connector2pad" cy="2.84616" fill="white" stroke="white"/>
     <circle cx="2.42064" r="1.98" stroke-width="2.16" id="connector3pad" cy="2.84616" fill="white" stroke="white"/>
    </g>
   </g>
  </g>
  <g partID="854117770">
   <g transform="translate(36.7536,214.798)">
    <g id="copper0">
     <circle cx="20.8462" r="1.98" stroke-width="2.16" id="connector0pad" cy="15.6024" fill="white" stroke="white"/>
     <circle cx="2.42064" r="1.98" stroke-width="2.16" id="connector1pad" cy="15.6024" fill="white" stroke="white"/>
     <circle cx="20.8462" r="1.98" stroke-width="2.16" id="connector2pad" cy="2.84616" fill="white" stroke="white"/>
     <circle cx="2.42064" r="1.98" stroke-width="2.16" id="connector3pad" cy="2.84616" fill="white" stroke="white"/>
    </g>
   </g>
  </g>
  <g partID="854117350">
   <g transform="translate(36.7536,185.998)">
    <g id="copper0">
     <circle cx="20.8462" r="1.98" stroke-width="2.16" id="connector0pad" cy="15.6024" fill="white" stroke="white"/>
     <circle cx="2.42064" r="1.98" stroke-width="2.16" id="connector1pad" cy="15.6024" fill="white" stroke="white"/>
     <circle cx="20.8462" r="1.98" stroke-width="2.16" id="connector2pad" cy="2.84616" fill="white" stroke="white"/>
     <circle cx="2.42064" r="1.98" stroke-width="2.16" id="connector3pad" cy="2.84616" fill="white" stroke="white"/>
    </g>
   </g>
  </g>
  <g partID="854116930">
   <g transform="translate(36.7536,157.198)">
    <g id="copper0">
     <circle cx="20.8462" r="1.98" stroke-width="2.16" id="connector0pad" cy="15.6024" fill="white" stroke="white"/>
     <circle cx="2.42064" r="1.98" stroke-width="2.16" id="connector1pad" cy="15.6024" fill="white" stroke="white"/>
     <circle cx="20.8462" r="1.98" stroke-width="2.16" id="connector2pad" cy="2.84616" fill="white" stroke="white"/>
     <circle cx="2.42064" r="1.98" stroke-width="2.16" id="connector3pad" cy="2.84616" fill="white" stroke="white"/>
    </g>
   </g>
  </g>
  <g partID="854115990">
   <g transform="translate(36.7536,128.398)">
    <g id="copper0">
     <circle cx="20.8462" r="1.98" stroke-width="2.16" id="connector0pad" cy="15.6024" fill="white" stroke="white"/>
     <circle cx="2.42064" r="1.98" stroke-width="2.16" id="connector1pad" cy="15.6024" fill="white" stroke="white"/>
     <circle cx="20.8462" r="1.98" stroke-width="2.16" id="connector2pad" cy="2.84616" fill="white" stroke="white"/>
     <circle cx="2.42064" r="1.98" stroke-width="2.16" id="connector3pad" cy="2.84616" fill="white" stroke="white"/>
    </g>
   </g>
  </g>
  <g partID="854118620">
   <g transform="translate(65.5536,272.398)">
    <g id="copper0">
     <circle cx="20.8462" r="1.98" stroke-width="2.16" id="connector0pad" cy="15.6024" fill="white" stroke="white"/>
     <circle cx="2.42064" r="1.98" stroke-width="2.16" id="connector1pad" cy="15.6024" fill="white" stroke="white"/>
     <circle cx="20.8462" r="1.98" stroke-width="2.16" id="connector2pad" cy="2.84616" fill="white" stroke="white"/>
     <circle cx="2.42064" r="1.98" stroke-width="2.16" id="connector3pad" cy="2.84616" fill="white" stroke="white"/>
    </g>
   </g>
  </g>
  <g partID="854118200">
   <g transform="translate(65.5536,243.598)">
    <g id="copper0">
     <circle cx="20.8462" r="1.98" stroke-width="2.16" id="connector0pad" cy="15.6024" fill="white" stroke="white"/>
     <circle cx="2.42064" r="1.98" stroke-width="2.16" id="connector1pad" cy="15.6024" fill="white" stroke="white"/>
     <circle cx="20.8462" r="1.98" stroke-width="2.16" id="connector2pad" cy="2.84616" fill="white" stroke="white"/>
     <circle cx="2.42064" r="1.98" stroke-width="2.16" id="connector3pad" cy="2.84616" fill="white" stroke="white"/>
    </g>
   </g>
  </g>
  <g partID="854117780">
   <g transform="translate(65.5536,214.798)">
    <g id="copper0">
     <circle cx="20.8462" r="1.98" stroke-width="2.16" id="connector0pad" cy="15.6024" fill="white" stroke="white"/>
     <circle cx="2.42064" r="1.98" stroke-width="2.16" id="connector1pad" cy="15.6024" fill="white" stroke="white"/>
     <circle cx="20.8462" r="1.98" stroke-width="2.16" id="connector2pad" cy="2.84616" fill="white" stroke="white"/>
     <circle cx="2.42064" r="1.98" stroke-width="2.16" id="connector3pad" cy="2.84616" fill="white" stroke="white"/>
    </g>
   </g>
  </g>
  <g partID="854117360">
   <g transform="translate(65.5536,185.998)">
    <g id="copper0">
     <circle cx="20.8462" r="1.98" stroke-width="2.16" id="connector0pad" cy="15.6024" fill="white" stroke="white"/>
     <circle cx="2.42064" r="1.98" stroke-width="2.16" id="connector1pad" cy="15.6024" fill="white" stroke="white"/>
     <circle cx="20.8462" r="1.98" stroke-width="2.16" id="connector2pad" cy="2.84616" fill="white" stroke="white"/>
     <circle cx="2.42064" r="1.98" stroke-width="2.16" id="connector3pad" cy="2.84616" fill="white" stroke="white"/>
    </g>
   </g>
  </g>
  <g partID="854116940">
   <g transform="translate(65.5536,157.198)">
    <g id="copper0">
     <circle cx="20.8462" r="1.98" stroke-width="2.16" id="connector0pad" cy="15.6024" fill="white" stroke="white"/>
     <circle cx="2.42064" r="1.98" stroke-width="2.16" id="connector1pad" cy="15.6024" fill="white" stroke="white"/>
     <circle cx="20.8462" r="1.98" stroke-width="2.16" id="connector2pad" cy="2.84616" fill="white" stroke="white"/>
     <circle cx="2.42064" r="1.98" stroke-width="2.16" id="connector3pad" cy="2.84616" fill="white" stroke="white"/>
    </g>
   </g>
  </g>
  <g partID="854116020">
   <g transform="translate(65.5536,128.398)">
    <g id="copper0">
     <circle cx="20.8462" r="1.98" stroke-width="2.16" id="connector0pad" cy="15.6024" fill="white" stroke="white"/>
     <circle cx="2.42064" r="1.98" stroke-width="2.16" id="connector1pad" cy="15.6024" fill="white" stroke="white"/>
     <circle cx="20.8462" r="1.98" stroke-width="2.16" id="connector2pad" cy="2.84616" fill="white" stroke="white"/>
     <circle cx="2.42064" r="1.98" stroke-width="2.16" id="connector3pad" cy="2.84616" fill="white" stroke="white"/>
    </g>
   </g>
  </g>
  <g partID="854118630">
   <g transform="translate(94.3536,272.398)">
    <g id="copper0">
     <circle cx="20.8462" r="1.98" stroke-width="2.16" id="connector0pad" cy="15.6024" fill="white" stroke="white"/>
     <circle cx="2.42064" r="1.98" stroke-width="2.16" id="connector1pad" cy="15.6024" fill="white" stroke="white"/>
     <circle cx="20.8462" r="1.98" stroke-width="2.16" id="connector2pad" cy="2.84616" fill="white" stroke="white"/>
     <circle cx="2.42064" r="1.98" stroke-width="2.16" id="connector3pad" cy="2.84616" fill="white" stroke="white"/>
    </g>
   </g>
  </g>
  <g partID="854118210">
   <g transform="translate(94.3536,243.598)">
    <g id="copper0">
     <circle cx="20.8462" r="1.98" stroke-width="2.16" id="connector0pad" cy="15.6024" fill="white" stroke="white"/>
     <circle cx="2.42064" r="1.98" stroke-width="2.16" id="connector1pad" cy="15.6024" fill="white" stroke="white"/>
     <circle cx="20.8462" r="1.98" stroke-width="2.16" id="connector2pad" cy="2.84616" fill="white" stroke="white"/>
     <circle cx="2.42064" r="1.98" stroke-width="2.16" id="connector3pad" cy="2.84616" fill="white" stroke="white"/>
    </g>
   </g>
  </g>
  <g partID="854117790">
   <g transform="translate(94.3536,214.798)">
    <g id="copper0">
     <circle cx="20.8462" r="1.98" stroke-width="2.16" id="connector0pad" cy="15.6024" fill="white" stroke="white"/>
     <circle cx="2.42064" r="1.98" stroke-width="2.16" id="connector1pad" cy="15.6024" fill="white" stroke="white"/>
     <circle cx="20.8462" r="1.98" stroke-width="2.16" id="connector2pad" cy="2.84616" fill="white" stroke="white"/>
     <circle cx="2.42064" r="1.98" stroke-width="2.16" id="connector3pad" cy="2.84616" fill="white" stroke="white"/>
    </g>
   </g>
  </g>
  <g partID="854117370">
   <g transform="translate(94.3536,185.998)">
    <g id="copper0">
     <circle cx="20.8462" r="1.98" stroke-width="2.16" id="connector0pad" cy="15.6024" fill="white" stroke="white"/>
     <circle cx="2.42064" r="1.98" stroke-width="2.16" id="connector1pad" cy="15.6024" fill="white" stroke="white"/>
     <circle cx="20.8462" r="1.98" stroke-width="2.16" id="connector2pad" cy="2.84616" fill="white" stroke="white"/>
     <circle cx="2.42064" r="1.98" stroke-width="2.16" id="connector3pad" cy="2.84616" fill="white" stroke="white"/>
    </g>
   </g>
  </g>
  <g partID="854116950">
   <g transform="translate(94.3536,157.198)">
    <g id="copper0">
     <circle cx="20.8462" r="1.98" stroke-width="2.16" id="connector0pad" cy="15.6024" fill="white" stroke="white"/>
     <circle cx="2.42064" r="1.98" stroke-width="2.16" id="connector1pad" cy="15.6024" fill="white" stroke="white"/>
     <circle cx="20.8462" r="1.98" stroke-width="2.16" id="connector2pad" cy="2.84616" fill="white" stroke="white"/>
     <circle cx="2.42064" r="1.98" stroke-width="2.16" id="connector3pad" cy="2.84616" fill="white" stroke="white"/>
    </g>
   </g>
  </g>
  <g partID="854116050">
   <g transform="translate(94.3536,128.398)">
    <g id="copper0">
     <circle cx="20.8462" r="1.98" stroke-width="2.16" id="connector0pad" cy="15.6024" fill="white" stroke="white"/>
     <circle cx="2.42064" r="1.98" stroke-width="2.16" id="connector1pad" cy="15.6024" fill="white" stroke="white"/>
     <circle cx="20.8462" r="1.98" stroke-width="2.16" id="connector2pad" cy="2.84616" fill="white" stroke="white"/>
     <circle cx="2.42064" r="1.98" stroke-width="2.16" id="connector3pad" cy="2.84616" fill="white" stroke="white"/>
    </g>
   </g>
  </g>
  <g partID="854118640">
   <g transform="translate(123.154,272.398)">
    <g id="copper0">
     <circle cx="20.8462" r="1.98" stroke-width="2.16" id="connector0pad" cy="15.6024" fill="white" stroke="white"/>
     <circle cx="2.42064" r="1.98" stroke-width="2.16" id="connector1pad" cy="15.6024" fill="white" stroke="white"/>
     <circle cx="20.8462" r="1.98" stroke-width="2.16" id="connector2pad" cy="2.84616" fill="white" stroke="white"/>
     <circle cx="2.42064" r="1.98" stroke-width="2.16" id="connector3pad" cy="2.84616" fill="white" stroke="white"/>
    </g>
   </g>
  </g>
  <g partID="854118220">
   <g transform="translate(123.154,243.598)">
    <g id="copper0">
     <circle cx="20.8462" r="1.98" stroke-width="2.16" id="connector0pad" cy="15.6024" fill="white" stroke="white"/>
     <circle cx="2.42064" r="1.98" stroke-width="2.16" id="connector1pad" cy="15.6024" fill="white" stroke="white"/>
     <circle cx="20.8462" r="1.98" stroke-width="2.16" id="connector2pad" cy="2.84616" fill="white" stroke="white"/>
     <circle cx="2.42064" r="1.98" stroke-width="2.16" id="connector3pad" cy="2.84616" fill="white" stroke="white"/>
    </g>
   </g>
  </g>
  <g partID="854117800">
   <g transform="translate(123.154,214.798)">
    <g id="copper0">
     <circle cx="20.8462" r="1.98" stroke-width="2.16" id="connector0pad" cy="15.6024" fill="white" stroke="white"/>
     <circle cx="2.42064" r="1.98" stroke-width="2.16" id="connector1pad" cy="15.6024" fill="white" stroke="white"/>
     <circle cx="20.8462" r="1.98" stroke-width="2.16" id="connector2pad" cy="2.84616" fill="white" stroke="white"/>
     <circle cx="2.42064" r="1.98" stroke-width="2.16" id="connector3pad" cy="2.84616" fill="white" stroke="white"/>
    </g>
   </g>
  </g>
  <g partID="854117380">
   <g transform="translate(123.154,185.998)">
    <g id="copper0">
     <circle cx="20.8462" r="1.98" stroke-width="2.16" id="connector0pad" cy="15.6024" fill="white" stroke="white"/>
     <circle cx="2.42064" r="1.98" stroke-width="2.16" id="connector1pad" cy="15.6024" fill="white" stroke="white"/>
     <circle cx="20.8462" r="1.98" stroke-width="2.16" id="connector2pad" cy="2.84616" fill="white" stroke="white"/>
     <circle cx="2.42064" r="1.98" stroke-width="2.16" id="connector3pad" cy="2.84616" fill="white" stroke="white"/>
    </g>
   </g>
  </g>
  <g partID="854116960">
   <g transform="translate(123.154,157.198)">
    <g id="copper0">
     <circle cx="20.8462" r="1.98" stroke-width="2.16" id="connector0pad" cy="15.6024" fill="white" stroke="white"/>
     <circle cx="2.42064" r="1.98" stroke-width="2.16" id="connector1pad" cy="15.6024" fill="white" stroke="white"/>
     <circle cx="20.8462" r="1.98" stroke-width="2.16" id="connector2pad" cy="2.84616" fill="white" stroke="white"/>
     <circle cx="2.42064" r="1.98" stroke-width="2.16" id="connector3pad" cy="2.84616" fill="white" stroke="white"/>
    </g>
   </g>
  </g>
  <g partID="854116080">
   <g transform="translate(123.154,128.398)">
    <g id="copper0">
     <circle cx="20.8462" r="1.98" stroke-width="2.16" id="connector0pad" cy="15.6024" fill="white" stroke="white"/>
     <circle cx="2.42064" r="1.98" stroke-width="2.16" id="connector1pad" cy="15.6024" fill="white" stroke="white"/>
     <circle cx="20.8462" r="1.98" stroke-width="2.16" id="connector2pad" cy="2.84616" fill="white" stroke="white"/>
     <circle cx="2.42064" r="1.98" stroke-width="2.16" id="connector3pad" cy="2.84616" fill="white" stroke="white"/>
    </g>
   </g>
  </g>
  <g partID="854118650">
   <g transform="translate(151.954,272.398)">
    <g id="copper0">
     <circle cx="20.8462" r="1.98" stroke-width="2.16" id="connector0pad" cy="15.6024" fill="white" stroke="white"/>
     <circle cx="2.42064" r="1.98" stroke-width="2.16" id="connector1pad" cy="15.6024" fill="white" stroke="white"/>
     <circle cx="20.8462" r="1.98" stroke-width="2.16" id="connector2pad" cy="2.84616" fill="white" stroke="white"/>
     <circle cx="2.42064" r="1.98" stroke-width="2.16" id="connector3pad" cy="2.84616" fill="white" stroke="white"/>
    </g>
   </g>
  </g>
  <g partID="854118230">
   <g transform="translate(151.954,243.598)">
    <g id="copper0">
     <circle cx="20.8462" r="1.98" stroke-width="2.16" id="connector0pad" cy="15.6024" fill="white" stroke="white"/>
     <circle cx="2.42064" r="1.98" stroke-width="2.16" id="connector1pad" cy="15.6024" fill="white" stroke="white"/>
     <circle cx="20.8462" r="1.98" stroke-width="2.16" id="connector2pad" cy="2.84616" fill="white" stroke="white"/>
     <circle cx="2.42064" r="1.98" stroke-width="2.16" id="connector3pad" cy="2.84616" fill="white" stroke="white"/>
    </g>
   </g>
  </g>
  <g partID="854117810">
   <g transform="translate(151.954,214.798)">
    <g id="copper0">
     <circle cx="20.8462" r="1.98" stroke-width="2.16" id="connector0pad" cy="15.6024" fill="white" stroke="white"/>
     <circle cx="2.42064" r="1.98" stroke-width="2.16" id="connector1pad" cy="15.6024" fill="white" stroke="white"/>
     <circle cx="20.8462" r="1.98" stroke-width="2.16" id="connector2pad" cy="2.84616" fill="white" stroke="white"/>
     <circle cx="2.42064" r="1.98" stroke-width="2.16" id="connector3pad" cy="2.84616" fill="white" stroke="white"/>
    </g>
   </g>
  </g>
  <g partID="854117390">
   <g transform="translate(151.954,185.998)">
    <g id="copper0">
     <circle cx="20.8462" r="1.98" stroke-width="2.16" id="connector0pad" cy="15.6024" fill="white" stroke="white"/>
     <circle cx="2.42064" r="1.98" stroke-width="2.16" id="connector1pad" cy="15.6024" fill="white" stroke="white"/>
     <circle cx="20.8462" r="1.98" stroke-width="2.16" id="connector2pad" cy="2.84616" fill="white" stroke="white"/>
     <circle cx="2.42064" r="1.98" stroke-width="2.16" id="connector3pad" cy="2.84616" fill="white" stroke="white"/>
    </g>
   </g>
  </g>
  <g partID="854116970">
   <g transform="translate(151.954,157.198)">
    <g id="copper0">
     <circle cx="20.8462" r="1.98" stroke-width="2.16" id="connector0pad" cy="15.6024" fill="white" stroke="white"/>
     <circle cx="2.42064" r="1.98" stroke-width="2.16" id="connector1pad" cy="15.6024" fill="white" stroke="white"/>
     <circle cx="20.8462" r="1.98" stroke-width="2.16" id="connector2pad" cy="2.84616" fill="white" stroke="white"/>
     <circle cx="2.42064" r="1.98" stroke-width="2.16" id="connector3pad" cy="2.84616" fill="white" stroke="white"/>
    </g>
   </g>
  </g>
  <g partID="854116110">
   <g transform="translate(151.954,128.398)">
    <g id="copper0">
     <circle cx="20.8462" r="1.98" stroke-width="2.16" id="connector0pad" cy="15.6024" fill="white" stroke="white"/>
     <circle cx="2.42064" r="1.98" stroke-width="2.16" id="connector1pad" cy="15.6024" fill="white" stroke="white"/>
     <circle cx="20.8462" r="1.98" stroke-width="2.16" id="connector2pad" cy="2.84616" fill="white" stroke="white"/>
     <circle cx="2.42064" r="1.98" stroke-width="2.16" id="connector3pad" cy="2.84616" fill="white" stroke="white"/>
    </g>
   </g>
  </g>
  <g partID="59360">
   <g transform="translate(215.698,18.7097)">
    <g transform="matrix(1,0,0,1,0,0)">
     <g id="copper0">
      <circle cx="39.5497" r="2.088" stroke-width="0.72" id="nonconn1" cy="19.1675" fill="white" stroke="white"/>
      <circle r="2.088" cx="25.8247" stroke-width="0.72" id="nonconn2" cy="19.1675" fill="white" stroke="white"/>
      <circle cx="24.9997" r="2.52" stroke-width="0.72" id="nonconn3" cy="10.5425" fill="white" stroke="white"/>
      <circle r="2.52" cx="40.4497" stroke-width="0.72" id="nonconn4" cy="10.5425" fill="white" stroke="white"/>
      <rect x="0" stroke-width="0.72" id="rect0" height="5.616" fill="white" stroke="white" width="10.344" y="7.30777"/>
      <rect x="0.027" stroke-width="0.72" id="rect1" height="5.616" fill="white" stroke="white" width="10.368" y="14.5078"/>
      <rect x="0.027" stroke-width="0.72" id="rect2" height="5.616" fill="white" stroke="white" width="10.368" y="21.7078"/>
      <rect x="0" stroke-width="0.72" id="rect3" height="5.616" fill="white" stroke="white" width="10.368" y="28.9078"/>
      <rect x="0.027" stroke-width="0.72" id="rect4" height="5.616" fill="white" stroke="white" width="10.368" y="36.1078"/>
      <rect x="0.027" stroke-width="0.72" id="rect5" height="5.616" fill="white" stroke="white" width="10.368" y="43.3078"/>
      <rect x="0.027" stroke-width="0.72" id="rect6" height="5.616" fill="white" stroke="white" width="10.368" y="50.5078"/>
      <rect x="0.027" stroke-width="0.72" id="rect7" height="5.616" fill="white" stroke="white" width="10.368" y="57.7078"/>
      <rect x="0.027" stroke-width="0.72" id="rect8" height="5.616" fill="white" stroke="white" width="10.368" y="64.9078"/>
      <rect x="0.027" stroke-width="0.72" id="rect9" height="5.616" fill="white" stroke="white" width="10.368" y="72.1078"/>
      <rect x="0.027" stroke-width="0.72" id="rect10" height="5.616" fill="white" stroke="white" width="10.368" y="79.3078"/>
      <rect x="0.027" stroke-width="0.72" id="rect11" height="5.616" fill="white" stroke="white" width="10.368" y="86.5078"/>
      <rect x="0.027" stroke-width="0.72" id="rect12" height="5.616" fill="white" stroke="white" width="10.368" y="93.7078"/>
      <rect x="0.027" stroke-width="0.72" id="rect13" height="5.616" fill="white" stroke="white" width="10.368" y="100.908"/>
      <rect x="0.027" stroke-width="0.72" id="rect14" height="5.616" fill="white" stroke="white" width="10.368" y="108.108"/>
      <rect x="0.027" stroke-width="0.72" id="rect15" height="5.616" fill="white" stroke="white" width="10.368" y="115.308"/>
      <rect x="0.027" stroke-width="0.72" id="rect16" height="5.616" fill="white" stroke="white" width="10.368" y="122.508"/>
      <rect x="0.027" stroke-width="0.72" id="rect17" height="5.616" fill="white" stroke="white" width="10.368" y="129.708"/>
      <rect x="0.027" stroke-width="0.72" id="rect18" height="5.616" fill="white" stroke="white" width="10.368" y="136.908"/>
      <rect x="0.027" stroke-width="0.72" id="rect19" height="5.616" fill="white" stroke="white" width="10.368" y="144.108"/>
      <rect x="55.08" stroke-width="0.72" id="rect20" height="5.616" fill="white" stroke="white" width="10.368" y="144.108"/>
      <rect x="55.08" stroke-width="0.72" id="rect21" height="5.616" fill="white" stroke="white" width="10.368" y="136.908"/>
      <rect x="55.08" stroke-width="0.72" id="rect22" height="5.616" fill="white" stroke="white" width="10.368" y="129.708"/>
      <rect x="55.08" stroke-width="0.72" id="rect23" height="5.616" fill="white" stroke="white" width="10.368" y="122.508"/>
      <rect x="55.08" stroke-width="0.72" id="rect24" height="5.616" fill="white" stroke="white" width="10.368" y="115.308"/>
      <rect x="55.08" stroke-width="0.72" id="rect25" height="5.616" fill="white" stroke="white" width="10.368" y="108.108"/>
      <rect x="55.08" stroke-width="0.72" id="rect26" height="5.616" fill="white" stroke="white" width="10.368" y="100.908"/>
      <rect x="55.08" stroke-width="0.72" id="rect27" height="5.616" fill="white" stroke="white" width="10.368" y="93.7078"/>
      <rect x="55.08" stroke-width="0.72" id="rect28" height="5.616" fill="white" stroke="white" width="10.368" y="86.5078"/>
      <rect x="55.08" stroke-width="0.72" id="rect29" height="5.616" fill="white" stroke="white" width="10.368" y="79.3078"/>
      <rect x="55.08" stroke-width="0.72" id="rect30" height="5.616" fill="white" stroke="white" width="10.368" y="72.1078"/>
      <rect x="55.08" stroke-width="0.72" id="rect31" height="5.616" fill="white" stroke="white" width="10.368" y="64.9078"/>
      <rect x="55.08" stroke-width="0.72" id="rect32" height="5.616" fill="white" stroke="white" width="10.368" y="57.7078"/>
      <rect x="55.08" stroke-width="0.72" id="rect33" height="5.616" fill="white" stroke="white" width="10.368" y="50.5078"/>
      <rect x="55.08" stroke-width="0.72" id="rect34" height="5.616" fill="white" stroke="white" width="10.368" y="43.3078"/>
      <rect x="55.08" stroke-width="0.72" id="rect35" height="5.616" fill="white" stroke="white" width="10.368" y="36.1078"/>
      <rect x="55.08" stroke-width="0.72" id="rect36" height="5.616" fill="white" stroke="white" width="10.368" y="28.9078"/>
      <rect x="55.08" stroke-width="0.72" id="rect37" height="5.616" fill="white" stroke="white" width="10.368" y="21.7078"/>
      <rect x="55.08" stroke-width="0.72" id="rect38" height="5.616" fill="white" stroke="white" width="10.368" y="14.5078"/>
      <rect x="55.08" stroke-width="0.72" id="rect39" height="5.616" fill="white" stroke="white" width="10.368" y="7.30777"/>
      <rect x="22.68" stroke-width="0.72" id="rect40" height="10.368" fill="white" stroke="white" width="5.616" y="143.46"/>
      <rect x="29.88" stroke-width="0.72" id="rect41" height="10.368" fill="white" stroke="white" width="5.616" y="143.46"/>
      <rect x="37.08" stroke-width="0.72" id="rect42" height="10.368" fill="white" stroke="white" width="5.616" y="143.46"/>
      <circle cx="7.533" r="2.088" stroke-width="2.16" id="connector0pin" cy="10.0868" fill="white" stroke="white"/>
      <circle r="2.088" cx="7.533" stroke-width="2.16" id="connector1pin" cy="17.2903" fill="white" stroke="white"/>
      <circle cx="7.533" r="2.088" stroke-width="2.16" id="connector2pin" cy="24.4903" fill="white" stroke="white"/>
      <circle r="2.088" cx="7.533" stroke-width="2.16" id="connector3pin" cy="31.6903" fill="white" stroke="white"/>
      <circle cx="7.533" r="2.088" stroke-width="2.16" id="connector4pin" cy="38.8903" fill="white" stroke="white"/>
      <circle r="2.088" cx="7.533" stroke-width="2.16" id="connector5pin" cy="46.0903" fill="white" stroke="white"/>
      <circle cx="7.533" r="2.088" stroke-width="2.16" id="connector6pin" cy="53.2903" fill="white" stroke="white"/>
      <circle r="2.088" cx="7.533" stroke-width="2.16" id="connector7pin" cy="60.4903" fill="white" stroke="white"/>
      <circle cx="7.533" r="2.088" stroke-width="2.16" id="connector8pin" cy="67.6903" fill="white" stroke="white"/>
      <circle r="2.088" cx="7.533" stroke-width="2.16" id="connector9pin" cy="74.8903" fill="white" stroke="white"/>
      <circle cx="7.533" r="2.088" stroke-width="2.16" id="connector10pin" cy="82.0903" fill="white" stroke="white"/>
      <circle r="2.088" cx="7.533" stroke-width="2.16" id="connector11pin" cy="89.2903" fill="white" stroke="white"/>
      <circle cx="7.533" r="2.088" stroke-width="2.16" id="connector12pin" cy="96.4903" fill="white" stroke="white"/>
      <circle r="2.088" cx="7.533" stroke-width="2.16" id="connector13pin" cy="103.69" fill="white" stroke="white"/>
      <circle cx="7.533" r="2.088" stroke-width="2.16" id="connector14pin" cy="110.89" fill="white" stroke="white"/>
      <circle r="2.088" cx="7.533" stroke-width="2.16" id="connector15pin" cy="118.09" fill="white" stroke="white"/>
      <circle cx="7.533" r="2.088" stroke-width="2.16" id="connector16pin" cy="125.29" fill="white" stroke="white"/>
      <circle r="2.088" cx="7.533" stroke-width="2.16" id="connector17pin" cy="132.49" fill="white" stroke="white"/>
      <circle cx="7.533" r="2.088" stroke-width="2.16" id="connector18pin" cy="139.69" fill="white" stroke="white"/>
      <circle r="2.088" cx="7.533" stroke-width="2.16" id="connector19pin" cy="146.89" fill="white" stroke="white"/>
      <circle cx="57.9015" r="2.088" stroke-width="2.16" id="connector20pin" cy="146.89" fill="white" stroke="white"/>
      <circle r="2.088" cx="57.9015" stroke-width="2.16" id="connector21pin" cy="139.69" fill="white" stroke="white"/>
      <circle cx="57.9015" r="2.088" stroke-width="2.16" id="connector22pin" cy="132.49" fill="white" stroke="white"/>
      <circle r="2.088" cx="57.9015" stroke-width="2.16" id="connector23pin" cy="125.29" fill="white" stroke="white"/>
      <circle cx="57.9015" r="2.088" stroke-width="2.16" id="connector24pin" cy="118.09" fill="white" stroke="white"/>
      <circle r="2.088" cx="57.9015" stroke-width="2.16" id="connector25pin" cy="110.89" fill="white" stroke="white"/>
      <circle cx="57.9015" r="2.088" stroke-width="2.16" id="connector26pin" cy="103.69" fill="white" stroke="white"/>
      <circle r="2.088" cx="57.9015" stroke-width="2.16" id="connector27pin" cy="96.4903" fill="white" stroke="white"/>
      <circle cx="57.9015" r="2.088" stroke-width="2.16" id="connector28pin" cy="89.2903" fill="white" stroke="white"/>
      <circle r="2.088" cx="57.9015" stroke-width="2.16" id="connector29pin" cy="82.0903" fill="white" stroke="white"/>
      <circle cx="57.9015" r="2.088" stroke-width="2.16" id="connector30pin" cy="74.8903" fill="white" stroke="white"/>
      <circle r="2.088" cx="57.9015" stroke-width="2.16" id="connector31pin" cy="67.6903" fill="white" stroke="white"/>
      <circle cx="57.9015" r="2.088" stroke-width="2.16" id="connector32pin" cy="60.4903" fill="white" stroke="white"/>
      <circle r="2.088" cx="57.9015" stroke-width="2.16" id="connector33pin" cy="53.2903" fill="white" stroke="white"/>
      <circle cx="57.9015" r="2.088" stroke-width="2.16" id="connector34pin" cy="46.0903" fill="white" stroke="white"/>
      <circle r="2.088" cx="57.9015" stroke-width="2.16" id="connector35pin" cy="38.8903" fill="white" stroke="white"/>
      <circle cx="57.9015" r="2.088" stroke-width="2.16" id="connector36pin" cy="31.6903" fill="white" stroke="white"/>
      <circle r="2.088" cx="57.9015" stroke-width="2.16" id="connector37pin" cy="24.4903" fill="white" stroke="white"/>
      <circle cx="57.9015" r="2.088" stroke-width="2.16" id="connector38pin" cy="17.2903" fill="white" stroke="white"/>
      <circle r="2.088" cx="57.9015" stroke-width="2.16" id="connector39pin" cy="10.0903" fill="white" stroke="white"/>
      <circle cx="25.5015" r="2.088" stroke-width="2.16" id="connector40pin" cy="146.89" fill="white" stroke="white"/>
      <circle r="2.088" cx="32.7015" stroke-width="2.16" id="connector41pin" cy="146.89" fill="white" stroke="white"/>
      <circle cx="39.9015" r="2.088" stroke-width="2.16" id="connector42pin" cy="146.89" fill="white" stroke="white"/>
     </g>
    </g>
   </g>
  </g>
  <g partID="62040">
   <g transform="translate(202.752,197.856)">
    <g id="copper0">
     <circle cx="6.048" r="1.512" stroke-width="1.44" id="connector0pad" cy="25.344" fill="white" stroke="white" connectorname="1"/>
     <path stroke-width="0.72" fill="white" stroke="white" d="m6.048,21.6a1.872,1.872,0,0,1,1.872,1.872l0,3.744a1.872,1.872,0,0,1,-1.872,1.872l0,0a1.872,1.872,0,0,1,-1.872,-1.872l0,-3.744a1.872,1.872,0,0,1,1.872,-1.872l0,0zM4.896,25.344a1.152,1.152,0,1,0,2.304,0,1.152,1.152,0,1,0,-2.304,0z"/>
     <circle cx="13.248" r="1.512" stroke-width="1.44" id="connector1pad" cy="25.344" fill="white" stroke="white" connectorname="2"/>
     <path stroke-width="0.72" fill="white" stroke="white" d="m13.248,21.6a1.872,1.872,0,0,1,1.872,1.872l0,3.744a1.872,1.872,0,0,1,-1.872,1.872l0,0a1.872,1.872,0,0,1,-1.872,-1.872l0,-3.744a1.872,1.872,0,0,1,1.872,-1.872l0,0zM12.096,25.344a1.152,1.152,0,1,0,2.304,0,1.152,1.152,0,1,0,-2.304,0z"/>
     <circle cx="13.248" r="1.512" stroke-width="1.44" id="connector2pad" cy="3.744" fill="white" stroke="white" connectorname="3"/>
     <path stroke-width="0.72" fill="white" stroke="white" d="m13.248,0a1.872,1.872,0,0,1,1.872,1.872l0,3.744a1.872,1.872,0,0,1,-1.872,1.872l0,0a1.872,1.872,0,0,1,-1.872,-1.872l0,-3.744a1.872,1.872,0,0,1,1.872,-1.872l0,0zM12.096,3.744a1.152,1.152,0,1,0,2.304,0,1.152,1.152,0,1,0,-2.304,0z"/>
     <circle cx="6.048" r="1.512" stroke-width="1.44" id="connector3pad" cy="3.744" fill="white" stroke="white" connectorname="4"/>
     <path stroke-width="0.72" fill="white" stroke="white" d="m6.048,0a1.872,1.872,0,0,1,1.872,1.872l0,3.744a1.872,1.872,0,0,1,-1.872,1.872l0,0a1.872,1.872,0,0,1,-1.872,-1.872l0,-3.744a1.872,1.872,0,0,1,1.872,-1.872l0,0zM4.896,3.744a1.152,1.152,0,1,0,2.304,0,1.152,1.152,0,1,0,-2.304,0z"/>
    </g>
   </g>
  </g>
  <g partID="62070">
   <g transform="translate(188.352,197.856)">
    <g id="copper0">
     <circle cx="6.048" r="1.512" stroke-width="1.44" id="connector0pad" cy="25.344" fill="white" stroke="white" connectorname="1"/>
     <path stroke-width="0.72" fill="white" stroke="white" d="m6.048,21.6a1.872,1.872,0,0,1,1.872,1.872l0,3.744a1.872,1.872,0,0,1,-1.872,1.872l0,0a1.872,1.872,0,0,1,-1.872,-1.872l0,-3.744a1.872,1.872,0,0,1,1.872,-1.872l0,0zM4.896,25.344a1.152,1.152,0,1,0,2.304,0,1.152,1.152,0,1,0,-2.304,0z"/>
     <circle cx="13.248" r="1.512" stroke-width="1.44" id="connector1pad" cy="25.344" fill="white" stroke="white" connectorname="2"/>
     <path stroke-width="0.72" fill="white" stroke="white" d="m13.248,21.6a1.872,1.872,0,0,1,1.872,1.872l0,3.744a1.872,1.872,0,0,1,-1.872,1.872l0,0a1.872,1.872,0,0,1,-1.872,-1.872l0,-3.744a1.872,1.872,0,0,1,1.872,-1.872l0,0zM12.096,25.344a1.152,1.152,0,1,0,2.304,0,1.152,1.152,0,1,0,-2.304,0z"/>
     <circle cx="13.248" r="1.512" stroke-width="1.44" id="connector2pad" cy="3.744" fill="white" stroke="white" connectorname="3"/>
     <path stroke-width="0.72" fill="white" stroke="white" d="m13.248,0a1.872,1.872,0,0,1,1.872,1.872l0,3.744a1.872,1.872,0,0,1,-1.872,1.872l0,0a1.872,1.872,0,0,1,-1.872,-1.872l0,-3.744a1.872,1.872,0,0,1,1.872,-1.872l0,0zM12.096,3.744a1.152,1.152,0,1,0,2.304,0,1.152,1.152,0,1,0,-2.304,0z"/>
     <circle cx="6.048" r="1.512" stroke-width="1.44" id="connector3pad" cy="3.744" fill="white" stroke="white" connectorname="4"/>
     <path stroke-width="0.72" fill="white" stroke="white" d="m6.048,0a1.872,1.872,0,0,1,1.872,1.872l0,3.744a1.872,1.872,0,0,1,-1.872,1.872l0,0a1.872,1.872,0,0,1,-1.872,-1.872l0,-3.744a1.872,1.872,0,0,1,1.872,-1.872l0,0zM4.896,3.744a1.152,1.152,0,1,0,2.304,0,1.152,1.152,0,1,0,-2.304,0z"/>
    </g>
   </g>
  </g>
  <g partID="63770">
   <g transform="translate(226.8,190.8)">
    <g id="copper0">
     <circle cx="3.6" r="1.908" stroke-width="1.944" id="connector16pad" fill="white" cy="10.8" stroke="white"/>
     <rect x="1.692" stroke-width="1.944" fill="white" height="3.816" stroke="white" width="3.813" y="8.892"/>
     <circle cx="3.6" r="1.908" stroke-width="1.944" id="connector17pad" fill="white" cy="18" stroke="white"/>
     <circle cx="3.6" r="1.908" stroke-width="1.944" id="connector18pad" fill="white" cy="25.2" stroke="white"/>
     <circle cx="3.6" r="1.908" stroke-width="1.944" id="connector19pad" fill="white" cy="32.4" stroke="white"/>
     <circle cx="3.6" r="1.908" stroke-width="1.944" id="connector20pad" fill="white" cy="39.6" stroke="white"/>
     <circle cx="3.6" r="1.908" stroke-width="1.944" id="connector21pad" fill="white" cy="46.8" stroke="white"/>
     <circle cx="3.6" r="1.908" stroke-width="1.944" id="connector22pad" fill="white" cy="54" stroke="white"/>
     <circle cx="3.6" r="1.908" stroke-width="1.944" id="connector23pad" fill="white" cy="61.2" stroke="white"/>
     <circle cx="3.6" r="1.908" stroke-width="1.944" id="connector24pad" fill="white" cy="68.4" stroke="white"/>
     <circle cx="3.6" r="1.908" stroke-width="1.944" id="connector25pad" fill="white" cy="75.6" stroke="white"/>
     <circle cx="3.6" r="1.908" stroke-width="1.944" id="connector26pad" fill="white" cy="82.8" stroke="white"/>
     <circle cx="3.6" r="1.908" stroke-width="1.944" id="connector27pad" fill="white" cy="90" stroke="white"/>
     <circle cx="3.6" r="1.908" stroke-width="1.944" id="connector28pad" fill="white" cy="97.2" stroke="white"/>
     <circle cx="3.6" r="1.908" stroke-width="1.944" id="connector29pad" fill="white" cy="104.4" stroke="white"/>
     <circle cx="3.6" r="1.908" stroke-width="1.944" id="connector30pad" fill="white" cy="111.6" stroke="white"/>
     <circle cx="46.8" r="1.908" stroke-width="1.944" id="connector31pad" fill="white" cy="10.8" stroke="white"/>
     <circle cx="46.8" r="1.908" stroke-width="1.944" id="connector32pad" fill="white" cy="18" stroke="white"/>
     <circle cx="46.8" r="1.908" stroke-width="1.944" id="connector33pad" fill="white" cy="25.2" stroke="white"/>
     <circle cx="46.8" r="1.908" stroke-width="1.944" id="connector34pad" fill="white" cy="32.4" stroke="white"/>
     <circle cx="46.8" r="1.908" stroke-width="1.944" id="connector35pad" fill="white" cy="39.6" stroke="white"/>
     <circle cx="46.8" r="1.908" stroke-width="1.944" id="connector36pad" fill="white" cy="46.8" stroke="white"/>
     <circle cx="46.8" r="1.908" stroke-width="1.944" id="connector37pad" fill="white" cy="54" stroke="white"/>
     <circle cx="46.8" r="1.908" stroke-width="1.944" id="connector38pad" fill="white" cy="61.2" stroke="white"/>
     <circle cx="46.8" r="1.908" stroke-width="1.944" id="connector39pad" fill="white" cy="68.4" stroke="white"/>
     <circle cx="46.8" r="1.908" stroke-width="1.944" id="connector40pad" fill="white" cy="75.6" stroke="white"/>
     <circle cx="46.8" r="1.908" stroke-width="1.944" id="connector41pad" fill="white" cy="82.8" stroke="white"/>
     <circle cx="46.8" r="1.908" stroke-width="1.944" id="connector42pad" fill="white" cy="90" stroke="white"/>
     <circle cx="46.8" r="1.908" stroke-width="1.944" id="connector43pad" fill="white" cy="97.2" stroke="white"/>
     <circle cx="46.8" r="1.908" stroke-width="1.944" id="connector44pad" fill="white" cy="104.4" stroke="white"/>
     <circle cx="46.8" r="1.908" stroke-width="1.944" id="connector45pad" fill="white" cy="111.6" stroke="white"/>
     <circle cx="18.017" r="1.908" stroke-width="1.944" id="connector59pad" fill="white" cy="3.917" stroke="white"/>
     <circle cx="18.017" r="1.908" stroke-width="1.944" id="connector60pad" fill="white" cy="11.116" stroke="white"/>
     <circle cx="25.22" r="1.908" stroke-width="1.944" id="connector57pad" fill="white" cy="3.917" stroke="white"/>
     <circle cx="25.22" r="1.908" stroke-width="1.944" id="connector58pad" fill="white" cy="11.116" stroke="white"/>
     <circle cx="32.433" r="1.908" stroke-width="1.944" id="connector55pad" fill="white" cy="3.917" stroke="white"/>
     <circle cx="32.433" r="1.908" stroke-width="1.944" id="connector56pad" fill="white" cy="11.116" stroke="white"/>
    </g>
   </g>
  </g>
  <g partID="854100340">
   <g transform="translate(172.83,110.444)">
    <g transform="matrix(-1,0,0,-1,0,0)">
     <g id="copper0">
      <circle cx="157.384" r="2.088" gorn="0.3.0.0" stroke-width="2.16" id="connector6pin" cy="31.2382" fill="white" stroke="white" connectorname="MOSI"/>
      <circle cx="157.384" r="2.088" gorn="0.3.0.1" stroke-width="2.16" id="connector2pin" cy="60.0382" fill="white" stroke="white" connectorname="RESET"/>
      <circle cx="7.23006" r="2.088" gorn="0.3.0.2" stroke-width="2.16" id="connector8pin" cy="60.0435" fill="white" stroke="white" connectorname="MISO"/>
      <circle cx="157.384" r="2.088" gorn="0.3.0.3" stroke-width="2.16" id="connector4pin" cy="45.6383" fill="white" stroke="white" connectorname="CARDCS"/>
      <circle cx="157.384" r="2.088" gorn="0.3.0.4" stroke-width="2.16" id="connector0pin" cy="74.4382" fill="white" stroke="white" connectorname="GND"/>
      <circle cx="7.23006" r="2.088" stroke-width="2.16" gorn="0.3.0.5" id="connector9pin" fill="white" cy="52.8435" stroke="white" connectorname="LITE"/>
      <circle cx="157.384" r="2.088" gorn="0.3.0.6" stroke-width="2.16" id="connector7pin" cy="24.0382" fill="white" stroke="white" connectorname="SCLK"/>
      <circle cx="157.384" r="2.088" gorn="0.3.0.7" stroke-width="2.16" id="connector5pin" cy="38.4382" fill="white" stroke="white" connectorname="TFTCS"/>
      <circle cx="157.384" r="2.088" gorn="0.3.0.8" stroke-width="2.16" id="connector3pin" cy="52.8383" fill="white" stroke="white" connectorname="TFTDC"/>
      <circle cx="157.384" r="2.088" gorn="0.3.0.9" stroke-width="2.16" id="connector1pin" cy="67.2382" fill="white" stroke="white" connectorname="+5V"/>
      <circle cx="7.23006" r="2.088" gorn="0.3.0.5" stroke-width="2.16" id="connector10pin" cy="45.6435" fill="white" stroke="white" connectorname="LITE"/>
      <circle cx="7.23006" r="2.088" gorn="0.3.0.5" stroke-width="2.16" id="connector11pin" cy="38.4446" fill="white" stroke="white" connectorname="LITE"/>
      <circle cx="8.62521" r="4.53543" gorn="0.3.0.5" stroke-width="0" id="nonconn1" cy="8.64716" connectorname="LITE"/>
      <circle r="4.53543" cx="8.62521" gorn="0.3.0.5" stroke-width="0" id="nonconn2" cy="88.0563" connectorname="LITE"/>
      <circle r="4.53543" cx="155.94" gorn="0.3.0.5" stroke-width="0" id="nonconn3" cy="8.57744" connectorname="LITE"/>
      <circle cx="155.94" r="4.53543" gorn="0.3.0.5" stroke-width="0" id="nonconn4" cy="88.0563" connectorname="LITE"/>
     </g>
    </g>
   </g>
  </g>
 </g>
</svg>
