; NON-PLATED HOLES START AT T1
; THROUGH (PLATED) HOLES START AT T100
M48
INCH
T1C0.078740
T2C0.086614
T3C0.070000
T4C0.125984
T5C0.058000
T100C0.015748
T101C0.035000
T102C0.032000
T103C0.039370
T104C0.038000
T105C0.036000
%
T1
X027486Y039177
X027486Y041933
T2
X001125Y044338
X001125Y001338
X044126Y044338
X044126Y001338
T3
X035704Y041264
X033558Y041264
T4
X002473Y031178
X022934Y031188
X002473Y042217
X022934Y042217
T5
X035579Y040066
X033672Y040066
T100
X034128Y023326
X039128Y021326
X040128Y037326
X042128Y020326
X034128Y026326
X007127Y035326
X043128Y011326
X034128Y028326
T101
X020127Y015098
X005568Y009326
X020127Y021326
X001568Y025326
X024127Y005326
X017568Y011098
X020127Y007098
X017568Y009326
X008127Y009326
X005568Y011098
X009568Y015098
X021568Y023098
X021568Y017326
X021568Y015098
X044128Y027326
X021568Y027098
X008127Y013326
X012127Y019098
X040128Y033326
X020127Y009326
X004127Y017326
X017568Y019098
X004127Y009326
X013568Y005326
X012127Y023098
X008127Y011098
X024127Y025326
X024127Y009326
X012127Y007098
X001568Y013326
X016127Y019098
X044128Y032326
X001568Y017326
X012127Y021326
X024127Y015098
X020127Y023098
X004127Y023098
X017568Y027098
X020127Y019098
X009568Y007098
X013568Y015098
X020127Y017326
X017568Y005326
X005568Y015098
X008127Y005326
X044128Y033326
X040128Y025326
X009568Y009326
X005568Y019098
X021568Y025326
X013568Y009326
X009568Y025326
X001568Y023098
X001568Y011098
X021568Y009326
X004127Y005326
X012127Y009326
X024127Y021326
X016127Y013326
X016127Y027098
X013568Y027098
X021568Y011098
X001568Y027098
X024127Y023098
X009568Y013326
X008127Y019098
X016127Y015098
X021568Y013326
X005568Y023098
X016127Y025326
X004127Y007098
X012127Y017326
X008127Y021326
X009568Y023098
X016127Y007098
X040128Y027326
X012127Y005326
X001568Y021326
X013568Y013326
X001568Y009326
X013568Y011098
X021568Y019098
X017568Y023098
X012127Y015098
X009568Y021326
X021568Y005326
X005568Y021326
X005568Y005326
X012127Y025326
X009568Y005326
X024127Y011098
X024127Y007098
X017568Y021326
X001568Y019098
X009568Y017326
X016127Y023098
X017568Y017326
X001568Y015098
X009568Y027098
X013568Y017326
X021568Y021326
X008127Y015098
X008127Y007098
X013568Y023098
X004127Y011098
X009568Y019098
X008127Y023098
X004127Y025326
X016127Y011098
X024127Y019098
X016127Y017326
X017568Y015098
X008127Y025326
X013568Y019098
X016127Y009326
X020127Y025326
X012127Y013326
X013568Y025326
X017568Y013326
X012127Y011098
X005568Y027098
X024127Y017326
X001568Y007098
X004127Y013326
X021568Y007098
X012127Y027098
X020127Y011098
X016127Y021326
X005568Y025326
X004127Y027098
X020127Y013326
X024127Y027098
X024127Y013326
X004127Y019098
X017568Y025326
X004127Y021326
X008127Y017326
X008127Y027098
X020127Y005326
X009568Y011098
X005568Y007098
X017568Y007098
X013568Y021326
X044128Y025326
X016127Y005326
X005568Y017326
X020127Y027098
X040128Y032326
X001568Y005326
X013568Y007098
X004127Y015098
X005568Y013326
T102
X027128Y017326
X029128Y014326
X029128Y017326
X027128Y014326
X030128Y017326
X028128Y014326
X030128Y014326
X028128Y017326
T103
X041127Y005807
X043096Y004626
X041127Y003326
T104
X031132Y035326
X038128Y041326
X031132Y037326
X023128Y037326
X038128Y033326
X023128Y035327
X038128Y034326
X038128Y032327
X031132Y022327
X031132Y026327
X031132Y039326
X033628Y022327
X038128Y024327
X031132Y040326
X031132Y038326
X002273Y033326
X031132Y036326
X031132Y031327
X034628Y022327
X038128Y022327
X031132Y024327
X002273Y038326
X038128Y039326
X038128Y040326
X031132Y027327
X002273Y039326
X038128Y031327
X038128Y030327
X031132Y023327
X038128Y028327
X031132Y033326
X038128Y038326
X023128Y038326
X038128Y023327
X035628Y022327
X031132Y030327
X031132Y032327
X002273Y035326
X038128Y025327
X038128Y026327
X031132Y041327
X002273Y036326
X038128Y027327
X038128Y037326
X002273Y040326
X038128Y036326
X031132Y034326
X002273Y034326
X038128Y029327
X031132Y029327
X031132Y028327
X002273Y037326
X023128Y036326
X038128Y035326
X031132Y025327
T105
X032128Y008326
X036132Y018282
X038128Y009326
X032128Y003326
X038128Y007326
X032128Y014326
X032128Y016326
X032128Y010326
X034130Y017283
X035130Y017283
X038128Y012326
X038128Y015326
X032128Y007326
X036132Y017283
X035130Y018282
X032128Y009326
X038128Y017326
X032128Y012326
X032128Y004326
X038128Y011326
X038128Y006326
X038128Y010326
X038128Y013326
X032128Y006326
X032128Y011326
X038128Y014326
X038128Y005326
X032128Y013326
X038128Y016326
X032128Y015326
X038128Y008326
X032128Y005326
X032128Y017326
X038128Y004326
X034130Y018282
X038128Y003326
T00
M30
