; NON-PLATED HOLES START AT T1
; THROUGH (PLATED) HOLES START AT T100
M48
INCH
T1C0.058000
T2C0.078740
T3C0.125984
T4C0.086614
T5C0.070000
T100C0.038000
T101C0.036000
T102C0.015748
T103C0.032000
T104C0.035000
%
T1
X035451Y039813
X033544Y039813
T2
X027358Y038924
X027358Y041680
T3
X002345Y041964
X022806Y041964
X002345Y030925
X022806Y030935
T4
X000999Y001073
X000999Y044074
X042000Y001073
X042000Y044074
T5
X033430Y041011
X035576Y041011
T100
X031004Y025073
X002145Y035073
X038000Y030073
X002145Y034073
X031004Y040074
X002145Y036073
X038000Y039074
X031004Y034074
X002145Y033073
X031004Y030073
X023000Y038073
X031004Y031073
X031004Y039074
X002145Y038073
X038000Y031073
X035500Y022073
X038000Y025073
X031004Y032073
X038000Y036074
X038000Y023073
X038000Y035074
X033500Y022073
X038000Y029073
X031004Y037074
X038000Y022073
X031004Y023073
X031004Y029073
X002145Y037073
X023000Y037073
X038000Y037074
X038000Y038074
X034500Y022073
X038000Y034074
X031004Y041074
X031004Y035074
X031004Y028073
X038000Y041074
X038000Y033074
X038000Y040074
X038000Y026073
X031004Y024073
X031004Y026073
X038000Y027073
X038000Y028073
X031004Y022073
X031004Y027073
X031004Y036074
X038000Y032073
X023000Y035074
X038000Y024073
X023000Y036073
X002145Y039073
X031004Y038074
X002145Y040073
X031004Y033074
T101
X032000Y005073
X032000Y011073
X032000Y013073
X032000Y012073
X038000Y007073
X032000Y009073
X038000Y006073
X032000Y017073
X032000Y007073
X035002Y018029
X038000Y017073
X036004Y017030
X038000Y015073
X032000Y014073
X032000Y003073
X036004Y018029
X032000Y016073
X038000Y016073
X038000Y012073
X034002Y017030
X035002Y017030
X034002Y018029
X038000Y003073
X032000Y006073
X038000Y009073
X038000Y011073
X038000Y004073
X038000Y013073
X038000Y008073
X038000Y010073
X032000Y010073
X032000Y004073
X032000Y008073
X032000Y015073
X038000Y005073
X038000Y014073
T102
X040000Y032073
X034000Y023073
X040000Y030073
X034000Y026073
X034000Y028073
X041000Y033074
X006999Y035074
T103
X028000Y017073
X028000Y014073
X029000Y017073
X030000Y014073
X027000Y017073
X027000Y014073
X030000Y017073
X029000Y014073
T104
X020000Y006845
X016000Y017073
X007999Y009073
X024000Y005073
X001440Y018845
X024000Y014845
X012000Y013073
X017440Y010845
X012000Y022845
X013440Y022845
X016000Y025073
X017440Y014845
X007999Y017073
X013440Y013073
X007999Y018845
X009440Y006845
X017440Y006845
X017440Y009073
X007999Y022845
X021440Y026845
X001440Y009073
X024000Y006845
X020000Y018845
X001440Y021073
X017440Y025073
X005440Y026845
X016000Y021073
X021440Y017073
X024000Y018845
X012000Y025073
X024000Y026845
X021440Y009073
X013440Y006845
X017440Y018845
X012000Y021073
X012000Y006845
X004000Y006845
X021440Y010845
X004000Y026845
X013440Y005073
X012000Y009073
X024000Y025073
X007999Y025073
X024000Y010845
X016000Y026845
X009440Y017073
X004000Y010845
X005440Y025073
X007999Y006845
X016000Y005073
X020000Y014845
X020000Y009073
X005440Y010845
X013440Y021073
X004000Y017073
X005440Y013073
X001440Y006845
X007999Y010845
X013440Y026845
X005440Y006845
X021440Y018845
X005440Y014845
X017440Y013073
X020000Y026845
X005440Y022845
X017440Y026845
X009440Y021073
X021440Y025073
X012000Y026845
X005440Y017073
X007999Y005073
X009440Y014845
X013440Y009073
X001440Y013073
X001440Y022845
X024000Y021073
X004000Y009073
X020000Y010845
X016000Y010845
X016000Y006845
X020000Y017073
X020000Y022845
X001440Y017073
X024000Y009073
X004000Y014845
X016000Y018845
X017440Y017073
X024000Y017073
X016000Y022845
X021440Y005073
X007999Y021073
X001440Y014845
X021440Y013073
X013440Y010845
X020000Y025073
X012000Y014845
X017440Y021073
X013440Y014845
X009440Y025073
X012000Y005073
X004000Y005073
X016000Y013073
X016000Y009073
X009440Y018845
X007999Y014845
X001440Y005073
X024000Y022845
X021440Y022845
X005440Y018845
X012000Y017073
X009440Y005073
X020000Y013073
X009440Y026845
X001440Y026845
X021440Y021073
X004000Y022845
X001440Y010845
X004000Y021073
X021440Y014845
X001440Y025073
X009440Y022845
X009440Y013073
X016000Y014845
X021440Y006845
X009440Y010845
X007999Y026845
X017440Y022845
X009440Y009073
X005440Y005073
X004000Y025073
X013440Y018845
X020000Y021073
X020000Y005073
X013440Y025073
X024000Y013073
X007999Y013073
X012000Y010845
X013440Y017073
X012000Y018845
X017440Y005073
X004000Y013073
X005440Y021073
X004000Y018845
X005440Y009073
T00
M30
