G04 MADE WITH FRITZING*
G04 WWW.FRITZING.ORG*
G04 DOUBLE SIDED*
G04 HOLES PLATED*
G04 CONTOUR ON CENTER OF CONTOUR VECTOR*
%ASAXBY*%
%FSLAX23Y23*%
%MOIN*%
%OFA0B0*%
%SFA1.0B1.0*%
%ADD10C,0.049370*%
%ADD11C,0.096614*%
%ADD12C,0.088740*%
%ADD13C,0.085000*%
%ADD14C,0.068000*%
%ADD15C,0.080000*%
%ADD16C,0.088000*%
%ADD17C,0.062000*%
%ADD18R,0.083163X0.119628*%
%ADD19R,0.087214X0.123591*%
%ADD20R,0.108425X0.088740*%
%ADD21R,0.088740X0.108425*%
%ADD22R,0.108425X0.057244*%
%ADD23R,0.153667X0.088000*%
%ADD24R,0.154000X0.088000*%
%ADD25R,0.088000X0.154000*%
%ADD26R,0.079958X0.080000*%
%ADD27R,0.001000X0.001000*%
%LNMASK1*%
G90*
G70*
G54D10*
X3400Y2307D03*
X4100Y3307D03*
X4000Y3207D03*
X4000Y3007D03*
X700Y3507D03*
X3400Y2807D03*
X3400Y2607D03*
G54D11*
X4200Y4407D03*
X100Y4407D03*
X100Y107D03*
X4200Y107D03*
G54D12*
X2736Y4168D03*
X2736Y3892D03*
X2736Y4168D03*
X2736Y3892D03*
G54D13*
X400Y507D03*
X144Y507D03*
X400Y685D03*
X144Y685D03*
X400Y907D03*
X144Y907D03*
X400Y1085D03*
X144Y1085D03*
X400Y1307D03*
X144Y1307D03*
X400Y1485D03*
X144Y1485D03*
X400Y1707D03*
X144Y1707D03*
X400Y1885D03*
X144Y1885D03*
X400Y2107D03*
X144Y2107D03*
X400Y2285D03*
X144Y2285D03*
X400Y2507D03*
X144Y2507D03*
X400Y2685D03*
X144Y2685D03*
X800Y507D03*
X544Y507D03*
X800Y685D03*
X544Y685D03*
X800Y907D03*
X544Y907D03*
X800Y1085D03*
X544Y1085D03*
X800Y1307D03*
X544Y1307D03*
X800Y1485D03*
X544Y1485D03*
X800Y1707D03*
X544Y1707D03*
X800Y1885D03*
X544Y1885D03*
X800Y2107D03*
X544Y2107D03*
X800Y2285D03*
X544Y2285D03*
X800Y2507D03*
X544Y2507D03*
X800Y2685D03*
X544Y2685D03*
X1200Y507D03*
X944Y507D03*
X1200Y685D03*
X944Y685D03*
X1200Y907D03*
X944Y907D03*
X1200Y1085D03*
X944Y1085D03*
X1200Y1307D03*
X944Y1307D03*
X1200Y1485D03*
X944Y1485D03*
X1200Y1707D03*
X944Y1707D03*
X1200Y1885D03*
X944Y1885D03*
X1200Y2107D03*
X944Y2107D03*
X1200Y2285D03*
X944Y2285D03*
X1200Y2507D03*
X944Y2507D03*
X1200Y2685D03*
X944Y2685D03*
X1600Y507D03*
X1344Y507D03*
X1600Y685D03*
X1344Y685D03*
X1600Y907D03*
X1344Y907D03*
X1600Y1085D03*
X1344Y1085D03*
X1600Y1307D03*
X1344Y1307D03*
X1600Y1485D03*
X1344Y1485D03*
X1600Y1707D03*
X1344Y1707D03*
X1600Y1885D03*
X1344Y1885D03*
X1600Y2107D03*
X1344Y2107D03*
X1600Y2285D03*
X1344Y2285D03*
X1600Y2507D03*
X1344Y2507D03*
X1600Y2685D03*
X1344Y2685D03*
X2000Y507D03*
X1744Y507D03*
X2000Y685D03*
X1744Y685D03*
X2000Y907D03*
X1744Y907D03*
X2000Y1085D03*
X1744Y1085D03*
X2000Y1307D03*
X1744Y1307D03*
X2000Y1485D03*
X1744Y1485D03*
X2000Y1707D03*
X1744Y1707D03*
X2000Y1885D03*
X1744Y1885D03*
X2000Y2107D03*
X1744Y2107D03*
X2000Y2285D03*
X1744Y2285D03*
X2000Y2507D03*
X1744Y2507D03*
X2000Y2685D03*
X1744Y2685D03*
X2400Y507D03*
X2144Y507D03*
X2400Y685D03*
X2144Y685D03*
X2400Y907D03*
X2144Y907D03*
X2400Y1085D03*
X2144Y1085D03*
X2400Y1307D03*
X2144Y1307D03*
X2400Y1485D03*
X2144Y1485D03*
X2400Y1707D03*
X2144Y1707D03*
X2400Y1885D03*
X2144Y1885D03*
X2400Y2107D03*
X2144Y2107D03*
X2400Y2285D03*
X2144Y2285D03*
X2400Y2507D03*
X2144Y2507D03*
X2400Y2685D03*
X2144Y2685D03*
G54D14*
X3545Y3981D03*
X3354Y3981D03*
G54D15*
X3343Y4101D03*
X3558Y4101D03*
G54D16*
X3100Y4107D03*
X3100Y4007D03*
X3100Y3907D03*
X3100Y3807D03*
X3100Y3707D03*
X3100Y3607D03*
X3100Y3507D03*
X3100Y3407D03*
X3100Y3307D03*
X3100Y3207D03*
X3100Y3107D03*
X3100Y3007D03*
X3100Y2907D03*
X3100Y2807D03*
X3100Y2707D03*
X3100Y2607D03*
X3100Y2507D03*
X3100Y2407D03*
X3100Y2307D03*
X3100Y2207D03*
X3800Y2207D03*
X3800Y2307D03*
X3800Y2407D03*
X3800Y2507D03*
X3800Y2607D03*
X3800Y2707D03*
X3800Y2807D03*
X3800Y2907D03*
X3800Y3007D03*
X3800Y3107D03*
X3800Y3207D03*
X3800Y3307D03*
X3800Y3407D03*
X3800Y3507D03*
X3800Y3607D03*
X3800Y3707D03*
X3800Y3807D03*
X3800Y3907D03*
X3800Y4007D03*
X3800Y4107D03*
X3350Y2207D03*
X3450Y2207D03*
X3550Y2207D03*
G54D17*
X2900Y1407D03*
X3000Y1407D03*
X3000Y1707D03*
X2900Y1707D03*
X2900Y1407D03*
X3000Y1407D03*
X3000Y1707D03*
X2900Y1707D03*
X2700Y1407D03*
X2800Y1407D03*
X2800Y1707D03*
X2700Y1707D03*
X2700Y1407D03*
X2800Y1407D03*
X2800Y1707D03*
X2700Y1707D03*
G54D15*
X3200Y1707D03*
X3200Y1607D03*
X3200Y1507D03*
X3200Y1407D03*
X3200Y1307D03*
X3200Y1207D03*
X3200Y1107D03*
X3200Y1007D03*
X3200Y907D03*
X3200Y807D03*
X3200Y707D03*
X3200Y607D03*
X3200Y507D03*
X3200Y407D03*
X3200Y307D03*
X3800Y1707D03*
X3800Y1607D03*
X3800Y1507D03*
X3800Y1407D03*
X3800Y1307D03*
X3800Y1207D03*
X3800Y1107D03*
X3800Y1007D03*
X3800Y907D03*
X3800Y807D03*
X3800Y707D03*
X3800Y607D03*
X3800Y507D03*
X3800Y407D03*
X3800Y307D03*
X3400Y1803D03*
X3400Y1703D03*
X3500Y1803D03*
X3500Y1703D03*
X3600Y1803D03*
X3600Y1703D03*
G54D16*
X215Y3407D03*
X215Y3807D03*
X2300Y3807D03*
X215Y3607D03*
X215Y4007D03*
X2300Y3707D03*
X215Y3307D03*
X215Y3507D03*
X215Y3707D03*
X215Y3907D03*
X2300Y3607D03*
X2300Y3507D03*
G54D18*
X4200Y3807D03*
G54D19*
X2900Y3407D03*
G54D20*
X2600Y4207D03*
X2600Y3845D03*
X2872Y4137D03*
G54D21*
X2765Y3686D03*
G54D22*
X2872Y4247D03*
G54D23*
X3068Y4107D03*
G54D24*
X3068Y4007D03*
X3068Y3907D03*
X3068Y3807D03*
X3068Y3707D03*
X3068Y3607D03*
X3068Y3507D03*
X3068Y3407D03*
X3068Y3307D03*
X3068Y3207D03*
X3068Y3107D03*
X3068Y3007D03*
X3068Y2907D03*
X3068Y2807D03*
X3068Y2707D03*
X3068Y2607D03*
X3068Y2507D03*
X3068Y2407D03*
X3068Y2307D03*
X3068Y2207D03*
X3833Y2207D03*
X3833Y2307D03*
X3833Y2407D03*
X3833Y2507D03*
X3833Y2607D03*
X3833Y2707D03*
X3833Y2807D03*
X3833Y2907D03*
X3833Y3007D03*
X3833Y3107D03*
X3833Y3207D03*
X3833Y3307D03*
X3833Y3407D03*
X3833Y3507D03*
X3833Y3607D03*
X3833Y3707D03*
X3833Y3807D03*
X3833Y3907D03*
X3833Y4007D03*
X3833Y4107D03*
G54D25*
X3350Y2183D03*
X3450Y2183D03*
X3550Y2183D03*
G54D26*
X3200Y1707D03*
G54D27*
X2694Y1764D02*
X2706Y1764D01*
X2794Y1764D02*
X2806Y1764D01*
X2894Y1764D02*
X2906Y1764D01*
X2994Y1764D02*
X3006Y1764D01*
X2690Y1763D02*
X2709Y1763D01*
X2790Y1763D02*
X2809Y1763D01*
X2890Y1763D02*
X2909Y1763D01*
X2990Y1763D02*
X3009Y1763D01*
X2688Y1762D02*
X2712Y1762D01*
X2788Y1762D02*
X2812Y1762D01*
X2888Y1762D02*
X2912Y1762D01*
X2988Y1762D02*
X3012Y1762D01*
X2686Y1761D02*
X2714Y1761D01*
X2786Y1761D02*
X2814Y1761D01*
X2886Y1761D02*
X2914Y1761D01*
X2986Y1761D02*
X3014Y1761D01*
X2684Y1760D02*
X2716Y1760D01*
X2784Y1760D02*
X2816Y1760D01*
X2884Y1760D02*
X2916Y1760D01*
X2984Y1760D02*
X3016Y1760D01*
X2683Y1759D02*
X2717Y1759D01*
X2782Y1759D02*
X2817Y1759D01*
X2882Y1759D02*
X2917Y1759D01*
X2982Y1759D02*
X3017Y1759D01*
X2681Y1758D02*
X2719Y1758D01*
X2781Y1758D02*
X2819Y1758D01*
X2881Y1758D02*
X2919Y1758D01*
X2981Y1758D02*
X3019Y1758D01*
X2680Y1757D02*
X2720Y1757D01*
X2780Y1757D02*
X2820Y1757D01*
X2880Y1757D02*
X2920Y1757D01*
X2980Y1757D02*
X3020Y1757D01*
X2679Y1756D02*
X2721Y1756D01*
X2779Y1756D02*
X2821Y1756D01*
X2879Y1756D02*
X2921Y1756D01*
X2979Y1756D02*
X3021Y1756D01*
X2678Y1755D02*
X2722Y1755D01*
X2778Y1755D02*
X2822Y1755D01*
X2878Y1755D02*
X2922Y1755D01*
X2978Y1755D02*
X3022Y1755D01*
X2677Y1754D02*
X2723Y1754D01*
X2777Y1754D02*
X2823Y1754D01*
X2877Y1754D02*
X2923Y1754D01*
X2977Y1754D02*
X3023Y1754D01*
X2676Y1753D02*
X2724Y1753D01*
X2776Y1753D02*
X2824Y1753D01*
X2876Y1753D02*
X2924Y1753D01*
X2976Y1753D02*
X3024Y1753D01*
X2675Y1752D02*
X2724Y1752D01*
X2775Y1752D02*
X2824Y1752D01*
X2875Y1752D02*
X2924Y1752D01*
X2975Y1752D02*
X3024Y1752D01*
X2675Y1751D02*
X2725Y1751D01*
X2775Y1751D02*
X2825Y1751D01*
X2875Y1751D02*
X2925Y1751D01*
X2975Y1751D02*
X3025Y1751D01*
X2674Y1750D02*
X2726Y1750D01*
X2774Y1750D02*
X2826Y1750D01*
X2874Y1750D02*
X2926Y1750D01*
X2974Y1750D02*
X3026Y1750D01*
X2674Y1749D02*
X2726Y1749D01*
X2773Y1749D02*
X2826Y1749D01*
X2873Y1749D02*
X2926Y1749D01*
X2973Y1749D02*
X3026Y1749D01*
X2673Y1748D02*
X2727Y1748D01*
X2773Y1748D02*
X2827Y1748D01*
X2873Y1748D02*
X2927Y1748D01*
X2973Y1748D02*
X3027Y1748D01*
X2672Y1747D02*
X2727Y1747D01*
X2772Y1747D02*
X2827Y1747D01*
X2872Y1747D02*
X2927Y1747D01*
X2972Y1747D02*
X3027Y1747D01*
X2672Y1746D02*
X2728Y1746D01*
X2772Y1746D02*
X2828Y1746D01*
X2872Y1746D02*
X2928Y1746D01*
X2972Y1746D02*
X3028Y1746D01*
X2672Y1745D02*
X2728Y1745D01*
X2772Y1745D02*
X2828Y1745D01*
X2872Y1745D02*
X2928Y1745D01*
X2972Y1745D02*
X3028Y1745D01*
X2671Y1744D02*
X2729Y1744D01*
X2771Y1744D02*
X2828Y1744D01*
X2871Y1744D02*
X2928Y1744D01*
X2971Y1744D02*
X3028Y1744D01*
X2671Y1743D02*
X2729Y1743D01*
X2771Y1743D02*
X2829Y1743D01*
X2871Y1743D02*
X2929Y1743D01*
X2971Y1743D02*
X3029Y1743D01*
X2671Y1742D02*
X2729Y1742D01*
X2771Y1742D02*
X2829Y1742D01*
X2871Y1742D02*
X2929Y1742D01*
X2971Y1742D02*
X3029Y1742D01*
X2670Y1741D02*
X2729Y1741D01*
X2770Y1741D02*
X2829Y1741D01*
X2870Y1741D02*
X2929Y1741D01*
X2970Y1741D02*
X3029Y1741D01*
X2670Y1740D02*
X2730Y1740D01*
X2770Y1740D02*
X2830Y1740D01*
X2870Y1740D02*
X2930Y1740D01*
X2970Y1740D02*
X3030Y1740D01*
X2670Y1739D02*
X2730Y1739D01*
X2770Y1739D02*
X2830Y1739D01*
X2870Y1739D02*
X2930Y1739D01*
X2970Y1739D02*
X3030Y1739D01*
X2670Y1738D02*
X2730Y1738D01*
X2770Y1738D02*
X2830Y1738D01*
X2870Y1738D02*
X2930Y1738D01*
X2970Y1738D02*
X3030Y1738D01*
X2670Y1737D02*
X2730Y1737D01*
X2770Y1737D02*
X2830Y1737D01*
X2870Y1737D02*
X2930Y1737D01*
X2970Y1737D02*
X3030Y1737D01*
X2670Y1736D02*
X2730Y1736D01*
X2769Y1736D02*
X2830Y1736D01*
X2869Y1736D02*
X2930Y1736D01*
X2969Y1736D02*
X3030Y1736D01*
X2669Y1735D02*
X2730Y1735D01*
X2769Y1735D02*
X2830Y1735D01*
X2869Y1735D02*
X2930Y1735D01*
X2969Y1735D02*
X3030Y1735D01*
X2669Y1734D02*
X2730Y1734D01*
X2769Y1734D02*
X2830Y1734D01*
X2869Y1734D02*
X2930Y1734D01*
X2969Y1734D02*
X3030Y1734D01*
X2669Y1733D02*
X2730Y1733D01*
X2769Y1733D02*
X2830Y1733D01*
X2869Y1733D02*
X2930Y1733D01*
X2969Y1733D02*
X3030Y1733D01*
X2669Y1732D02*
X2730Y1732D01*
X2769Y1732D02*
X2830Y1732D01*
X2869Y1732D02*
X2930Y1732D01*
X2969Y1732D02*
X3030Y1732D01*
X2669Y1731D02*
X2730Y1731D01*
X2769Y1731D02*
X2830Y1731D01*
X2869Y1731D02*
X2930Y1731D01*
X2969Y1731D02*
X3030Y1731D01*
X2669Y1730D02*
X2730Y1730D01*
X2769Y1730D02*
X2830Y1730D01*
X2869Y1730D02*
X2930Y1730D01*
X2969Y1730D02*
X3030Y1730D01*
X2669Y1729D02*
X2730Y1729D01*
X2769Y1729D02*
X2830Y1729D01*
X2869Y1729D02*
X2930Y1729D01*
X2969Y1729D02*
X3030Y1729D01*
X2669Y1728D02*
X2730Y1728D01*
X2769Y1728D02*
X2830Y1728D01*
X2869Y1728D02*
X2930Y1728D01*
X2969Y1728D02*
X3030Y1728D01*
X2669Y1727D02*
X2730Y1727D01*
X2769Y1727D02*
X2830Y1727D01*
X2869Y1727D02*
X2930Y1727D01*
X2969Y1727D02*
X3030Y1727D01*
X2669Y1726D02*
X2730Y1726D01*
X2769Y1726D02*
X2830Y1726D01*
X2869Y1726D02*
X2930Y1726D01*
X2969Y1726D02*
X3030Y1726D01*
X2669Y1725D02*
X2730Y1725D01*
X2769Y1725D02*
X2830Y1725D01*
X2869Y1725D02*
X2930Y1725D01*
X2969Y1725D02*
X3030Y1725D01*
X2669Y1724D02*
X2730Y1724D01*
X2769Y1724D02*
X2830Y1724D01*
X2869Y1724D02*
X2930Y1724D01*
X2969Y1724D02*
X3030Y1724D01*
X2669Y1723D02*
X2730Y1723D01*
X2769Y1723D02*
X2830Y1723D01*
X2869Y1723D02*
X2930Y1723D01*
X2969Y1723D02*
X3030Y1723D01*
X2669Y1722D02*
X2730Y1722D01*
X2769Y1722D02*
X2830Y1722D01*
X2869Y1722D02*
X2930Y1722D01*
X2969Y1722D02*
X3030Y1722D01*
X2669Y1721D02*
X2730Y1721D01*
X2769Y1721D02*
X2830Y1721D01*
X2869Y1721D02*
X2930Y1721D01*
X2969Y1721D02*
X3030Y1721D01*
X2669Y1720D02*
X2730Y1720D01*
X2769Y1720D02*
X2830Y1720D01*
X2869Y1720D02*
X2930Y1720D01*
X2969Y1720D02*
X3030Y1720D01*
X2669Y1719D02*
X2730Y1719D01*
X2769Y1719D02*
X2830Y1719D01*
X2869Y1719D02*
X2930Y1719D01*
X2969Y1719D02*
X3030Y1719D01*
X2669Y1718D02*
X2695Y1718D01*
X2705Y1718D02*
X2730Y1718D01*
X2769Y1718D02*
X2795Y1718D01*
X2805Y1718D02*
X2830Y1718D01*
X2869Y1718D02*
X2895Y1718D01*
X2905Y1718D02*
X2930Y1718D01*
X2969Y1718D02*
X2995Y1718D01*
X3004Y1718D02*
X3030Y1718D01*
X2669Y1717D02*
X2693Y1717D01*
X2706Y1717D02*
X2730Y1717D01*
X2769Y1717D02*
X2793Y1717D01*
X2806Y1717D02*
X2830Y1717D01*
X2869Y1717D02*
X2893Y1717D01*
X2906Y1717D02*
X2930Y1717D01*
X2969Y1717D02*
X2993Y1717D01*
X3006Y1717D02*
X3030Y1717D01*
X2669Y1716D02*
X2692Y1716D01*
X2708Y1716D02*
X2730Y1716D01*
X2769Y1716D02*
X2792Y1716D01*
X2808Y1716D02*
X2830Y1716D01*
X2869Y1716D02*
X2892Y1716D01*
X2908Y1716D02*
X2930Y1716D01*
X2969Y1716D02*
X2992Y1716D01*
X3008Y1716D02*
X3030Y1716D01*
X2669Y1715D02*
X2691Y1715D01*
X2709Y1715D02*
X2730Y1715D01*
X2769Y1715D02*
X2791Y1715D01*
X2809Y1715D02*
X2830Y1715D01*
X2869Y1715D02*
X2891Y1715D01*
X2909Y1715D02*
X2930Y1715D01*
X2969Y1715D02*
X2991Y1715D01*
X3009Y1715D02*
X3030Y1715D01*
X2669Y1714D02*
X2690Y1714D01*
X2709Y1714D02*
X2730Y1714D01*
X2769Y1714D02*
X2790Y1714D01*
X2809Y1714D02*
X2830Y1714D01*
X2869Y1714D02*
X2890Y1714D01*
X2909Y1714D02*
X2930Y1714D01*
X2969Y1714D02*
X2990Y1714D01*
X3009Y1714D02*
X3030Y1714D01*
X2669Y1713D02*
X2690Y1713D01*
X2710Y1713D02*
X2730Y1713D01*
X2769Y1713D02*
X2790Y1713D01*
X2810Y1713D02*
X2830Y1713D01*
X2869Y1713D02*
X2890Y1713D01*
X2910Y1713D02*
X2930Y1713D01*
X2969Y1713D02*
X2990Y1713D01*
X3010Y1713D02*
X3030Y1713D01*
X2669Y1712D02*
X2689Y1712D01*
X2711Y1712D02*
X2730Y1712D01*
X2769Y1712D02*
X2789Y1712D01*
X2811Y1712D02*
X2830Y1712D01*
X2869Y1712D02*
X2889Y1712D01*
X2911Y1712D02*
X2930Y1712D01*
X2969Y1712D02*
X2989Y1712D01*
X3011Y1712D02*
X3030Y1712D01*
X2669Y1711D02*
X2689Y1711D01*
X2711Y1711D02*
X2730Y1711D01*
X2769Y1711D02*
X2789Y1711D01*
X2811Y1711D02*
X2830Y1711D01*
X2869Y1711D02*
X2889Y1711D01*
X2911Y1711D02*
X2930Y1711D01*
X2969Y1711D02*
X2989Y1711D01*
X3011Y1711D02*
X3030Y1711D01*
X2669Y1710D02*
X2689Y1710D01*
X2711Y1710D02*
X2730Y1710D01*
X2769Y1710D02*
X2789Y1710D01*
X2811Y1710D02*
X2830Y1710D01*
X2869Y1710D02*
X2889Y1710D01*
X2911Y1710D02*
X2930Y1710D01*
X2969Y1710D02*
X2989Y1710D01*
X3011Y1710D02*
X3030Y1710D01*
X2669Y1709D02*
X2688Y1709D01*
X2711Y1709D02*
X2730Y1709D01*
X2769Y1709D02*
X2788Y1709D01*
X2811Y1709D02*
X2830Y1709D01*
X2869Y1709D02*
X2888Y1709D01*
X2911Y1709D02*
X2930Y1709D01*
X2969Y1709D02*
X2988Y1709D01*
X3011Y1709D02*
X3030Y1709D01*
X2669Y1708D02*
X2688Y1708D01*
X2711Y1708D02*
X2730Y1708D01*
X2769Y1708D02*
X2788Y1708D01*
X2811Y1708D02*
X2830Y1708D01*
X2869Y1708D02*
X2888Y1708D01*
X2911Y1708D02*
X2930Y1708D01*
X2969Y1708D02*
X2988Y1708D01*
X3011Y1708D02*
X3030Y1708D01*
X2669Y1707D02*
X2688Y1707D01*
X2711Y1707D02*
X2730Y1707D01*
X2769Y1707D02*
X2788Y1707D01*
X2811Y1707D02*
X2830Y1707D01*
X2869Y1707D02*
X2888Y1707D01*
X2911Y1707D02*
X2930Y1707D01*
X2969Y1707D02*
X2988Y1707D01*
X3011Y1707D02*
X3030Y1707D01*
X2669Y1706D02*
X2689Y1706D01*
X2711Y1706D02*
X2730Y1706D01*
X2769Y1706D02*
X2789Y1706D01*
X2811Y1706D02*
X2830Y1706D01*
X2869Y1706D02*
X2888Y1706D01*
X2911Y1706D02*
X2930Y1706D01*
X2969Y1706D02*
X2988Y1706D01*
X3011Y1706D02*
X3030Y1706D01*
X2669Y1705D02*
X2689Y1705D01*
X2711Y1705D02*
X2730Y1705D01*
X2769Y1705D02*
X2789Y1705D01*
X2811Y1705D02*
X2830Y1705D01*
X2869Y1705D02*
X2889Y1705D01*
X2911Y1705D02*
X2930Y1705D01*
X2969Y1705D02*
X2989Y1705D01*
X3011Y1705D02*
X3030Y1705D01*
X2669Y1704D02*
X2689Y1704D01*
X2711Y1704D02*
X2730Y1704D01*
X2769Y1704D02*
X2789Y1704D01*
X2811Y1704D02*
X2830Y1704D01*
X2869Y1704D02*
X2889Y1704D01*
X2911Y1704D02*
X2930Y1704D01*
X2969Y1704D02*
X2989Y1704D01*
X3011Y1704D02*
X3030Y1704D01*
X2669Y1703D02*
X2689Y1703D01*
X2710Y1703D02*
X2730Y1703D01*
X2769Y1703D02*
X2789Y1703D01*
X2810Y1703D02*
X2830Y1703D01*
X2869Y1703D02*
X2889Y1703D01*
X2910Y1703D02*
X2930Y1703D01*
X2969Y1703D02*
X2989Y1703D01*
X3010Y1703D02*
X3030Y1703D01*
X2669Y1702D02*
X2690Y1702D01*
X2710Y1702D02*
X2730Y1702D01*
X2769Y1702D02*
X2790Y1702D01*
X2810Y1702D02*
X2830Y1702D01*
X2869Y1702D02*
X2890Y1702D01*
X2910Y1702D02*
X2930Y1702D01*
X2969Y1702D02*
X2990Y1702D01*
X3010Y1702D02*
X3030Y1702D01*
X2669Y1701D02*
X2691Y1701D01*
X2709Y1701D02*
X2730Y1701D01*
X2769Y1701D02*
X2791Y1701D01*
X2809Y1701D02*
X2830Y1701D01*
X2869Y1701D02*
X2891Y1701D01*
X2909Y1701D02*
X2930Y1701D01*
X2969Y1701D02*
X2991Y1701D01*
X3009Y1701D02*
X3030Y1701D01*
X2669Y1700D02*
X2692Y1700D01*
X2708Y1700D02*
X2730Y1700D01*
X2769Y1700D02*
X2792Y1700D01*
X2808Y1700D02*
X2830Y1700D01*
X2869Y1700D02*
X2892Y1700D01*
X2908Y1700D02*
X2930Y1700D01*
X2969Y1700D02*
X2992Y1700D01*
X3008Y1700D02*
X3030Y1700D01*
X2669Y1699D02*
X2693Y1699D01*
X2707Y1699D02*
X2730Y1699D01*
X2769Y1699D02*
X2793Y1699D01*
X2807Y1699D02*
X2830Y1699D01*
X2869Y1699D02*
X2893Y1699D01*
X2907Y1699D02*
X2930Y1699D01*
X2969Y1699D02*
X2993Y1699D01*
X3007Y1699D02*
X3030Y1699D01*
X2669Y1698D02*
X2694Y1698D01*
X2706Y1698D02*
X2730Y1698D01*
X2769Y1698D02*
X2794Y1698D01*
X2806Y1698D02*
X2830Y1698D01*
X2869Y1698D02*
X2894Y1698D01*
X2905Y1698D02*
X2930Y1698D01*
X2969Y1698D02*
X2994Y1698D01*
X3005Y1698D02*
X3030Y1698D01*
X2669Y1697D02*
X2697Y1697D01*
X2703Y1697D02*
X2730Y1697D01*
X2769Y1697D02*
X2797Y1697D01*
X2803Y1697D02*
X2830Y1697D01*
X2869Y1697D02*
X2897Y1697D01*
X2903Y1697D02*
X2930Y1697D01*
X2969Y1697D02*
X2997Y1697D01*
X3003Y1697D02*
X3030Y1697D01*
X2669Y1696D02*
X2730Y1696D01*
X2769Y1696D02*
X2830Y1696D01*
X2869Y1696D02*
X2930Y1696D01*
X2969Y1696D02*
X3030Y1696D01*
X2669Y1695D02*
X2730Y1695D01*
X2769Y1695D02*
X2830Y1695D01*
X2869Y1695D02*
X2930Y1695D01*
X2969Y1695D02*
X3030Y1695D01*
X2669Y1694D02*
X2730Y1694D01*
X2769Y1694D02*
X2830Y1694D01*
X2869Y1694D02*
X2930Y1694D01*
X2969Y1694D02*
X3030Y1694D01*
X2669Y1693D02*
X2730Y1693D01*
X2769Y1693D02*
X2830Y1693D01*
X2869Y1693D02*
X2930Y1693D01*
X2969Y1693D02*
X3030Y1693D01*
X2669Y1692D02*
X2730Y1692D01*
X2769Y1692D02*
X2830Y1692D01*
X2869Y1692D02*
X2930Y1692D01*
X2969Y1692D02*
X3030Y1692D01*
X2669Y1691D02*
X2730Y1691D01*
X2769Y1691D02*
X2830Y1691D01*
X2869Y1691D02*
X2930Y1691D01*
X2969Y1691D02*
X3030Y1691D01*
X2669Y1690D02*
X2730Y1690D01*
X2769Y1690D02*
X2830Y1690D01*
X2869Y1690D02*
X2930Y1690D01*
X2969Y1690D02*
X3030Y1690D01*
X2669Y1689D02*
X2730Y1689D01*
X2769Y1689D02*
X2830Y1689D01*
X2869Y1689D02*
X2930Y1689D01*
X2969Y1689D02*
X3030Y1689D01*
X2669Y1688D02*
X2730Y1688D01*
X2769Y1688D02*
X2830Y1688D01*
X2869Y1688D02*
X2930Y1688D01*
X2969Y1688D02*
X3030Y1688D01*
X2669Y1687D02*
X2730Y1687D01*
X2769Y1687D02*
X2830Y1687D01*
X2869Y1687D02*
X2930Y1687D01*
X2969Y1687D02*
X3030Y1687D01*
X2669Y1686D02*
X2730Y1686D01*
X2769Y1686D02*
X2830Y1686D01*
X2869Y1686D02*
X2930Y1686D01*
X2969Y1686D02*
X3030Y1686D01*
X2669Y1685D02*
X2730Y1685D01*
X2769Y1685D02*
X2830Y1685D01*
X2869Y1685D02*
X2930Y1685D01*
X2969Y1685D02*
X3030Y1685D01*
X2669Y1684D02*
X2730Y1684D01*
X2769Y1684D02*
X2830Y1684D01*
X2869Y1684D02*
X2930Y1684D01*
X2969Y1684D02*
X3030Y1684D01*
X2669Y1683D02*
X2730Y1683D01*
X2769Y1683D02*
X2830Y1683D01*
X2869Y1683D02*
X2930Y1683D01*
X2969Y1683D02*
X3030Y1683D01*
X2669Y1682D02*
X2730Y1682D01*
X2769Y1682D02*
X2830Y1682D01*
X2869Y1682D02*
X2930Y1682D01*
X2969Y1682D02*
X3030Y1682D01*
X2669Y1681D02*
X2730Y1681D01*
X2769Y1681D02*
X2830Y1681D01*
X2869Y1681D02*
X2930Y1681D01*
X2969Y1681D02*
X3030Y1681D01*
X2669Y1680D02*
X2730Y1680D01*
X2769Y1680D02*
X2830Y1680D01*
X2869Y1680D02*
X2930Y1680D01*
X2969Y1680D02*
X3030Y1680D01*
X2670Y1679D02*
X2730Y1679D01*
X2770Y1679D02*
X2830Y1679D01*
X2869Y1679D02*
X2930Y1679D01*
X2969Y1679D02*
X3030Y1679D01*
X2670Y1678D02*
X2730Y1678D01*
X2770Y1678D02*
X2830Y1678D01*
X2870Y1678D02*
X2930Y1678D01*
X2970Y1678D02*
X3030Y1678D01*
X2670Y1677D02*
X2730Y1677D01*
X2770Y1677D02*
X2830Y1677D01*
X2870Y1677D02*
X2930Y1677D01*
X2970Y1677D02*
X3030Y1677D01*
X2670Y1676D02*
X2730Y1676D01*
X2770Y1676D02*
X2830Y1676D01*
X2870Y1676D02*
X2930Y1676D01*
X2970Y1676D02*
X3030Y1676D01*
X2670Y1675D02*
X2730Y1675D01*
X2770Y1675D02*
X2830Y1675D01*
X2870Y1675D02*
X2930Y1675D01*
X2970Y1675D02*
X3029Y1675D01*
X2670Y1674D02*
X2729Y1674D01*
X2770Y1674D02*
X2829Y1674D01*
X2870Y1674D02*
X2929Y1674D01*
X2970Y1674D02*
X3029Y1674D01*
X2671Y1673D02*
X2729Y1673D01*
X2771Y1673D02*
X2829Y1673D01*
X2871Y1673D02*
X2929Y1673D01*
X2971Y1673D02*
X3029Y1673D01*
X2671Y1672D02*
X2729Y1672D01*
X2771Y1672D02*
X2829Y1672D01*
X2871Y1672D02*
X2929Y1672D01*
X2971Y1672D02*
X3029Y1672D01*
X2671Y1671D02*
X2728Y1671D01*
X2771Y1671D02*
X2828Y1671D01*
X2871Y1671D02*
X2928Y1671D01*
X2971Y1671D02*
X3028Y1671D01*
X2672Y1670D02*
X2728Y1670D01*
X2772Y1670D02*
X2828Y1670D01*
X2872Y1670D02*
X2928Y1670D01*
X2972Y1670D02*
X3028Y1670D01*
X2672Y1669D02*
X2728Y1669D01*
X2772Y1669D02*
X2827Y1669D01*
X2872Y1669D02*
X2927Y1669D01*
X2972Y1669D02*
X3027Y1669D01*
X2673Y1668D02*
X2727Y1668D01*
X2773Y1668D02*
X2827Y1668D01*
X2873Y1668D02*
X2927Y1668D01*
X2973Y1668D02*
X3027Y1668D01*
X2673Y1667D02*
X2727Y1667D01*
X2773Y1667D02*
X2827Y1667D01*
X2873Y1667D02*
X2926Y1667D01*
X2973Y1667D02*
X3026Y1667D01*
X2674Y1666D02*
X2726Y1666D01*
X2774Y1666D02*
X2826Y1666D01*
X2874Y1666D02*
X2926Y1666D01*
X2974Y1666D02*
X3026Y1666D01*
X2674Y1665D02*
X2725Y1665D01*
X2774Y1665D02*
X2825Y1665D01*
X2874Y1665D02*
X2925Y1665D01*
X2974Y1665D02*
X3025Y1665D01*
X2675Y1664D02*
X2725Y1664D01*
X2775Y1664D02*
X2825Y1664D01*
X2875Y1664D02*
X2925Y1664D01*
X2975Y1664D02*
X3025Y1664D01*
X2676Y1663D02*
X2724Y1663D01*
X2776Y1663D02*
X2824Y1663D01*
X2876Y1663D02*
X2924Y1663D01*
X2976Y1663D02*
X3024Y1663D01*
X2677Y1662D02*
X2723Y1662D01*
X2777Y1662D02*
X2823Y1662D01*
X2876Y1662D02*
X2923Y1662D01*
X2976Y1662D02*
X3023Y1662D01*
X2677Y1661D02*
X2722Y1661D01*
X2777Y1661D02*
X2822Y1661D01*
X2877Y1661D02*
X2922Y1661D01*
X2977Y1661D02*
X3022Y1661D01*
X2678Y1660D02*
X2721Y1660D01*
X2778Y1660D02*
X2821Y1660D01*
X2878Y1660D02*
X2921Y1660D01*
X2978Y1660D02*
X3021Y1660D01*
X2679Y1659D02*
X2720Y1659D01*
X2779Y1659D02*
X2820Y1659D01*
X2879Y1659D02*
X2920Y1659D01*
X2979Y1659D02*
X3020Y1659D01*
X2681Y1658D02*
X2719Y1658D01*
X2780Y1658D02*
X2819Y1658D01*
X2880Y1658D02*
X2919Y1658D01*
X2980Y1658D02*
X3019Y1658D01*
X2682Y1657D02*
X2718Y1657D01*
X2782Y1657D02*
X2818Y1657D01*
X2882Y1657D02*
X2918Y1657D01*
X2982Y1657D02*
X3018Y1657D01*
X2683Y1656D02*
X2717Y1656D01*
X2783Y1656D02*
X2816Y1656D01*
X2883Y1656D02*
X2916Y1656D01*
X2983Y1656D02*
X3016Y1656D01*
X2685Y1655D02*
X2715Y1655D01*
X2785Y1655D02*
X2815Y1655D01*
X2885Y1655D02*
X2915Y1655D01*
X2985Y1655D02*
X3015Y1655D01*
X2687Y1654D02*
X2713Y1654D01*
X2787Y1654D02*
X2813Y1654D01*
X2887Y1654D02*
X2913Y1654D01*
X2987Y1654D02*
X3013Y1654D01*
X2689Y1653D02*
X2711Y1653D01*
X2789Y1653D02*
X2811Y1653D01*
X2889Y1653D02*
X2911Y1653D01*
X2989Y1653D02*
X3011Y1653D01*
X2692Y1652D02*
X2708Y1652D01*
X2792Y1652D02*
X2808Y1652D01*
X2892Y1652D02*
X2908Y1652D01*
X2992Y1652D02*
X3008Y1652D01*
X2697Y1651D02*
X2703Y1651D01*
X2797Y1651D02*
X2803Y1651D01*
X2897Y1651D02*
X2903Y1651D01*
X2997Y1651D02*
X3003Y1651D01*
X2694Y1464D02*
X2706Y1464D01*
X2794Y1464D02*
X2806Y1464D01*
X2894Y1464D02*
X2906Y1464D01*
X2994Y1464D02*
X3006Y1464D01*
X2690Y1463D02*
X2709Y1463D01*
X2790Y1463D02*
X2809Y1463D01*
X2890Y1463D02*
X2909Y1463D01*
X2990Y1463D02*
X3009Y1463D01*
X2688Y1462D02*
X2712Y1462D01*
X2788Y1462D02*
X2812Y1462D01*
X2888Y1462D02*
X2912Y1462D01*
X2988Y1462D02*
X3012Y1462D01*
X2686Y1461D02*
X2714Y1461D01*
X2786Y1461D02*
X2814Y1461D01*
X2886Y1461D02*
X2914Y1461D01*
X2986Y1461D02*
X3014Y1461D01*
X2684Y1460D02*
X2716Y1460D01*
X2784Y1460D02*
X2816Y1460D01*
X2884Y1460D02*
X2916Y1460D01*
X2984Y1460D02*
X3016Y1460D01*
X2682Y1459D02*
X2717Y1459D01*
X2782Y1459D02*
X2817Y1459D01*
X2882Y1459D02*
X2917Y1459D01*
X2982Y1459D02*
X3017Y1459D01*
X2681Y1458D02*
X2719Y1458D01*
X2781Y1458D02*
X2819Y1458D01*
X2881Y1458D02*
X2919Y1458D01*
X2981Y1458D02*
X3019Y1458D01*
X2680Y1457D02*
X2720Y1457D01*
X2780Y1457D02*
X2820Y1457D01*
X2880Y1457D02*
X2920Y1457D01*
X2980Y1457D02*
X3020Y1457D01*
X2679Y1456D02*
X2721Y1456D01*
X2779Y1456D02*
X2821Y1456D01*
X2879Y1456D02*
X2921Y1456D01*
X2979Y1456D02*
X3021Y1456D01*
X2678Y1455D02*
X2722Y1455D01*
X2778Y1455D02*
X2822Y1455D01*
X2878Y1455D02*
X2922Y1455D01*
X2978Y1455D02*
X3022Y1455D01*
X2677Y1454D02*
X2723Y1454D01*
X2777Y1454D02*
X2823Y1454D01*
X2877Y1454D02*
X2923Y1454D01*
X2977Y1454D02*
X3023Y1454D01*
X2676Y1453D02*
X2724Y1453D01*
X2776Y1453D02*
X2824Y1453D01*
X2876Y1453D02*
X2924Y1453D01*
X2976Y1453D02*
X3024Y1453D01*
X2675Y1452D02*
X2724Y1452D01*
X2775Y1452D02*
X2824Y1452D01*
X2875Y1452D02*
X2924Y1452D01*
X2975Y1452D02*
X3024Y1452D01*
X2675Y1451D02*
X2725Y1451D01*
X2775Y1451D02*
X2825Y1451D01*
X2875Y1451D02*
X2925Y1451D01*
X2975Y1451D02*
X3025Y1451D01*
X2674Y1450D02*
X2726Y1450D01*
X2774Y1450D02*
X2826Y1450D01*
X2874Y1450D02*
X2926Y1450D01*
X2974Y1450D02*
X3026Y1450D01*
X2673Y1449D02*
X2726Y1449D01*
X2773Y1449D02*
X2826Y1449D01*
X2873Y1449D02*
X2926Y1449D01*
X2973Y1449D02*
X3026Y1449D01*
X2673Y1448D02*
X2727Y1448D01*
X2773Y1448D02*
X2827Y1448D01*
X2873Y1448D02*
X2927Y1448D01*
X2973Y1448D02*
X3027Y1448D01*
X2672Y1447D02*
X2727Y1447D01*
X2772Y1447D02*
X2827Y1447D01*
X2872Y1447D02*
X2927Y1447D01*
X2972Y1447D02*
X3027Y1447D01*
X2672Y1446D02*
X2728Y1446D01*
X2772Y1446D02*
X2828Y1446D01*
X2872Y1446D02*
X2928Y1446D01*
X2972Y1446D02*
X3028Y1446D01*
X2672Y1445D02*
X2728Y1445D01*
X2772Y1445D02*
X2828Y1445D01*
X2872Y1445D02*
X2928Y1445D01*
X2972Y1445D02*
X3028Y1445D01*
X2671Y1444D02*
X2729Y1444D01*
X2771Y1444D02*
X2828Y1444D01*
X2871Y1444D02*
X2928Y1444D01*
X2971Y1444D02*
X3028Y1444D01*
X2671Y1443D02*
X2729Y1443D01*
X2771Y1443D02*
X2829Y1443D01*
X2871Y1443D02*
X2929Y1443D01*
X2971Y1443D02*
X3029Y1443D01*
X2671Y1442D02*
X2729Y1442D01*
X2771Y1442D02*
X2829Y1442D01*
X2871Y1442D02*
X2929Y1442D01*
X2971Y1442D02*
X3029Y1442D01*
X2670Y1441D02*
X2729Y1441D01*
X2770Y1441D02*
X2829Y1441D01*
X2870Y1441D02*
X2929Y1441D01*
X2970Y1441D02*
X3029Y1441D01*
X2670Y1440D02*
X2730Y1440D01*
X2770Y1440D02*
X2830Y1440D01*
X2870Y1440D02*
X2930Y1440D01*
X2970Y1440D02*
X3030Y1440D01*
X2670Y1439D02*
X2730Y1439D01*
X2770Y1439D02*
X2830Y1439D01*
X2870Y1439D02*
X2930Y1439D01*
X2970Y1439D02*
X3030Y1439D01*
X2670Y1438D02*
X2730Y1438D01*
X2770Y1438D02*
X2830Y1438D01*
X2870Y1438D02*
X2930Y1438D01*
X2970Y1438D02*
X3030Y1438D01*
X2670Y1437D02*
X2730Y1437D01*
X2770Y1437D02*
X2830Y1437D01*
X2870Y1437D02*
X2930Y1437D01*
X2970Y1437D02*
X3030Y1437D01*
X2670Y1436D02*
X2730Y1436D01*
X2769Y1436D02*
X2830Y1436D01*
X2869Y1436D02*
X2930Y1436D01*
X2969Y1436D02*
X3030Y1436D01*
X2669Y1435D02*
X2730Y1435D01*
X2769Y1435D02*
X2830Y1435D01*
X2869Y1435D02*
X2930Y1435D01*
X2969Y1435D02*
X3030Y1435D01*
X2669Y1434D02*
X2730Y1434D01*
X2769Y1434D02*
X2830Y1434D01*
X2869Y1434D02*
X2930Y1434D01*
X2969Y1434D02*
X3030Y1434D01*
X2669Y1433D02*
X2730Y1433D01*
X2769Y1433D02*
X2830Y1433D01*
X2869Y1433D02*
X2930Y1433D01*
X2969Y1433D02*
X3030Y1433D01*
X2669Y1432D02*
X2730Y1432D01*
X2769Y1432D02*
X2830Y1432D01*
X2869Y1432D02*
X2930Y1432D01*
X2969Y1432D02*
X3030Y1432D01*
X2669Y1431D02*
X2730Y1431D01*
X2769Y1431D02*
X2830Y1431D01*
X2869Y1431D02*
X2930Y1431D01*
X2969Y1431D02*
X3030Y1431D01*
X2669Y1430D02*
X2730Y1430D01*
X2769Y1430D02*
X2830Y1430D01*
X2869Y1430D02*
X2930Y1430D01*
X2969Y1430D02*
X3030Y1430D01*
X2669Y1429D02*
X2730Y1429D01*
X2769Y1429D02*
X2830Y1429D01*
X2869Y1429D02*
X2930Y1429D01*
X2969Y1429D02*
X3030Y1429D01*
X2669Y1428D02*
X2730Y1428D01*
X2769Y1428D02*
X2830Y1428D01*
X2869Y1428D02*
X2930Y1428D01*
X2969Y1428D02*
X3030Y1428D01*
X2669Y1427D02*
X2730Y1427D01*
X2769Y1427D02*
X2830Y1427D01*
X2869Y1427D02*
X2930Y1427D01*
X2969Y1427D02*
X3030Y1427D01*
X2669Y1426D02*
X2730Y1426D01*
X2769Y1426D02*
X2830Y1426D01*
X2869Y1426D02*
X2930Y1426D01*
X2969Y1426D02*
X3030Y1426D01*
X2669Y1425D02*
X2730Y1425D01*
X2769Y1425D02*
X2830Y1425D01*
X2869Y1425D02*
X2930Y1425D01*
X2969Y1425D02*
X3030Y1425D01*
X2669Y1424D02*
X2730Y1424D01*
X2769Y1424D02*
X2830Y1424D01*
X2869Y1424D02*
X2930Y1424D01*
X2969Y1424D02*
X3030Y1424D01*
X2669Y1423D02*
X2730Y1423D01*
X2769Y1423D02*
X2830Y1423D01*
X2869Y1423D02*
X2930Y1423D01*
X2969Y1423D02*
X3030Y1423D01*
X2669Y1422D02*
X2730Y1422D01*
X2769Y1422D02*
X2830Y1422D01*
X2869Y1422D02*
X2930Y1422D01*
X2969Y1422D02*
X3030Y1422D01*
X2669Y1421D02*
X2730Y1421D01*
X2769Y1421D02*
X2830Y1421D01*
X2869Y1421D02*
X2930Y1421D01*
X2969Y1421D02*
X3030Y1421D01*
X2669Y1420D02*
X2730Y1420D01*
X2769Y1420D02*
X2830Y1420D01*
X2869Y1420D02*
X2930Y1420D01*
X2969Y1420D02*
X3030Y1420D01*
X2669Y1419D02*
X2730Y1419D01*
X2769Y1419D02*
X2830Y1419D01*
X2869Y1419D02*
X2930Y1419D01*
X2969Y1419D02*
X3030Y1419D01*
X2669Y1418D02*
X2695Y1418D01*
X2705Y1418D02*
X2730Y1418D01*
X2769Y1418D02*
X2795Y1418D01*
X2805Y1418D02*
X2830Y1418D01*
X2869Y1418D02*
X2895Y1418D01*
X2905Y1418D02*
X2930Y1418D01*
X2969Y1418D02*
X2995Y1418D01*
X3005Y1418D02*
X3030Y1418D01*
X2669Y1417D02*
X2693Y1417D01*
X2706Y1417D02*
X2730Y1417D01*
X2769Y1417D02*
X2793Y1417D01*
X2806Y1417D02*
X2830Y1417D01*
X2869Y1417D02*
X2893Y1417D01*
X2906Y1417D02*
X2930Y1417D01*
X2969Y1417D02*
X2993Y1417D01*
X3006Y1417D02*
X3030Y1417D01*
X2669Y1416D02*
X2692Y1416D01*
X2708Y1416D02*
X2730Y1416D01*
X2769Y1416D02*
X2792Y1416D01*
X2808Y1416D02*
X2830Y1416D01*
X2869Y1416D02*
X2892Y1416D01*
X2908Y1416D02*
X2930Y1416D01*
X2969Y1416D02*
X2992Y1416D01*
X3008Y1416D02*
X3030Y1416D01*
X2669Y1415D02*
X2691Y1415D01*
X2709Y1415D02*
X2730Y1415D01*
X2769Y1415D02*
X2791Y1415D01*
X2809Y1415D02*
X2830Y1415D01*
X2869Y1415D02*
X2891Y1415D01*
X2909Y1415D02*
X2930Y1415D01*
X2969Y1415D02*
X2991Y1415D01*
X3009Y1415D02*
X3030Y1415D01*
X2669Y1414D02*
X2690Y1414D01*
X2709Y1414D02*
X2730Y1414D01*
X2769Y1414D02*
X2790Y1414D01*
X2809Y1414D02*
X2830Y1414D01*
X2869Y1414D02*
X2890Y1414D01*
X2909Y1414D02*
X2930Y1414D01*
X2969Y1414D02*
X2990Y1414D01*
X3009Y1414D02*
X3030Y1414D01*
X2669Y1413D02*
X2690Y1413D01*
X2710Y1413D02*
X2730Y1413D01*
X2769Y1413D02*
X2790Y1413D01*
X2810Y1413D02*
X2830Y1413D01*
X2869Y1413D02*
X2890Y1413D01*
X2910Y1413D02*
X2930Y1413D01*
X2969Y1413D02*
X2990Y1413D01*
X3010Y1413D02*
X3030Y1413D01*
X2669Y1412D02*
X2689Y1412D01*
X2711Y1412D02*
X2730Y1412D01*
X2769Y1412D02*
X2789Y1412D01*
X2811Y1412D02*
X2830Y1412D01*
X2869Y1412D02*
X2889Y1412D01*
X2911Y1412D02*
X2930Y1412D01*
X2969Y1412D02*
X2989Y1412D01*
X3011Y1412D02*
X3030Y1412D01*
X2669Y1411D02*
X2689Y1411D01*
X2711Y1411D02*
X2730Y1411D01*
X2769Y1411D02*
X2789Y1411D01*
X2811Y1411D02*
X2830Y1411D01*
X2869Y1411D02*
X2889Y1411D01*
X2911Y1411D02*
X2930Y1411D01*
X2969Y1411D02*
X2989Y1411D01*
X3011Y1411D02*
X3030Y1411D01*
X2669Y1410D02*
X2689Y1410D01*
X2711Y1410D02*
X2730Y1410D01*
X2769Y1410D02*
X2789Y1410D01*
X2811Y1410D02*
X2830Y1410D01*
X2869Y1410D02*
X2889Y1410D01*
X2911Y1410D02*
X2930Y1410D01*
X2969Y1410D02*
X2989Y1410D01*
X3011Y1410D02*
X3030Y1410D01*
X2669Y1409D02*
X2688Y1409D01*
X2711Y1409D02*
X2730Y1409D01*
X2769Y1409D02*
X2788Y1409D01*
X2811Y1409D02*
X2830Y1409D01*
X2869Y1409D02*
X2888Y1409D01*
X2911Y1409D02*
X2930Y1409D01*
X2969Y1409D02*
X2988Y1409D01*
X3011Y1409D02*
X3030Y1409D01*
X2669Y1408D02*
X2688Y1408D01*
X2711Y1408D02*
X2730Y1408D01*
X2769Y1408D02*
X2788Y1408D01*
X2811Y1408D02*
X2830Y1408D01*
X2869Y1408D02*
X2888Y1408D01*
X2911Y1408D02*
X2930Y1408D01*
X2969Y1408D02*
X2988Y1408D01*
X3011Y1408D02*
X3030Y1408D01*
X2669Y1407D02*
X2688Y1407D01*
X2711Y1407D02*
X2730Y1407D01*
X2769Y1407D02*
X2788Y1407D01*
X2811Y1407D02*
X2830Y1407D01*
X2869Y1407D02*
X2888Y1407D01*
X2911Y1407D02*
X2930Y1407D01*
X2969Y1407D02*
X2988Y1407D01*
X3011Y1407D02*
X3030Y1407D01*
X2669Y1406D02*
X2689Y1406D01*
X2711Y1406D02*
X2730Y1406D01*
X2769Y1406D02*
X2789Y1406D01*
X2811Y1406D02*
X2830Y1406D01*
X2869Y1406D02*
X2888Y1406D01*
X2911Y1406D02*
X2930Y1406D01*
X2969Y1406D02*
X2988Y1406D01*
X3011Y1406D02*
X3030Y1406D01*
X2669Y1405D02*
X2689Y1405D01*
X2711Y1405D02*
X2730Y1405D01*
X2769Y1405D02*
X2789Y1405D01*
X2811Y1405D02*
X2830Y1405D01*
X2869Y1405D02*
X2889Y1405D01*
X2911Y1405D02*
X2930Y1405D01*
X2969Y1405D02*
X2989Y1405D01*
X3011Y1405D02*
X3030Y1405D01*
X2669Y1404D02*
X2689Y1404D01*
X2711Y1404D02*
X2730Y1404D01*
X2769Y1404D02*
X2789Y1404D01*
X2811Y1404D02*
X2830Y1404D01*
X2869Y1404D02*
X2889Y1404D01*
X2911Y1404D02*
X2930Y1404D01*
X2969Y1404D02*
X2989Y1404D01*
X3011Y1404D02*
X3030Y1404D01*
X2669Y1403D02*
X2689Y1403D01*
X2710Y1403D02*
X2730Y1403D01*
X2769Y1403D02*
X2789Y1403D01*
X2810Y1403D02*
X2830Y1403D01*
X2869Y1403D02*
X2889Y1403D01*
X2910Y1403D02*
X2930Y1403D01*
X2969Y1403D02*
X2989Y1403D01*
X3010Y1403D02*
X3030Y1403D01*
X2669Y1402D02*
X2690Y1402D01*
X2710Y1402D02*
X2730Y1402D01*
X2769Y1402D02*
X2790Y1402D01*
X2810Y1402D02*
X2830Y1402D01*
X2869Y1402D02*
X2890Y1402D01*
X2910Y1402D02*
X2930Y1402D01*
X2969Y1402D02*
X2990Y1402D01*
X3010Y1402D02*
X3030Y1402D01*
X2669Y1401D02*
X2691Y1401D01*
X2709Y1401D02*
X2730Y1401D01*
X2769Y1401D02*
X2791Y1401D01*
X2809Y1401D02*
X2830Y1401D01*
X2869Y1401D02*
X2891Y1401D01*
X2909Y1401D02*
X2930Y1401D01*
X2969Y1401D02*
X2991Y1401D01*
X3009Y1401D02*
X3030Y1401D01*
X2669Y1400D02*
X2692Y1400D01*
X2708Y1400D02*
X2730Y1400D01*
X2769Y1400D02*
X2792Y1400D01*
X2808Y1400D02*
X2830Y1400D01*
X2869Y1400D02*
X2892Y1400D01*
X2908Y1400D02*
X2930Y1400D01*
X2969Y1400D02*
X2992Y1400D01*
X3008Y1400D02*
X3030Y1400D01*
X2669Y1399D02*
X2693Y1399D01*
X2707Y1399D02*
X2730Y1399D01*
X2769Y1399D02*
X2793Y1399D01*
X2807Y1399D02*
X2830Y1399D01*
X2869Y1399D02*
X2893Y1399D01*
X2907Y1399D02*
X2930Y1399D01*
X2969Y1399D02*
X2993Y1399D01*
X3007Y1399D02*
X3030Y1399D01*
X2669Y1398D02*
X2694Y1398D01*
X2705Y1398D02*
X2730Y1398D01*
X2769Y1398D02*
X2794Y1398D01*
X2805Y1398D02*
X2830Y1398D01*
X2869Y1398D02*
X2894Y1398D01*
X2905Y1398D02*
X2930Y1398D01*
X2969Y1398D02*
X2994Y1398D01*
X3005Y1398D02*
X3030Y1398D01*
X2669Y1397D02*
X2697Y1397D01*
X2703Y1397D02*
X2730Y1397D01*
X2769Y1397D02*
X2797Y1397D01*
X2803Y1397D02*
X2830Y1397D01*
X2869Y1397D02*
X2897Y1397D01*
X2903Y1397D02*
X2930Y1397D01*
X2969Y1397D02*
X2997Y1397D01*
X3003Y1397D02*
X3030Y1397D01*
X2669Y1396D02*
X2730Y1396D01*
X2769Y1396D02*
X2830Y1396D01*
X2869Y1396D02*
X2930Y1396D01*
X2969Y1396D02*
X3030Y1396D01*
X2669Y1395D02*
X2730Y1395D01*
X2769Y1395D02*
X2830Y1395D01*
X2869Y1395D02*
X2930Y1395D01*
X2969Y1395D02*
X3030Y1395D01*
X2669Y1394D02*
X2730Y1394D01*
X2769Y1394D02*
X2830Y1394D01*
X2869Y1394D02*
X2930Y1394D01*
X2969Y1394D02*
X3030Y1394D01*
X2669Y1393D02*
X2730Y1393D01*
X2769Y1393D02*
X2830Y1393D01*
X2869Y1393D02*
X2930Y1393D01*
X2969Y1393D02*
X3030Y1393D01*
X2669Y1392D02*
X2730Y1392D01*
X2769Y1392D02*
X2830Y1392D01*
X2869Y1392D02*
X2930Y1392D01*
X2969Y1392D02*
X3030Y1392D01*
X2669Y1391D02*
X2730Y1391D01*
X2769Y1391D02*
X2830Y1391D01*
X2869Y1391D02*
X2930Y1391D01*
X2969Y1391D02*
X3030Y1391D01*
X2669Y1390D02*
X2730Y1390D01*
X2769Y1390D02*
X2830Y1390D01*
X2869Y1390D02*
X2930Y1390D01*
X2969Y1390D02*
X3030Y1390D01*
X2669Y1389D02*
X2730Y1389D01*
X2769Y1389D02*
X2830Y1389D01*
X2869Y1389D02*
X2930Y1389D01*
X2969Y1389D02*
X3030Y1389D01*
X2669Y1388D02*
X2730Y1388D01*
X2769Y1388D02*
X2830Y1388D01*
X2869Y1388D02*
X2930Y1388D01*
X2969Y1388D02*
X3030Y1388D01*
X2669Y1387D02*
X2730Y1387D01*
X2769Y1387D02*
X2830Y1387D01*
X2869Y1387D02*
X2930Y1387D01*
X2969Y1387D02*
X3030Y1387D01*
X2669Y1386D02*
X2730Y1386D01*
X2769Y1386D02*
X2830Y1386D01*
X2869Y1386D02*
X2930Y1386D01*
X2969Y1386D02*
X3030Y1386D01*
X2669Y1385D02*
X2730Y1385D01*
X2769Y1385D02*
X2830Y1385D01*
X2869Y1385D02*
X2930Y1385D01*
X2969Y1385D02*
X3030Y1385D01*
X2669Y1384D02*
X2730Y1384D01*
X2769Y1384D02*
X2830Y1384D01*
X2869Y1384D02*
X2930Y1384D01*
X2969Y1384D02*
X3030Y1384D01*
X2669Y1383D02*
X2730Y1383D01*
X2769Y1383D02*
X2830Y1383D01*
X2869Y1383D02*
X2930Y1383D01*
X2969Y1383D02*
X3030Y1383D01*
X2669Y1382D02*
X2730Y1382D01*
X2769Y1382D02*
X2830Y1382D01*
X2869Y1382D02*
X2930Y1382D01*
X2969Y1382D02*
X3030Y1382D01*
X2669Y1381D02*
X2730Y1381D01*
X2769Y1381D02*
X2830Y1381D01*
X2869Y1381D02*
X2930Y1381D01*
X2969Y1381D02*
X3030Y1381D01*
X2669Y1380D02*
X2730Y1380D01*
X2769Y1380D02*
X2830Y1380D01*
X2869Y1380D02*
X2930Y1380D01*
X2969Y1380D02*
X3030Y1380D01*
X2670Y1379D02*
X2730Y1379D01*
X2770Y1379D02*
X2830Y1379D01*
X2869Y1379D02*
X2930Y1379D01*
X2969Y1379D02*
X3030Y1379D01*
X2670Y1378D02*
X2730Y1378D01*
X2770Y1378D02*
X2830Y1378D01*
X2870Y1378D02*
X2930Y1378D01*
X2970Y1378D02*
X3030Y1378D01*
X2670Y1377D02*
X2730Y1377D01*
X2770Y1377D02*
X2830Y1377D01*
X2870Y1377D02*
X2930Y1377D01*
X2970Y1377D02*
X3030Y1377D01*
X2670Y1376D02*
X2730Y1376D01*
X2770Y1376D02*
X2830Y1376D01*
X2870Y1376D02*
X2930Y1376D01*
X2970Y1376D02*
X3030Y1376D01*
X2670Y1375D02*
X2730Y1375D01*
X2770Y1375D02*
X2830Y1375D01*
X2870Y1375D02*
X2930Y1375D01*
X2970Y1375D02*
X3029Y1375D01*
X2670Y1374D02*
X2729Y1374D01*
X2770Y1374D02*
X2829Y1374D01*
X2870Y1374D02*
X2929Y1374D01*
X2970Y1374D02*
X3029Y1374D01*
X2671Y1373D02*
X2729Y1373D01*
X2771Y1373D02*
X2829Y1373D01*
X2871Y1373D02*
X2929Y1373D01*
X2971Y1373D02*
X3029Y1373D01*
X2671Y1372D02*
X2729Y1372D01*
X2771Y1372D02*
X2829Y1372D01*
X2871Y1372D02*
X2929Y1372D01*
X2971Y1372D02*
X3029Y1372D01*
X2671Y1371D02*
X2728Y1371D01*
X2771Y1371D02*
X2828Y1371D01*
X2871Y1371D02*
X2928Y1371D01*
X2971Y1371D02*
X3028Y1371D01*
X2672Y1370D02*
X2728Y1370D01*
X2772Y1370D02*
X2828Y1370D01*
X2872Y1370D02*
X2928Y1370D01*
X2972Y1370D02*
X3028Y1370D01*
X2672Y1369D02*
X2727Y1369D01*
X2772Y1369D02*
X2827Y1369D01*
X2872Y1369D02*
X2927Y1369D01*
X2972Y1369D02*
X3027Y1369D01*
X2673Y1368D02*
X2727Y1368D01*
X2773Y1368D02*
X2827Y1368D01*
X2873Y1368D02*
X2927Y1368D01*
X2973Y1368D02*
X3027Y1368D01*
X2673Y1367D02*
X2727Y1367D01*
X2773Y1367D02*
X2827Y1367D01*
X2873Y1367D02*
X2926Y1367D01*
X2973Y1367D02*
X3026Y1367D01*
X2674Y1366D02*
X2726Y1366D01*
X2774Y1366D02*
X2826Y1366D01*
X2874Y1366D02*
X2926Y1366D01*
X2974Y1366D02*
X3026Y1366D01*
X2674Y1365D02*
X2725Y1365D01*
X2774Y1365D02*
X2825Y1365D01*
X2874Y1365D02*
X2925Y1365D01*
X2974Y1365D02*
X3025Y1365D01*
X2675Y1364D02*
X2725Y1364D01*
X2775Y1364D02*
X2825Y1364D01*
X2875Y1364D02*
X2925Y1364D01*
X2975Y1364D02*
X3025Y1364D01*
X2676Y1363D02*
X2724Y1363D01*
X2776Y1363D02*
X2824Y1363D01*
X2876Y1363D02*
X2924Y1363D01*
X2976Y1363D02*
X3024Y1363D01*
X2677Y1362D02*
X2723Y1362D01*
X2777Y1362D02*
X2823Y1362D01*
X2877Y1362D02*
X2923Y1362D01*
X2976Y1362D02*
X3023Y1362D01*
X2677Y1361D02*
X2722Y1361D01*
X2777Y1361D02*
X2822Y1361D01*
X2877Y1361D02*
X2922Y1361D01*
X2977Y1361D02*
X3022Y1361D01*
X2678Y1360D02*
X2721Y1360D01*
X2778Y1360D02*
X2821Y1360D01*
X2878Y1360D02*
X2921Y1360D01*
X2978Y1360D02*
X3021Y1360D01*
X2679Y1359D02*
X2720Y1359D01*
X2779Y1359D02*
X2820Y1359D01*
X2879Y1359D02*
X2920Y1359D01*
X2979Y1359D02*
X3020Y1359D01*
X2681Y1358D02*
X2719Y1358D01*
X2781Y1358D02*
X2819Y1358D01*
X2881Y1358D02*
X2919Y1358D01*
X2980Y1358D02*
X3019Y1358D01*
X2682Y1357D02*
X2718Y1357D01*
X2782Y1357D02*
X2818Y1357D01*
X2882Y1357D02*
X2918Y1357D01*
X2982Y1357D02*
X3018Y1357D01*
X2683Y1356D02*
X2716Y1356D01*
X2783Y1356D02*
X2816Y1356D01*
X2883Y1356D02*
X2916Y1356D01*
X2983Y1356D02*
X3016Y1356D01*
X2685Y1355D02*
X2715Y1355D01*
X2785Y1355D02*
X2815Y1355D01*
X2885Y1355D02*
X2915Y1355D01*
X2985Y1355D02*
X3015Y1355D01*
X2687Y1354D02*
X2713Y1354D01*
X2787Y1354D02*
X2813Y1354D01*
X2887Y1354D02*
X2913Y1354D01*
X2987Y1354D02*
X3013Y1354D01*
X2689Y1353D02*
X2711Y1353D01*
X2789Y1353D02*
X2811Y1353D01*
X2889Y1353D02*
X2911Y1353D01*
X2989Y1353D02*
X3011Y1353D01*
X2692Y1352D02*
X2708Y1352D01*
X2792Y1352D02*
X2808Y1352D01*
X2892Y1352D02*
X2908Y1352D01*
X2992Y1352D02*
X3008Y1352D01*
X2697Y1351D02*
X2703Y1351D01*
X2797Y1351D02*
X2803Y1351D01*
X2897Y1351D02*
X2903Y1351D01*
X2997Y1351D02*
X3003Y1351D01*
D02*
G04 End of Mask1*
M02*